<?xml version="1.0" encoding="utf-8" standalone="no"?>
<!DOCTYPE svg PUBLIC "-//W3C//DTD SVG 1.1//EN"
  "http://www.w3.org/Graphics/SVG/1.1/DTD/svg11.dtd">
<svg xmlns:xlink="http://www.w3.org/1999/xlink" width="792pt" height="360pt" viewBox="0 0 792 360" xmlns="http://www.w3.org/2000/svg" version="1.1">
 <metadata>
  <rdf:RDF xmlns:dc="http://purl.org/dc/elements/1.1/" xmlns:cc="http://creativecommons.org/ns#" xmlns:rdf="http://www.w3.org/1999/02/22-rdf-syntax-ns#">
   <cc:Work>
    <dc:type rdf:resource="http://purl.org/dc/dcmitype/StillImage"/>
    <dc:date>2025-02-24T01:39:53.190819</dc:date>
    <dc:format>image/svg+xml</dc:format>
    <dc:creator>
     <cc:Agent>
      <dc:title>Matplotlib v3.10.0, https://matplotlib.org/</dc:title>
     </cc:Agent>
    </dc:creator>
   </cc:Work>
  </rdf:RDF>
 </metadata>
 <defs>
  <style type="text/css">*{stroke-linejoin: round; stroke-linecap: butt}</style>
 </defs>
 <g id="figure_1">
  <g id="patch_1">
   <path d="M 0 360 
L 792 360 
L 792 0 
L 0 0 
z
" style="fill: #ffffff"/>
  </g>
  <g id="axes_1">
   <g id="patch_2">
    <path d="M 240.73 180 
C 240.73 166.614018 238.093254 153.358199 232.97066 140.991164 
C 227.848067 128.62413 220.339248 117.386389 210.87393 107.92107 
C 201.408611 98.455752 190.17087 90.946933 177.803836 85.82434 
C 165.436801 80.701746 152.180982 78.065 138.795 78.065 
C 125.409018 78.065 112.153199 80.701746 99.786164 85.82434 
C 87.41913 90.946933 76.181389 98.455752 66.71607 107.92107 
C 57.250752 117.386389 49.741933 128.62413 44.61934 140.991164 
C 39.496746 153.358199 36.86 166.614018 36.86 180 
C 36.86 193.385982 39.496746 206.641801 44.61934 219.008836 
C 49.741933 231.37587 57.250752 242.613611 66.71607 252.07893 
C 76.181389 261.544248 87.41913 269.053067 99.786164 274.17566 
C 112.153199 279.298254 125.409018 281.935 138.795 281.935 
C 152.180982 281.935 165.436801 279.298254 177.803836 274.17566 
C 190.17087 269.053067 201.408611 261.544248 210.87393 252.07893 
C 220.339248 242.613611 227.848067 231.37587 232.97066 219.008836 
C 238.093254 206.641801 240.73 193.385982 240.73 180 
M 138.795 180 
C 138.795 180 138.795 180 138.795 180 
C 138.795 180 138.795 180 138.795 180 
C 138.795 180 138.795 180 138.795 180 
C 138.795 180 138.795 180 138.795 180 
C 138.795 180 138.795 180 138.795 180 
C 138.795 180 138.795 180 138.795 180 
C 138.795 180 138.795 180 138.795 180 
C 138.795 180 138.795 180 138.795 180 
C 138.795 180 138.795 180 138.795 180 
C 138.795 180 138.795 180 138.795 180 
C 138.795 180 138.795 180 138.795 180 
C 138.795 180 138.795 180 138.795 180 
C 138.795 180 138.795 180 138.795 180 
C 138.795 180 138.795 180 138.795 180 
C 138.795 180 138.795 180 138.795 180 
C 138.795 180 138.795 180 138.795 180 
z
" style="fill: #ffffff"/>
   </g>
   <g id="FillBetweenPolyCollection_1">
    <defs>
     <path id="mf2db4f46f1" d="M 217.206538 -180 
L 138.795 -180 
L 138.795 -180 
L 138.795 -180 
L 138.795 -180 
L 138.795 -180 
L 138.795 -180 
L 138.795 -180 
L 138.795 -180 
L 138.795 -180 
L 138.795 -180 
L 138.795 -180 
L 138.795 -180 
L 138.795 -180 
L 138.795 -180 
L 138.795 -180 
L 138.795 -180 
L 138.795 -180 
L 138.795 -180 
L 138.795 -180 
L 138.795 -180 
L 138.795 -180 
L 138.795 -180 
L 138.795 -180 
L 138.795 -180 
L 138.795 -180 
L 138.795 -180 
L 138.795 -180 
L 138.795 -180 
L 138.795 -180 
L 138.795 -180 
L 138.795 -180 
L 138.795 -180 
L 138.795 -180 
L 138.795 -180 
L 138.795 -180 
L 138.795 -180 
L 138.795 -180 
L 138.795 -180 
L 138.795 -180 
L 138.795 -180 
L 138.795 -180 
L 138.795 -180 
L 138.795 -180 
L 138.795 -180 
L 138.795 -180 
L 138.795 -180 
L 138.795 -180 
L 138.795 -180 
L 138.795 -180 
L 138.795 -180 
L 138.795 -180 
L 138.795 -180 
L 138.795 -180 
L 138.795 -180 
L 138.795 -180 
L 138.795 -180 
L 138.795 -180 
L 138.795 -180 
L 138.795 -180 
L 138.795 -180 
L 138.795 -180 
L 138.795 -180 
L 138.795 -180 
L 138.795 -180 
L 138.795 -180 
L 138.795 -180 
L 138.795 -180 
L 138.795 -180 
L 138.795 -180 
L 138.795 -180 
L 138.795 -180 
L 138.795 -180 
L 138.795 -180 
L 138.795 -180 
L 138.795 -180 
L 138.795 -180 
L 138.795 -180 
L 138.795 -180 
L 138.795 -180 
L 138.795 -180 
L 138.795 -180 
L 138.795 -180 
L 138.795 -180 
L 138.795 -180 
L 138.795 -180 
L 138.795 -180 
L 138.795 -180 
L 138.795 -180 
L 138.795 -180 
L 138.795 -180 
L 138.795 -180 
L 138.795 -180 
L 138.795 -180 
L 138.795 -180 
L 138.795 -180 
L 138.795 -180 
L 138.795 -180 
L 138.795 -180 
L 138.795 -180 
L 138.795 -180 
L 217.206538 -180 
L 217.206538 -180 
L 217.048671 -175.026833 
L 216.575703 -170.073691 
L 215.78954 -165.160519 
L 214.693347 -160.3071 
L 213.291538 -155.532977 
L 211.589758 -150.857375 
L 209.594859 -146.29912 
L 207.314874 -141.876566 
L 204.758984 -137.607522 
L 201.93748 -133.509177 
L 198.861723 -129.598035 
L 195.544099 -125.889843 
L 191.997967 -122.399534 
L 188.237605 -119.141162 
L 184.278155 -116.127846 
L 180.13556 -113.371722 
L 175.826502 -110.883886 
L 171.36833 -108.674356 
L 166.778998 -106.752029 
L 162.076983 -105.124646 
L 157.281221 -103.79876 
L 152.411021 -102.779709 
L 147.485994 -102.071597 
L 142.525971 -101.677275 
L 137.550925 -101.598331 
L 132.580889 -101.835083 
L 127.635875 -102.386578 
L 122.735794 -103.250594 
L 117.900378 -104.423654 
L 113.149098 -105.901032 
L 108.501084 -107.676781 
L 103.975054 -109.74375 
L 99.589231 -112.093616 
L 95.361276 -114.716917 
L 91.308213 -117.60309 
L 87.446362 -120.740513 
L 83.791275 -124.116554 
L 80.357668 -127.717617 
L 77.159368 -131.529203 
L 74.209252 -135.535964 
L 71.519201 -139.721765 
L 69.100045 -144.069753 
L 66.961526 -148.56242 
L 65.112256 -153.181674 
L 63.55968 -157.908917 
L 62.31005 -162.725112 
L 61.368398 -167.610867 
L 60.738515 -172.546509 
L 60.422938 -177.512164 
L 60.422938 -182.487836 
L 60.738515 -187.453491 
L 61.368398 -192.389133 
L 62.31005 -197.274888 
L 63.55968 -202.091083 
L 65.112256 -206.818326 
L 66.961526 -211.43758 
L 69.100045 -215.930247 
L 71.519201 -220.278235 
L 74.209252 -224.464036 
L 77.159368 -228.470797 
L 80.357668 -232.282383 
L 83.791275 -235.883446 
L 87.446362 -239.259487 
L 91.308213 -242.39691 
L 95.361276 -245.283083 
L 99.589231 -247.906384 
L 103.975054 -250.25625 
L 108.501084 -252.323219 
L 113.149098 -254.098968 
L 117.900378 -255.576346 
L 122.735794 -256.749406 
L 127.635875 -257.613422 
L 132.580889 -258.164917 
L 137.550925 -258.401669 
L 142.525971 -258.322725 
L 147.485994 -257.928403 
L 152.411021 -257.220291 
L 157.281221 -256.20124 
L 162.076983 -254.875354 
L 166.778998 -253.247971 
L 171.36833 -251.325644 
L 175.826502 -249.116114 
L 180.13556 -246.628278 
L 184.278155 -243.872154 
L 188.237605 -240.858838 
L 191.997967 -237.600466 
L 195.544099 -234.110157 
L 198.861723 -230.401965 
L 201.93748 -226.490823 
L 204.758984 -222.392478 
L 207.314874 -218.123434 
L 209.594859 -213.70088 
L 211.589758 -209.142625 
L 213.291538 -204.467023 
L 214.693347 -199.6929 
L 215.78954 -194.839481 
L 216.575703 -189.926309 
L 217.048671 -184.973167 
L 217.206538 -180 
z
" style="stroke: #008000; stroke-opacity: 0.1"/>
    </defs>
    <g clip-path="url(#p4566c0f2b4)">
     <use xlink:href="#mf2db4f46f1" x="0" y="360" style="fill: #008000; fill-opacity: 0.1; stroke: #008000; stroke-opacity: 0.1"/>
    </g>
   </g>
   <g id="FillBetweenPolyCollection_2">
    <defs>
     <path id="mf8174def8f" d="M 240.73 -180 
L 217.206538 -180 
L 217.048671 -184.973167 
L 216.575703 -189.926309 
L 215.78954 -194.839481 
L 214.693347 -199.6929 
L 213.291538 -204.467023 
L 211.589758 -209.142625 
L 209.594859 -213.70088 
L 207.314874 -218.123434 
L 204.758984 -222.392478 
L 201.93748 -226.490823 
L 198.861723 -230.401965 
L 195.544099 -234.110157 
L 191.997967 -237.600466 
L 188.237605 -240.858838 
L 184.278155 -243.872154 
L 180.13556 -246.628278 
L 175.826502 -249.116114 
L 171.36833 -251.325644 
L 166.778998 -253.247971 
L 162.076983 -254.875354 
L 157.281221 -256.20124 
L 152.411021 -257.220291 
L 147.485994 -257.928403 
L 142.525971 -258.322725 
L 137.550925 -258.401669 
L 132.580889 -258.164917 
L 127.635875 -257.613422 
L 122.735794 -256.749406 
L 117.900378 -255.576346 
L 113.149098 -254.098968 
L 108.501084 -252.323219 
L 103.975054 -250.25625 
L 99.589231 -247.906384 
L 95.361276 -245.283083 
L 91.308213 -242.39691 
L 87.446362 -239.259487 
L 83.791275 -235.883446 
L 80.357668 -232.282383 
L 77.159368 -228.470797 
L 74.209252 -224.464036 
L 71.519201 -220.278235 
L 69.100045 -215.930247 
L 66.961526 -211.43758 
L 65.112256 -206.818326 
L 63.55968 -202.091083 
L 62.31005 -197.274888 
L 61.368398 -192.389133 
L 60.738515 -187.453491 
L 60.422938 -182.487836 
L 60.422938 -177.512164 
L 60.738515 -172.546509 
L 61.368398 -167.610867 
L 62.31005 -162.725112 
L 63.55968 -157.908917 
L 65.112256 -153.181674 
L 66.961526 -148.56242 
L 69.100045 -144.069753 
L 71.519201 -139.721765 
L 74.209252 -135.535964 
L 77.159368 -131.529203 
L 80.357668 -127.717617 
L 83.791275 -124.116554 
L 87.446362 -120.740513 
L 91.308213 -117.60309 
L 95.361276 -114.716917 
L 99.589231 -112.093616 
L 103.975054 -109.74375 
L 108.501084 -107.676781 
L 113.149098 -105.901032 
L 117.900378 -104.423654 
L 122.735794 -103.250594 
L 127.635875 -102.386578 
L 132.580889 -101.835083 
L 137.550925 -101.598331 
L 142.525971 -101.677275 
L 147.485994 -102.071597 
L 152.411021 -102.779709 
L 157.281221 -103.79876 
L 162.076983 -105.124646 
L 166.778998 -106.752029 
L 171.36833 -108.674356 
L 175.826502 -110.883886 
L 180.13556 -113.371722 
L 184.278155 -116.127846 
L 188.237605 -119.141162 
L 191.997967 -122.399534 
L 195.544099 -125.889843 
L 198.861723 -129.598035 
L 201.93748 -133.509177 
L 204.758984 -137.607522 
L 207.314874 -141.876566 
L 209.594859 -146.29912 
L 211.589758 -150.857375 
L 213.291538 -155.532977 
L 214.693347 -160.3071 
L 215.78954 -165.160519 
L 216.575703 -170.073691 
L 217.048671 -175.026833 
L 217.206538 -180 
L 240.73 -180 
L 240.73 -180 
L 240.524772 -173.534883 
L 239.909914 -167.095798 
L 238.887902 -160.708674 
L 237.462851 -154.39923 
L 235.640499 -148.192871 
L 233.428185 -142.114588 
L 230.834817 -136.188856 
L 227.870836 -130.439536 
L 224.548179 -124.889778 
L 220.880224 -119.56193 
L 216.88174 -114.477445 
L 212.568829 -109.656796 
L 207.958857 -105.119394 
L 203.070386 -100.88351 
L 197.923101 -96.9662 
L 192.537728 -93.383238 
L 186.935952 -90.149051 
L 181.140329 -87.276663 
L 175.174197 -84.777638 
L 169.061578 -82.66204 
L 162.827087 -80.938388 
L 156.495827 -79.613622 
L 150.093292 -78.693076 
L 143.645263 -78.180458 
L 137.177703 -78.077831 
L 130.716656 -78.385608 
L 124.288137 -79.102551 
L 117.918032 -80.225773 
L 111.631992 -81.75075 
L 105.455327 -83.671342 
L 99.41291 -85.979815 
L 93.52907 -88.666875 
L 87.8275 -91.7217 
L 82.331158 -95.131992 
L 77.062177 -98.884017 
L 72.041771 -102.962667 
L 67.290157 -107.35152 
L 62.826468 -112.032902 
L 58.668678 -116.987964 
L 54.833528 -122.196753 
L 51.336461 -127.638295 
L 48.191559 -133.29068 
L 45.411484 -139.131146 
L 43.007433 -145.136177 
L 40.989084 -151.281592 
L 39.364565 -157.542646 
L 38.140417 -163.894128 
L 37.32157 -170.310462 
L 36.91132 -176.765813 
L 36.91132 -183.234187 
L 37.32157 -189.689538 
L 38.140417 -196.105872 
L 39.364565 -202.457354 
L 40.989084 -208.718408 
L 43.007433 -214.863823 
L 45.411484 -220.868854 
L 48.191559 -226.70932 
L 51.336461 -232.361705 
L 54.833528 -237.803247 
L 58.668678 -243.012036 
L 62.826468 -247.967098 
L 67.290157 -252.64848 
L 72.041771 -257.037333 
L 77.062177 -261.115983 
L 82.331158 -264.868008 
L 87.8275 -268.2783 
L 93.52907 -271.333125 
L 99.41291 -274.020185 
L 105.455327 -276.328658 
L 111.631992 -278.24925 
L 117.918032 -279.774227 
L 124.288137 -280.897449 
L 130.716656 -281.614392 
L 137.177703 -281.922169 
L 143.645263 -281.819542 
L 150.093292 -281.306924 
L 156.495827 -280.386378 
L 162.827087 -279.061612 
L 169.061578 -277.33796 
L 175.174197 -275.222362 
L 181.140329 -272.723337 
L 186.935952 -269.850949 
L 192.537728 -266.616762 
L 197.923101 -263.0338 
L 203.070386 -259.11649 
L 207.958857 -254.880606 
L 212.568829 -250.343204 
L 216.88174 -245.522555 
L 220.880224 -240.43807 
L 224.548179 -235.110222 
L 227.870836 -229.560464 
L 230.834817 -223.811144 
L 233.428185 -217.885412 
L 235.640499 -211.807129 
L 237.462851 -205.60077 
L 238.887902 -199.291326 
L 239.909914 -192.904202 
L 240.524772 -186.465117 
L 240.73 -180 
z
" style="stroke: #ff0000; stroke-opacity: 0.1"/>
    </defs>
    <g clip-path="url(#p4566c0f2b4)">
     <use xlink:href="#mf8174def8f" x="0" y="360" style="fill: #ff0000; fill-opacity: 0.1; stroke: #ff0000; stroke-opacity: 0.1"/>
    </g>
   </g>
   <g id="matplotlib.axis_1">
    <g id="xtick_1">
     <g id="line2d_1">
      <path d="M 138.795 180 
L 240.73 180 
" clip-path="url(#p4566c0f2b4)" style="fill: none; stroke: #b0b0b0; stroke-width: 0.8; stroke-linecap: square"/>
     </g>
     <g id="text_1">
      <!-- 0° -->
      <g transform="translate(249.04875 182.759375) scale(0.1 -0.1)">
       <defs>
        <path id="DejaVuSans-30" d="M 2034 4250 
Q 1547 4250 1301 3770 
Q 1056 3291 1056 2328 
Q 1056 1369 1301 889 
Q 1547 409 2034 409 
Q 2525 409 2770 889 
Q 3016 1369 3016 2328 
Q 3016 3291 2770 3770 
Q 2525 4250 2034 4250 
z
M 2034 4750 
Q 2819 4750 3233 4129 
Q 3647 3509 3647 2328 
Q 3647 1150 3233 529 
Q 2819 -91 2034 -91 
Q 1250 -91 836 529 
Q 422 1150 422 2328 
Q 422 3509 836 4129 
Q 1250 4750 2034 4750 
z
" transform="scale(0.015625)"/>
        <path id="DejaVuSans-b0" d="M 1600 4347 
Q 1350 4347 1178 4173 
Q 1006 4000 1006 3750 
Q 1006 3503 1178 3333 
Q 1350 3163 1600 3163 
Q 1850 3163 2022 3333 
Q 2194 3503 2194 3750 
Q 2194 3997 2020 4172 
Q 1847 4347 1600 4347 
z
M 1600 4750 
Q 1800 4750 1984 4673 
Q 2169 4597 2303 4453 
Q 2447 4313 2519 4134 
Q 2591 3956 2591 3750 
Q 2591 3338 2302 3052 
Q 2013 2766 1594 2766 
Q 1172 2766 890 3047 
Q 609 3328 609 3750 
Q 609 4169 896 4459 
Q 1184 4750 1600 4750 
z
" transform="scale(0.015625)"/>
       </defs>
       <use xlink:href="#DejaVuSans-30"/>
       <use xlink:href="#DejaVuSans-b0" transform="translate(63.623047 0)"/>
      </g>
     </g>
    </g>
    <g id="xtick_2">
     <g id="line2d_2">
      <path d="M 138.795 180 
L 210.87393 107.92107 
" clip-path="url(#p4566c0f2b4)" style="fill: none; stroke: #b0b0b0; stroke-width: 0.8; stroke-linecap: square"/>
     </g>
     <g id="text_2">
      <!-- 45° -->
      <g transform="translate(211.910925 100.78095) scale(0.1 -0.1)">
       <defs>
        <path id="DejaVuSans-34" d="M 2419 4116 
L 825 1625 
L 2419 1625 
L 2419 4116 
z
M 2253 4666 
L 3047 4666 
L 3047 1625 
L 3713 1625 
L 3713 1100 
L 3047 1100 
L 3047 0 
L 2419 0 
L 2419 1100 
L 313 1100 
L 313 1709 
L 2253 4666 
z
" transform="scale(0.015625)"/>
        <path id="DejaVuSans-35" d="M 691 4666 
L 3169 4666 
L 3169 4134 
L 1269 4134 
L 1269 2991 
Q 1406 3038 1543 3061 
Q 1681 3084 1819 3084 
Q 2600 3084 3056 2656 
Q 3513 2228 3513 1497 
Q 3513 744 3044 326 
Q 2575 -91 1722 -91 
Q 1428 -91 1123 -41 
Q 819 9 494 109 
L 494 744 
Q 775 591 1075 516 
Q 1375 441 1709 441 
Q 2250 441 2565 725 
Q 2881 1009 2881 1497 
Q 2881 1984 2565 2268 
Q 2250 2553 1709 2553 
Q 1456 2553 1204 2497 
Q 953 2441 691 2322 
L 691 4666 
z
" transform="scale(0.015625)"/>
       </defs>
       <use xlink:href="#DejaVuSans-34"/>
       <use xlink:href="#DejaVuSans-35" transform="translate(63.623047 0)"/>
       <use xlink:href="#DejaVuSans-b0" transform="translate(127.246094 0)"/>
      </g>
     </g>
    </g>
    <g id="xtick_3">
     <g id="line2d_3">
      <path d="M 138.795 180 
L 138.795 78.065 
" clip-path="url(#p4566c0f2b4)" style="fill: none; stroke: #b0b0b0; stroke-width: 0.8; stroke-linecap: square"/>
     </g>
     <g id="text_3">
      <!-- 90° -->
      <g transform="translate(129.9325 66.824375) scale(0.1 -0.1)">
       <defs>
        <path id="DejaVuSans-39" d="M 703 97 
L 703 672 
Q 941 559 1184 500 
Q 1428 441 1663 441 
Q 2288 441 2617 861 
Q 2947 1281 2994 2138 
Q 2813 1869 2534 1725 
Q 2256 1581 1919 1581 
Q 1219 1581 811 2004 
Q 403 2428 403 3163 
Q 403 3881 828 4315 
Q 1253 4750 1959 4750 
Q 2769 4750 3195 4129 
Q 3622 3509 3622 2328 
Q 3622 1225 3098 567 
Q 2575 -91 1691 -91 
Q 1453 -91 1209 -44 
Q 966 3 703 97 
z
M 1959 2075 
Q 2384 2075 2632 2365 
Q 2881 2656 2881 3163 
Q 2881 3666 2632 3958 
Q 2384 4250 1959 4250 
Q 1534 4250 1286 3958 
Q 1038 3666 1038 3163 
Q 1038 2656 1286 2365 
Q 1534 2075 1959 2075 
z
" transform="scale(0.015625)"/>
       </defs>
       <use xlink:href="#DejaVuSans-39"/>
       <use xlink:href="#DejaVuSans-30" transform="translate(63.623047 0)"/>
       <use xlink:href="#DejaVuSans-b0" transform="translate(127.246094 0)"/>
      </g>
     </g>
    </g>
    <g id="xtick_4">
     <g id="line2d_4">
      <path d="M 138.795 180 
L 66.71607 107.92107 
" clip-path="url(#p4566c0f2b4)" style="fill: none; stroke: #b0b0b0; stroke-width: 0.8; stroke-linecap: square"/>
     </g>
     <g id="text_4">
      <!-- 135° -->
      <g transform="translate(44.772825 100.78095) scale(0.1 -0.1)">
       <defs>
        <path id="DejaVuSans-31" d="M 794 531 
L 1825 531 
L 1825 4091 
L 703 3866 
L 703 4441 
L 1819 4666 
L 2450 4666 
L 2450 531 
L 3481 531 
L 3481 0 
L 794 0 
L 794 531 
z
" transform="scale(0.015625)"/>
        <path id="DejaVuSans-33" d="M 2597 2516 
Q 3050 2419 3304 2112 
Q 3559 1806 3559 1356 
Q 3559 666 3084 287 
Q 2609 -91 1734 -91 
Q 1441 -91 1130 -33 
Q 819 25 488 141 
L 488 750 
Q 750 597 1062 519 
Q 1375 441 1716 441 
Q 2309 441 2620 675 
Q 2931 909 2931 1356 
Q 2931 1769 2642 2001 
Q 2353 2234 1838 2234 
L 1294 2234 
L 1294 2753 
L 1863 2753 
Q 2328 2753 2575 2939 
Q 2822 3125 2822 3475 
Q 2822 3834 2567 4026 
Q 2313 4219 1838 4219 
Q 1578 4219 1281 4162 
Q 984 4106 628 3988 
L 628 4550 
Q 988 4650 1302 4700 
Q 1616 4750 1894 4750 
Q 2613 4750 3031 4423 
Q 3450 4097 3450 3541 
Q 3450 3153 3228 2886 
Q 3006 2619 2597 2516 
z
" transform="scale(0.015625)"/>
       </defs>
       <use xlink:href="#DejaVuSans-31"/>
       <use xlink:href="#DejaVuSans-33" transform="translate(63.623047 0)"/>
       <use xlink:href="#DejaVuSans-35" transform="translate(127.246094 0)"/>
       <use xlink:href="#DejaVuSans-b0" transform="translate(190.869141 0)"/>
      </g>
     </g>
    </g>
    <g id="xtick_5">
     <g id="line2d_5">
      <path d="M 138.795 180 
L 36.86 180 
" clip-path="url(#p4566c0f2b4)" style="fill: none; stroke: #b0b0b0; stroke-width: 0.8; stroke-linecap: square"/>
     </g>
     <g id="text_5">
      <!-- 180° -->
      <g transform="translate(10.81625 182.759375) scale(0.1 -0.1)">
       <defs>
        <path id="DejaVuSans-38" d="M 2034 2216 
Q 1584 2216 1326 1975 
Q 1069 1734 1069 1313 
Q 1069 891 1326 650 
Q 1584 409 2034 409 
Q 2484 409 2743 651 
Q 3003 894 3003 1313 
Q 3003 1734 2745 1975 
Q 2488 2216 2034 2216 
z
M 1403 2484 
Q 997 2584 770 2862 
Q 544 3141 544 3541 
Q 544 4100 942 4425 
Q 1341 4750 2034 4750 
Q 2731 4750 3128 4425 
Q 3525 4100 3525 3541 
Q 3525 3141 3298 2862 
Q 3072 2584 2669 2484 
Q 3125 2378 3379 2068 
Q 3634 1759 3634 1313 
Q 3634 634 3220 271 
Q 2806 -91 2034 -91 
Q 1263 -91 848 271 
Q 434 634 434 1313 
Q 434 1759 690 2068 
Q 947 2378 1403 2484 
z
M 1172 3481 
Q 1172 3119 1398 2916 
Q 1625 2713 2034 2713 
Q 2441 2713 2670 2916 
Q 2900 3119 2900 3481 
Q 2900 3844 2670 4047 
Q 2441 4250 2034 4250 
Q 1625 4250 1398 4047 
Q 1172 3844 1172 3481 
z
" transform="scale(0.015625)"/>
       </defs>
       <use xlink:href="#DejaVuSans-31"/>
       <use xlink:href="#DejaVuSans-38" transform="translate(63.623047 0)"/>
       <use xlink:href="#DejaVuSans-30" transform="translate(127.246094 0)"/>
       <use xlink:href="#DejaVuSans-b0" transform="translate(190.869141 0)"/>
      </g>
     </g>
    </g>
    <g id="xtick_6">
     <g id="line2d_6">
      <path d="M 138.795 180 
L 66.71607 252.07893 
" clip-path="url(#p4566c0f2b4)" style="fill: none; stroke: #b0b0b0; stroke-width: 0.8; stroke-linecap: square"/>
     </g>
     <g id="text_6">
      <!-- 225° -->
      <g transform="translate(44.772825 264.7378) scale(0.1 -0.1)">
       <defs>
        <path id="DejaVuSans-32" d="M 1228 531 
L 3431 531 
L 3431 0 
L 469 0 
L 469 531 
Q 828 903 1448 1529 
Q 2069 2156 2228 2338 
Q 2531 2678 2651 2914 
Q 2772 3150 2772 3378 
Q 2772 3750 2511 3984 
Q 2250 4219 1831 4219 
Q 1534 4219 1204 4116 
Q 875 4013 500 3803 
L 500 4441 
Q 881 4594 1212 4672 
Q 1544 4750 1819 4750 
Q 2544 4750 2975 4387 
Q 3406 4025 3406 3419 
Q 3406 3131 3298 2873 
Q 3191 2616 2906 2266 
Q 2828 2175 2409 1742 
Q 1991 1309 1228 531 
z
" transform="scale(0.015625)"/>
       </defs>
       <use xlink:href="#DejaVuSans-32"/>
       <use xlink:href="#DejaVuSans-32" transform="translate(63.623047 0)"/>
       <use xlink:href="#DejaVuSans-35" transform="translate(127.246094 0)"/>
       <use xlink:href="#DejaVuSans-b0" transform="translate(190.869141 0)"/>
      </g>
     </g>
    </g>
    <g id="xtick_7">
     <g id="line2d_7">
      <path d="M 138.795 180 
L 138.795 281.935 
" clip-path="url(#p4566c0f2b4)" style="fill: none; stroke: #b0b0b0; stroke-width: 0.8; stroke-linecap: square"/>
     </g>
     <g id="text_7">
      <!-- 270° -->
      <g transform="translate(126.75125 298.694375) scale(0.1 -0.1)">
       <defs>
        <path id="DejaVuSans-37" d="M 525 4666 
L 3525 4666 
L 3525 4397 
L 1831 0 
L 1172 0 
L 2766 4134 
L 525 4134 
L 525 4666 
z
" transform="scale(0.015625)"/>
       </defs>
       <use xlink:href="#DejaVuSans-32"/>
       <use xlink:href="#DejaVuSans-37" transform="translate(63.623047 0)"/>
       <use xlink:href="#DejaVuSans-30" transform="translate(127.246094 0)"/>
       <use xlink:href="#DejaVuSans-b0" transform="translate(190.869141 0)"/>
      </g>
     </g>
    </g>
    <g id="xtick_8">
     <g id="line2d_8">
      <path d="M 138.795 180 
L 210.87393 252.07893 
" clip-path="url(#p4566c0f2b4)" style="fill: none; stroke: #b0b0b0; stroke-width: 0.8; stroke-linecap: square"/>
     </g>
     <g id="text_8">
      <!-- 315° -->
      <g transform="translate(208.729675 264.7378) scale(0.1 -0.1)">
       <use xlink:href="#DejaVuSans-33"/>
       <use xlink:href="#DejaVuSans-31" transform="translate(63.623047 0)"/>
       <use xlink:href="#DejaVuSans-35" transform="translate(127.246094 0)"/>
       <use xlink:href="#DejaVuSans-b0" transform="translate(190.869141 0)"/>
      </g>
     </g>
    </g>
   </g>
   <g id="matplotlib.axis_2">
    <g id="ytick_1">
     <g id="line2d_9">
      <path d="M 178.000769 180 
C 178.000769 174.851546 176.986636 169.753153 175.016408 164.996602 
C 173.04618 160.24005 170.158172 155.917842 166.517665 152.277335 
C 162.877158 148.636828 158.55495 145.74882 153.798398 143.778592 
C 149.041847 141.808364 143.943454 140.794231 138.795 140.794231 
C 133.646546 140.794231 128.548153 141.808364 123.791602 143.778592 
C 119.03505 145.74882 114.712842 148.636828 111.072335 152.277335 
C 107.431828 155.917842 104.54382 160.24005 102.573592 164.996602 
C 100.603364 169.753153 99.589231 174.851546 99.589231 180 
C 99.589231 185.148454 100.603364 190.246847 102.573592 195.003398 
C 104.54382 199.75995 107.431828 204.082158 111.072335 207.722665 
C 114.712842 211.363172 119.03505 214.25118 123.791602 216.221408 
C 128.548153 218.191636 133.646546 219.205769 138.795 219.205769 
C 143.943454 219.205769 149.041847 218.191636 153.798398 216.221408 
C 158.55495 214.25118 162.877158 211.363172 166.517665 207.722665 
C 170.158172 204.082158 173.04618 199.75995 175.016408 195.003398 
C 176.986636 190.246847 178.000769 185.148454 178.000769 180 
" clip-path="url(#p4566c0f2b4)" style="fill: none; stroke: #b0b0b0; stroke-width: 0.8; stroke-linecap: square"/>
     </g>
     <g id="text_9">
      <!-- 0.5 -->
      <g transform="translate(178.000769 177.920312) scale(0.1 -0.1)">
       <defs>
        <path id="DejaVuSans-2e" d="M 684 794 
L 1344 794 
L 1344 0 
L 684 0 
L 684 794 
z
" transform="scale(0.015625)"/>
       </defs>
       <use xlink:href="#DejaVuSans-30"/>
       <use xlink:href="#DejaVuSans-2e" transform="translate(63.623047 0)"/>
       <use xlink:href="#DejaVuSans-35" transform="translate(95.410156 0)"/>
      </g>
     </g>
    </g>
    <g id="ytick_2">
     <g id="line2d_10">
      <path d="M 217.206538 180 
C 217.206538 169.703091 215.178272 159.506307 211.237815 149.993203 
C 207.297359 140.4801 201.521345 131.835684 194.240331 124.554669 
C 186.959316 117.273655 178.3149 111.497641 168.801797 107.557185 
C 159.288693 103.616728 149.091909 101.588462 138.795 101.588462 
C 128.498091 101.588462 118.301307 103.616728 108.788203 107.557185 
C 99.2751 111.497641 90.630684 117.273655 83.349669 124.554669 
C 76.068655 131.835684 70.292641 140.4801 66.352185 149.993203 
C 62.411728 159.506307 60.383462 169.703091 60.383462 180 
C 60.383462 190.296909 62.411728 200.493693 66.352185 210.006797 
C 70.292641 219.5199 76.068655 228.164316 83.349669 235.445331 
C 90.630684 242.726345 99.2751 248.502359 108.788203 252.442815 
C 118.301307 256.383272 128.498091 258.411538 138.795 258.411538 
C 149.091909 258.411538 159.288693 256.383272 168.801797 252.442815 
C 178.3149 248.502359 186.959316 242.726345 194.240331 235.445331 
C 201.521345 228.164316 207.297359 219.5199 211.237815 210.006797 
C 215.178272 200.493693 217.206538 190.296909 217.206538 180 
" clip-path="url(#p4566c0f2b4)" style="fill: none; stroke: #b0b0b0; stroke-width: 0.8; stroke-linecap: square"/>
     </g>
     <g id="text_10">
      <!-- 1.0 -->
      <g transform="translate(217.206538 177.920312) scale(0.1 -0.1)">
       <use xlink:href="#DejaVuSans-31"/>
       <use xlink:href="#DejaVuSans-2e" transform="translate(63.623047 0)"/>
       <use xlink:href="#DejaVuSans-30" transform="translate(95.410156 0)"/>
      </g>
     </g>
    </g>
    <g id="ytick_3">
     <g id="line2d_11">
      <path d="M 240.73 180 
C 240.73 166.614018 238.093254 153.358199 232.97066 140.991164 
C 227.848067 128.62413 220.339248 117.386389 210.87393 107.92107 
C 201.408611 98.455752 190.17087 90.946933 177.803836 85.82434 
C 165.436801 80.701746 152.180982 78.065 138.795 78.065 
C 125.409018 78.065 112.153199 80.701746 99.786164 85.82434 
C 87.41913 90.946933 76.181389 98.455752 66.71607 107.92107 
C 57.250752 117.386389 49.741933 128.62413 44.61934 140.991164 
C 39.496746 153.358199 36.86 166.614018 36.86 180 
C 36.86 193.385982 39.496746 206.641801 44.61934 219.008836 
C 49.741933 231.37587 57.250752 242.613611 66.71607 252.07893 
C 76.181389 261.544248 87.41913 269.053067 99.786164 274.17566 
C 112.153199 279.298254 125.409018 281.935 138.795 281.935 
C 152.180982 281.935 165.436801 279.298254 177.803836 274.17566 
C 190.17087 269.053067 201.408611 261.544248 210.87393 252.07893 
C 220.339248 242.613611 227.848067 231.37587 232.97066 219.008836 
C 238.093254 206.641801 240.73 193.385982 240.73 180 
" clip-path="url(#p4566c0f2b4)" style="fill: none; stroke: #b0b0b0; stroke-width: 0.8; stroke-linecap: square"/>
     </g>
     <g id="text_11">
      <!-- 1.3 -->
      <g transform="translate(240.73 177.920312) scale(0.1 -0.1)">
       <use xlink:href="#DejaVuSans-31"/>
       <use xlink:href="#DejaVuSans-2e" transform="translate(63.623047 0)"/>
       <use xlink:href="#DejaVuSans-33" transform="translate(95.410156 0)"/>
      </g>
     </g>
    </g>
   </g>
   <g id="patch_3">
    <path d="M 240.73 180 
C 240.73 166.614018 238.093254 153.358199 232.97066 140.991164 
C 227.848067 128.62413 220.339248 117.386389 210.87393 107.92107 
C 201.408611 98.455752 190.17087 90.946933 177.803836 85.82434 
C 165.436801 80.701746 152.180982 78.065 138.795 78.065 
C 125.409018 78.065 112.153199 80.701746 99.786164 85.82434 
C 87.41913 90.946933 76.181389 98.455752 66.71607 107.92107 
C 57.250752 117.386389 49.741933 128.62413 44.61934 140.991164 
C 39.496746 153.358199 36.86 166.614018 36.86 180 
C 36.86 193.385982 39.496746 206.641801 44.61934 219.008836 
C 49.741933 231.37587 57.250752 242.613611 66.71607 252.07893 
C 76.181389 261.544248 87.41913 269.053067 99.786164 274.17566 
C 112.153199 279.298254 125.409018 281.935 138.795 281.935 
C 152.180982 281.935 165.436801 279.298254 177.803836 274.17566 
C 190.17087 269.053067 201.408611 261.544248 210.87393 252.07893 
C 220.339248 242.613611 227.848067 231.37587 232.97066 219.008836 
C 238.093254 206.641801 240.73 193.385982 240.73 180 
" style="fill: none; stroke: #000000; stroke-width: 0.8; stroke-linejoin: miter; stroke-linecap: square"/>
   </g>
   <g id="line2d_12">
    <path d="M 217.206538 180 
L 217.048671 175.026833 
L 216.575703 170.073691 
L 215.78954 165.160519 
L 214.693347 160.3071 
L 213.291538 155.532977 
L 211.589758 150.857375 
L 209.594859 146.29912 
L 207.314874 141.876566 
L 204.758984 137.607522 
L 201.93748 133.509177 
L 198.861723 129.598035 
L 195.544099 125.889843 
L 191.997967 122.399534 
L 188.237605 119.141162 
L 184.278155 116.127846 
L 180.13556 113.371722 
L 175.826502 110.883886 
L 171.36833 108.674356 
L 166.778998 106.752029 
L 162.076983 105.124646 
L 157.281221 103.79876 
L 152.411021 102.779709 
L 147.485994 102.071597 
L 142.525971 101.677275 
L 137.550925 101.598331 
L 132.580889 101.835083 
L 127.635875 102.386578 
L 122.735794 103.250594 
L 117.900378 104.423654 
L 113.149098 105.901032 
L 108.501084 107.676781 
L 103.975054 109.74375 
L 99.589231 112.093616 
L 95.361276 114.716917 
L 91.308213 117.60309 
L 87.446362 120.740513 
L 83.791275 124.116554 
L 80.357668 127.717617 
L 77.159368 131.529203 
L 74.209252 135.535964 
L 71.519201 139.721765 
L 69.100045 144.069753 
L 66.961526 148.56242 
L 65.112256 153.181674 
L 63.55968 157.908917 
L 62.31005 162.725112 
L 61.368398 167.610867 
L 60.738515 172.546509 
L 60.422938 177.512164 
L 60.422938 182.487836 
L 60.738515 187.453491 
L 61.368398 192.389133 
L 62.31005 197.274888 
L 63.55968 202.091083 
L 65.112256 206.818326 
L 66.961526 211.43758 
L 69.100045 215.930247 
L 71.519201 220.278235 
L 74.209252 224.464036 
L 77.159368 228.470797 
L 80.357668 232.282383 
L 83.791275 235.883446 
L 87.446362 239.259487 
L 91.308213 242.39691 
L 95.361276 245.283083 
L 99.589231 247.906384 
L 103.975054 250.25625 
L 108.501084 252.323219 
L 113.149098 254.098968 
L 117.900378 255.576346 
L 122.735794 256.749406 
L 127.635875 257.613422 
L 132.580889 258.164917 
L 137.550925 258.401669 
L 142.525971 258.322725 
L 147.485994 257.928403 
L 152.411021 257.220291 
L 157.281221 256.20124 
L 162.076983 254.875354 
L 166.778998 253.247971 
L 171.36833 251.325644 
L 175.826502 249.116114 
L 180.13556 246.628278 
L 184.278155 243.872154 
L 188.237605 240.858838 
L 191.997967 237.600466 
L 195.544099 234.110157 
L 198.861723 230.401965 
L 201.93748 226.490823 
L 204.758984 222.392478 
L 207.314874 218.123434 
L 209.594859 213.70088 
L 211.589758 209.142625 
L 213.291538 204.467023 
L 214.693347 199.6929 
L 215.78954 194.839481 
L 216.575703 189.926309 
L 217.048671 184.973167 
L 217.206538 180 
" clip-path="url(#p4566c0f2b4)" style="fill: none; stroke: #000000; stroke-width: 3; stroke-linecap: square"/>
   </g>
   <g id="PathCollection_1">
    <defs>
     <path id="me2dda42bce" d="M 0 4.1833 
C 1.109424 4.1833 2.173559 3.742521 2.95804 2.95804 
C 3.742521 2.173559 4.1833 1.109424 4.1833 0 
C 4.1833 -1.109424 3.742521 -2.173559 2.95804 -2.95804 
C 2.173559 -3.742521 1.109424 -4.1833 0 -4.1833 
C -1.109424 -4.1833 -2.173559 -3.742521 -2.95804 -2.95804 
C -3.742521 -2.173559 -4.1833 -1.109424 -4.1833 0 
C -4.1833 1.109424 -3.742521 2.173559 -2.95804 2.95804 
C -2.173559 3.742521 -1.109424 4.1833 0 4.1833 
z
" style="stroke: #000000"/>
    </defs>
    <g clip-path="url(#p4566c0f2b4)"/>
   </g>
   <g id="PathCollection_2">
    <g clip-path="url(#p4566c0f2b4)">
     <use xlink:href="#me2dda42bce" x="138.795598" y="101.58847" style="fill: #808080; stroke: #000000"/>
    </g>
   </g>
   <g id="PathCollection_3">
    <g clip-path="url(#p4566c0f2b4)">
     <use xlink:href="#me2dda42bce" x="138.795679" y="258.41153" style="fill: #808080; stroke: #000000"/>
    </g>
   </g>
   <g id="PathCollection_4">
    <defs>
     <path id="mfd20c4bdf6" d="M 0 4.1833 
C 1.109424 4.1833 2.173559 3.742521 2.95804 2.95804 
C 3.742521 2.173559 4.1833 1.109424 4.1833 0 
C 4.1833 -1.109424 3.742521 -2.173559 2.95804 -2.95804 
C 2.173559 -3.742521 1.109424 -4.1833 0 -4.1833 
C -1.109424 -4.1833 -2.173559 -3.742521 -2.95804 -2.95804 
C -3.742521 -2.173559 -4.1833 -1.109424 -4.1833 0 
C -4.1833 1.109424 -3.742521 2.173559 -2.95804 2.95804 
C -2.173559 3.742521 -1.109424 4.1833 0 4.1833 
z
" style="stroke: #000000"/>
    </defs>
    <g clip-path="url(#p4566c0f2b4)">
     <use xlink:href="#mfd20c4bdf6" x="138.795598" y="101.58847" style="fill: #00ffff; stroke: #000000"/>
    </g>
   </g>
  </g>
  <g id="axes_2">
   <g id="patch_4">
    <path d="M 501.13 180 
C 501.13 166.614018 498.493254 153.358199 493.37066 140.991164 
C 488.248067 128.62413 480.739248 117.386389 471.27393 107.92107 
C 461.808611 98.455752 450.57087 90.946933 438.203836 85.82434 
C 425.836801 80.701746 412.580982 78.065 399.195 78.065 
C 385.809018 78.065 372.553199 80.701746 360.186164 85.82434 
C 347.81913 90.946933 336.581389 98.455752 327.11607 107.92107 
C 317.650752 117.386389 310.141933 128.62413 305.01934 140.991164 
C 299.896746 153.358199 297.26 166.614018 297.26 180 
C 297.26 193.385982 299.896746 206.641801 305.01934 219.008836 
C 310.141933 231.37587 317.650752 242.613611 327.11607 252.07893 
C 336.581389 261.544248 347.81913 269.053067 360.186164 274.17566 
C 372.553199 279.298254 385.809018 281.935 399.195 281.935 
C 412.580982 281.935 425.836801 279.298254 438.203836 274.17566 
C 450.57087 269.053067 461.808611 261.544248 471.27393 252.07893 
C 480.739248 242.613611 488.248067 231.37587 493.37066 219.008836 
C 498.493254 206.641801 501.13 193.385982 501.13 180 
M 399.195 180 
C 399.195 180 399.195 180 399.195 180 
C 399.195 180 399.195 180 399.195 180 
C 399.195 180 399.195 180 399.195 180 
C 399.195 180 399.195 180 399.195 180 
C 399.195 180 399.195 180 399.195 180 
C 399.195 180 399.195 180 399.195 180 
C 399.195 180 399.195 180 399.195 180 
C 399.195 180 399.195 180 399.195 180 
C 399.195 180 399.195 180 399.195 180 
C 399.195 180 399.195 180 399.195 180 
C 399.195 180 399.195 180 399.195 180 
C 399.195 180 399.195 180 399.195 180 
C 399.195 180 399.195 180 399.195 180 
C 399.195 180 399.195 180 399.195 180 
C 399.195 180 399.195 180 399.195 180 
C 399.195 180 399.195 180 399.195 180 
z
" style="fill: #ffffff"/>
   </g>
   <g id="FillBetweenPolyCollection_3">
    <defs>
     <path id="m66509aa8e8" d="M 477.606538 -180 
L 399.195 -180 
L 399.195 -180 
L 399.195 -180 
L 399.195 -180 
L 399.195 -180 
L 399.195 -180 
L 399.195 -180 
L 399.195 -180 
L 399.195 -180 
L 399.195 -180 
L 399.195 -180 
L 399.195 -180 
L 399.195 -180 
L 399.195 -180 
L 399.195 -180 
L 399.195 -180 
L 399.195 -180 
L 399.195 -180 
L 399.195 -180 
L 399.195 -180 
L 399.195 -180 
L 399.195 -180 
L 399.195 -180 
L 399.195 -180 
L 399.195 -180 
L 399.195 -180 
L 399.195 -180 
L 399.195 -180 
L 399.195 -180 
L 399.195 -180 
L 399.195 -180 
L 399.195 -180 
L 399.195 -180 
L 399.195 -180 
L 399.195 -180 
L 399.195 -180 
L 399.195 -180 
L 399.195 -180 
L 399.195 -180 
L 399.195 -180 
L 399.195 -180 
L 399.195 -180 
L 399.195 -180 
L 399.195 -180 
L 399.195 -180 
L 399.195 -180 
L 399.195 -180 
L 399.195 -180 
L 399.195 -180 
L 399.195 -180 
L 399.195 -180 
L 399.195 -180 
L 399.195 -180 
L 399.195 -180 
L 399.195 -180 
L 399.195 -180 
L 399.195 -180 
L 399.195 -180 
L 399.195 -180 
L 399.195 -180 
L 399.195 -180 
L 399.195 -180 
L 399.195 -180 
L 399.195 -180 
L 399.195 -180 
L 399.195 -180 
L 399.195 -180 
L 399.195 -180 
L 399.195 -180 
L 399.195 -180 
L 399.195 -180 
L 399.195 -180 
L 399.195 -180 
L 399.195 -180 
L 399.195 -180 
L 399.195 -180 
L 399.195 -180 
L 399.195 -180 
L 399.195 -180 
L 399.195 -180 
L 399.195 -180 
L 399.195 -180 
L 399.195 -180 
L 399.195 -180 
L 399.195 -180 
L 399.195 -180 
L 399.195 -180 
L 399.195 -180 
L 399.195 -180 
L 399.195 -180 
L 399.195 -180 
L 399.195 -180 
L 399.195 -180 
L 399.195 -180 
L 399.195 -180 
L 399.195 -180 
L 399.195 -180 
L 399.195 -180 
L 399.195 -180 
L 399.195 -180 
L 477.606538 -180 
L 477.606538 -180 
L 477.448671 -175.026833 
L 476.975703 -170.073691 
L 476.18954 -165.160519 
L 475.093347 -160.3071 
L 473.691538 -155.532977 
L 471.989758 -150.857375 
L 469.994859 -146.29912 
L 467.714874 -141.876566 
L 465.158984 -137.607522 
L 462.33748 -133.509177 
L 459.261723 -129.598035 
L 455.944099 -125.889843 
L 452.397967 -122.399534 
L 448.637605 -119.141162 
L 444.678155 -116.127846 
L 440.53556 -113.371722 
L 436.226502 -110.883886 
L 431.76833 -108.674356 
L 427.178998 -106.752029 
L 422.476983 -105.124646 
L 417.681221 -103.79876 
L 412.811021 -102.779709 
L 407.885994 -102.071597 
L 402.925971 -101.677275 
L 397.950925 -101.598331 
L 392.980889 -101.835083 
L 388.035875 -102.386578 
L 383.135794 -103.250594 
L 378.300378 -104.423654 
L 373.549098 -105.901032 
L 368.901084 -107.676781 
L 364.375054 -109.74375 
L 359.989231 -112.093616 
L 355.761276 -114.716917 
L 351.708213 -117.60309 
L 347.846362 -120.740513 
L 344.191275 -124.116554 
L 340.757668 -127.717617 
L 337.559368 -131.529203 
L 334.609252 -135.535964 
L 331.919201 -139.721765 
L 329.500045 -144.069753 
L 327.361526 -148.56242 
L 325.512256 -153.181674 
L 323.95968 -157.908917 
L 322.71005 -162.725112 
L 321.768398 -167.610867 
L 321.138515 -172.546509 
L 320.822938 -177.512164 
L 320.822938 -182.487836 
L 321.138515 -187.453491 
L 321.768398 -192.389133 
L 322.71005 -197.274888 
L 323.95968 -202.091083 
L 325.512256 -206.818326 
L 327.361526 -211.43758 
L 329.500045 -215.930247 
L 331.919201 -220.278235 
L 334.609252 -224.464036 
L 337.559368 -228.470797 
L 340.757668 -232.282383 
L 344.191275 -235.883446 
L 347.846362 -239.259487 
L 351.708213 -242.39691 
L 355.761276 -245.283083 
L 359.989231 -247.906384 
L 364.375054 -250.25625 
L 368.901084 -252.323219 
L 373.549098 -254.098968 
L 378.300378 -255.576346 
L 383.135794 -256.749406 
L 388.035875 -257.613422 
L 392.980889 -258.164917 
L 397.950925 -258.401669 
L 402.925971 -258.322725 
L 407.885994 -257.928403 
L 412.811021 -257.220291 
L 417.681221 -256.20124 
L 422.476983 -254.875354 
L 427.178998 -253.247971 
L 431.76833 -251.325644 
L 436.226502 -249.116114 
L 440.53556 -246.628278 
L 444.678155 -243.872154 
L 448.637605 -240.858838 
L 452.397967 -237.600466 
L 455.944099 -234.110157 
L 459.261723 -230.401965 
L 462.33748 -226.490823 
L 465.158984 -222.392478 
L 467.714874 -218.123434 
L 469.994859 -213.70088 
L 471.989758 -209.142625 
L 473.691538 -204.467023 
L 475.093347 -199.6929 
L 476.18954 -194.839481 
L 476.975703 -189.926309 
L 477.448671 -184.973167 
L 477.606538 -180 
z
" style="stroke: #008000; stroke-opacity: 0.1"/>
    </defs>
    <g clip-path="url(#pbb4f59e6ff)">
     <use xlink:href="#m66509aa8e8" x="0" y="360" style="fill: #008000; fill-opacity: 0.1; stroke: #008000; stroke-opacity: 0.1"/>
    </g>
   </g>
   <g id="FillBetweenPolyCollection_4">
    <defs>
     <path id="m293150b086" d="M 501.13 -180 
L 477.606538 -180 
L 477.448671 -184.973167 
L 476.975703 -189.926309 
L 476.18954 -194.839481 
L 475.093347 -199.6929 
L 473.691538 -204.467023 
L 471.989758 -209.142625 
L 469.994859 -213.70088 
L 467.714874 -218.123434 
L 465.158984 -222.392478 
L 462.33748 -226.490823 
L 459.261723 -230.401965 
L 455.944099 -234.110157 
L 452.397967 -237.600466 
L 448.637605 -240.858838 
L 444.678155 -243.872154 
L 440.53556 -246.628278 
L 436.226502 -249.116114 
L 431.76833 -251.325644 
L 427.178998 -253.247971 
L 422.476983 -254.875354 
L 417.681221 -256.20124 
L 412.811021 -257.220291 
L 407.885994 -257.928403 
L 402.925971 -258.322725 
L 397.950925 -258.401669 
L 392.980889 -258.164917 
L 388.035875 -257.613422 
L 383.135794 -256.749406 
L 378.300378 -255.576346 
L 373.549098 -254.098968 
L 368.901084 -252.323219 
L 364.375054 -250.25625 
L 359.989231 -247.906384 
L 355.761276 -245.283083 
L 351.708213 -242.39691 
L 347.846362 -239.259487 
L 344.191275 -235.883446 
L 340.757668 -232.282383 
L 337.559368 -228.470797 
L 334.609252 -224.464036 
L 331.919201 -220.278235 
L 329.500045 -215.930247 
L 327.361526 -211.43758 
L 325.512256 -206.818326 
L 323.95968 -202.091083 
L 322.71005 -197.274888 
L 321.768398 -192.389133 
L 321.138515 -187.453491 
L 320.822938 -182.487836 
L 320.822938 -177.512164 
L 321.138515 -172.546509 
L 321.768398 -167.610867 
L 322.71005 -162.725112 
L 323.95968 -157.908917 
L 325.512256 -153.181674 
L 327.361526 -148.56242 
L 329.500045 -144.069753 
L 331.919201 -139.721765 
L 334.609252 -135.535964 
L 337.559368 -131.529203 
L 340.757668 -127.717617 
L 344.191275 -124.116554 
L 347.846362 -120.740513 
L 351.708213 -117.60309 
L 355.761276 -114.716917 
L 359.989231 -112.093616 
L 364.375054 -109.74375 
L 368.901084 -107.676781 
L 373.549098 -105.901032 
L 378.300378 -104.423654 
L 383.135794 -103.250594 
L 388.035875 -102.386578 
L 392.980889 -101.835083 
L 397.950925 -101.598331 
L 402.925971 -101.677275 
L 407.885994 -102.071597 
L 412.811021 -102.779709 
L 417.681221 -103.79876 
L 422.476983 -105.124646 
L 427.178998 -106.752029 
L 431.76833 -108.674356 
L 436.226502 -110.883886 
L 440.53556 -113.371722 
L 444.678155 -116.127846 
L 448.637605 -119.141162 
L 452.397967 -122.399534 
L 455.944099 -125.889843 
L 459.261723 -129.598035 
L 462.33748 -133.509177 
L 465.158984 -137.607522 
L 467.714874 -141.876566 
L 469.994859 -146.29912 
L 471.989758 -150.857375 
L 473.691538 -155.532977 
L 475.093347 -160.3071 
L 476.18954 -165.160519 
L 476.975703 -170.073691 
L 477.448671 -175.026833 
L 477.606538 -180 
L 501.13 -180 
L 501.13 -180 
L 500.924772 -173.534883 
L 500.309914 -167.095798 
L 499.287902 -160.708674 
L 497.862851 -154.39923 
L 496.040499 -148.192871 
L 493.828185 -142.114588 
L 491.234817 -136.188856 
L 488.270836 -130.439536 
L 484.948179 -124.889778 
L 481.280224 -119.56193 
L 477.28174 -114.477445 
L 472.968829 -109.656796 
L 468.358857 -105.119394 
L 463.470386 -100.88351 
L 458.323101 -96.9662 
L 452.937728 -93.383238 
L 447.335952 -90.149051 
L 441.540329 -87.276663 
L 435.574197 -84.777638 
L 429.461578 -82.66204 
L 423.227087 -80.938388 
L 416.895827 -79.613622 
L 410.493292 -78.693076 
L 404.045263 -78.180458 
L 397.577703 -78.077831 
L 391.116656 -78.385608 
L 384.688137 -79.102551 
L 378.318032 -80.225773 
L 372.031992 -81.75075 
L 365.855327 -83.671342 
L 359.81291 -85.979815 
L 353.92907 -88.666875 
L 348.2275 -91.7217 
L 342.731158 -95.131992 
L 337.462177 -98.884017 
L 332.441771 -102.962667 
L 327.690157 -107.35152 
L 323.226468 -112.032902 
L 319.068678 -116.987964 
L 315.233528 -122.196753 
L 311.736461 -127.638295 
L 308.591559 -133.29068 
L 305.811484 -139.131146 
L 303.407433 -145.136177 
L 301.389084 -151.281592 
L 299.764565 -157.542646 
L 298.540417 -163.894128 
L 297.72157 -170.310462 
L 297.31132 -176.765813 
L 297.31132 -183.234187 
L 297.72157 -189.689538 
L 298.540417 -196.105872 
L 299.764565 -202.457354 
L 301.389084 -208.718408 
L 303.407433 -214.863823 
L 305.811484 -220.868854 
L 308.591559 -226.70932 
L 311.736461 -232.361705 
L 315.233528 -237.803247 
L 319.068678 -243.012036 
L 323.226468 -247.967098 
L 327.690157 -252.64848 
L 332.441771 -257.037333 
L 337.462177 -261.115983 
L 342.731158 -264.868008 
L 348.2275 -268.2783 
L 353.92907 -271.333125 
L 359.81291 -274.020185 
L 365.855327 -276.328658 
L 372.031992 -278.24925 
L 378.318032 -279.774227 
L 384.688137 -280.897449 
L 391.116656 -281.614392 
L 397.577703 -281.922169 
L 404.045263 -281.819542 
L 410.493292 -281.306924 
L 416.895827 -280.386378 
L 423.227087 -279.061612 
L 429.461578 -277.33796 
L 435.574197 -275.222362 
L 441.540329 -272.723337 
L 447.335952 -269.850949 
L 452.937728 -266.616762 
L 458.323101 -263.0338 
L 463.470386 -259.11649 
L 468.358857 -254.880606 
L 472.968829 -250.343204 
L 477.28174 -245.522555 
L 481.280224 -240.43807 
L 484.948179 -235.110222 
L 488.270836 -229.560464 
L 491.234817 -223.811144 
L 493.828185 -217.885412 
L 496.040499 -211.807129 
L 497.862851 -205.60077 
L 499.287902 -199.291326 
L 500.309914 -192.904202 
L 500.924772 -186.465117 
L 501.13 -180 
z
" style="stroke: #ff0000; stroke-opacity: 0.1"/>
    </defs>
    <g clip-path="url(#pbb4f59e6ff)">
     <use xlink:href="#m293150b086" x="0" y="360" style="fill: #ff0000; fill-opacity: 0.1; stroke: #ff0000; stroke-opacity: 0.1"/>
    </g>
   </g>
   <g id="matplotlib.axis_3">
    <g id="xtick_9">
     <g id="line2d_13">
      <path d="M 399.195 180 
L 501.13 180 
" clip-path="url(#pbb4f59e6ff)" style="fill: none; stroke: #b0b0b0; stroke-width: 0.8; stroke-linecap: square"/>
     </g>
     <g id="text_12">
      <!-- 0° -->
      <g transform="translate(509.44875 182.759375) scale(0.1 -0.1)">
       <use xlink:href="#DejaVuSans-30"/>
       <use xlink:href="#DejaVuSans-b0" transform="translate(63.623047 0)"/>
      </g>
     </g>
    </g>
    <g id="xtick_10">
     <g id="line2d_14">
      <path d="M 399.195 180 
L 471.27393 107.92107 
" clip-path="url(#pbb4f59e6ff)" style="fill: none; stroke: #b0b0b0; stroke-width: 0.8; stroke-linecap: square"/>
     </g>
     <g id="text_13">
      <!-- 45° -->
      <g transform="translate(472.310925 100.78095) scale(0.1 -0.1)">
       <use xlink:href="#DejaVuSans-34"/>
       <use xlink:href="#DejaVuSans-35" transform="translate(63.623047 0)"/>
       <use xlink:href="#DejaVuSans-b0" transform="translate(127.246094 0)"/>
      </g>
     </g>
    </g>
    <g id="xtick_11">
     <g id="line2d_15">
      <path d="M 399.195 180 
L 399.195 78.065 
" clip-path="url(#pbb4f59e6ff)" style="fill: none; stroke: #b0b0b0; stroke-width: 0.8; stroke-linecap: square"/>
     </g>
     <g id="text_14">
      <!-- 90° -->
      <g transform="translate(390.3325 66.824375) scale(0.1 -0.1)">
       <use xlink:href="#DejaVuSans-39"/>
       <use xlink:href="#DejaVuSans-30" transform="translate(63.623047 0)"/>
       <use xlink:href="#DejaVuSans-b0" transform="translate(127.246094 0)"/>
      </g>
     </g>
    </g>
    <g id="xtick_12">
     <g id="line2d_16">
      <path d="M 399.195 180 
L 327.11607 107.92107 
" clip-path="url(#pbb4f59e6ff)" style="fill: none; stroke: #b0b0b0; stroke-width: 0.8; stroke-linecap: square"/>
     </g>
     <g id="text_15">
      <!-- 135° -->
      <g transform="translate(305.172825 100.78095) scale(0.1 -0.1)">
       <use xlink:href="#DejaVuSans-31"/>
       <use xlink:href="#DejaVuSans-33" transform="translate(63.623047 0)"/>
       <use xlink:href="#DejaVuSans-35" transform="translate(127.246094 0)"/>
       <use xlink:href="#DejaVuSans-b0" transform="translate(190.869141 0)"/>
      </g>
     </g>
    </g>
    <g id="xtick_13">
     <g id="line2d_17">
      <path d="M 399.195 180 
L 297.26 180 
" clip-path="url(#pbb4f59e6ff)" style="fill: none; stroke: #b0b0b0; stroke-width: 0.8; stroke-linecap: square"/>
     </g>
     <g id="text_16">
      <!-- 180° -->
      <g transform="translate(271.21625 182.759375) scale(0.1 -0.1)">
       <use xlink:href="#DejaVuSans-31"/>
       <use xlink:href="#DejaVuSans-38" transform="translate(63.623047 0)"/>
       <use xlink:href="#DejaVuSans-30" transform="translate(127.246094 0)"/>
       <use xlink:href="#DejaVuSans-b0" transform="translate(190.869141 0)"/>
      </g>
     </g>
    </g>
    <g id="xtick_14">
     <g id="line2d_18">
      <path d="M 399.195 180 
L 327.11607 252.07893 
" clip-path="url(#pbb4f59e6ff)" style="fill: none; stroke: #b0b0b0; stroke-width: 0.8; stroke-linecap: square"/>
     </g>
     <g id="text_17">
      <!-- 225° -->
      <g transform="translate(305.172825 264.7378) scale(0.1 -0.1)">
       <use xlink:href="#DejaVuSans-32"/>
       <use xlink:href="#DejaVuSans-32" transform="translate(63.623047 0)"/>
       <use xlink:href="#DejaVuSans-35" transform="translate(127.246094 0)"/>
       <use xlink:href="#DejaVuSans-b0" transform="translate(190.869141 0)"/>
      </g>
     </g>
    </g>
    <g id="xtick_15">
     <g id="line2d_19">
      <path d="M 399.195 180 
L 399.195 281.935 
" clip-path="url(#pbb4f59e6ff)" style="fill: none; stroke: #b0b0b0; stroke-width: 0.8; stroke-linecap: square"/>
     </g>
     <g id="text_18">
      <!-- 270° -->
      <g transform="translate(387.15125 298.694375) scale(0.1 -0.1)">
       <use xlink:href="#DejaVuSans-32"/>
       <use xlink:href="#DejaVuSans-37" transform="translate(63.623047 0)"/>
       <use xlink:href="#DejaVuSans-30" transform="translate(127.246094 0)"/>
       <use xlink:href="#DejaVuSans-b0" transform="translate(190.869141 0)"/>
      </g>
     </g>
    </g>
    <g id="xtick_16">
     <g id="line2d_20">
      <path d="M 399.195 180 
L 471.27393 252.07893 
" clip-path="url(#pbb4f59e6ff)" style="fill: none; stroke: #b0b0b0; stroke-width: 0.8; stroke-linecap: square"/>
     </g>
     <g id="text_19">
      <!-- 315° -->
      <g transform="translate(469.129675 264.7378) scale(0.1 -0.1)">
       <use xlink:href="#DejaVuSans-33"/>
       <use xlink:href="#DejaVuSans-31" transform="translate(63.623047 0)"/>
       <use xlink:href="#DejaVuSans-35" transform="translate(127.246094 0)"/>
       <use xlink:href="#DejaVuSans-b0" transform="translate(190.869141 0)"/>
      </g>
     </g>
    </g>
   </g>
   <g id="matplotlib.axis_4">
    <g id="ytick_4">
     <g id="line2d_21">
      <path d="M 438.400769 180 
C 438.400769 174.851546 437.386636 169.753153 435.416408 164.996602 
C 433.44618 160.24005 430.558172 155.917842 426.917665 152.277335 
C 423.277158 148.636828 418.95495 145.74882 414.198398 143.778592 
C 409.441847 141.808364 404.343454 140.794231 399.195 140.794231 
C 394.046546 140.794231 388.948153 141.808364 384.191602 143.778592 
C 379.43505 145.74882 375.112842 148.636828 371.472335 152.277335 
C 367.831828 155.917842 364.94382 160.24005 362.973592 164.996602 
C 361.003364 169.753153 359.989231 174.851546 359.989231 180 
C 359.989231 185.148454 361.003364 190.246847 362.973592 195.003398 
C 364.94382 199.75995 367.831828 204.082158 371.472335 207.722665 
C 375.112842 211.363172 379.43505 214.25118 384.191602 216.221408 
C 388.948153 218.191636 394.046546 219.205769 399.195 219.205769 
C 404.343454 219.205769 409.441847 218.191636 414.198398 216.221408 
C 418.95495 214.25118 423.277158 211.363172 426.917665 207.722665 
C 430.558172 204.082158 433.44618 199.75995 435.416408 195.003398 
C 437.386636 190.246847 438.400769 185.148454 438.400769 180 
" clip-path="url(#pbb4f59e6ff)" style="fill: none; stroke: #b0b0b0; stroke-width: 0.8; stroke-linecap: square"/>
     </g>
     <g id="text_20">
      <!-- 0.5 -->
      <g transform="translate(438.400769 177.920312) scale(0.1 -0.1)">
       <use xlink:href="#DejaVuSans-30"/>
       <use xlink:href="#DejaVuSans-2e" transform="translate(63.623047 0)"/>
       <use xlink:href="#DejaVuSans-35" transform="translate(95.410156 0)"/>
      </g>
     </g>
    </g>
    <g id="ytick_5">
     <g id="line2d_22">
      <path d="M 477.606538 180 
C 477.606538 169.703091 475.578272 159.506307 471.637815 149.993203 
C 467.697359 140.4801 461.921345 131.835684 454.640331 124.554669 
C 447.359316 117.273655 438.7149 111.497641 429.201797 107.557185 
C 419.688693 103.616728 409.491909 101.588462 399.195 101.588462 
C 388.898091 101.588462 378.701307 103.616728 369.188203 107.557185 
C 359.6751 111.497641 351.030684 117.273655 343.749669 124.554669 
C 336.468655 131.835684 330.692641 140.4801 326.752185 149.993203 
C 322.811728 159.506307 320.783462 169.703091 320.783462 180 
C 320.783462 190.296909 322.811728 200.493693 326.752185 210.006797 
C 330.692641 219.5199 336.468655 228.164316 343.749669 235.445331 
C 351.030684 242.726345 359.6751 248.502359 369.188203 252.442815 
C 378.701307 256.383272 388.898091 258.411538 399.195 258.411538 
C 409.491909 258.411538 419.688693 256.383272 429.201797 252.442815 
C 438.7149 248.502359 447.359316 242.726345 454.640331 235.445331 
C 461.921345 228.164316 467.697359 219.5199 471.637815 210.006797 
C 475.578272 200.493693 477.606538 190.296909 477.606538 180 
" clip-path="url(#pbb4f59e6ff)" style="fill: none; stroke: #b0b0b0; stroke-width: 0.8; stroke-linecap: square"/>
     </g>
     <g id="text_21">
      <!-- 1.0 -->
      <g transform="translate(477.606538 177.920312) scale(0.1 -0.1)">
       <use xlink:href="#DejaVuSans-31"/>
       <use xlink:href="#DejaVuSans-2e" transform="translate(63.623047 0)"/>
       <use xlink:href="#DejaVuSans-30" transform="translate(95.410156 0)"/>
      </g>
     </g>
    </g>
    <g id="ytick_6">
     <g id="line2d_23">
      <path d="M 501.13 180 
C 501.13 166.614018 498.493254 153.358199 493.37066 140.991164 
C 488.248067 128.62413 480.739248 117.386389 471.27393 107.92107 
C 461.808611 98.455752 450.57087 90.946933 438.203836 85.82434 
C 425.836801 80.701746 412.580982 78.065 399.195 78.065 
C 385.809018 78.065 372.553199 80.701746 360.186164 85.82434 
C 347.81913 90.946933 336.581389 98.455752 327.11607 107.92107 
C 317.650752 117.386389 310.141933 128.62413 305.01934 140.991164 
C 299.896746 153.358199 297.26 166.614018 297.26 180 
C 297.26 193.385982 299.896746 206.641801 305.01934 219.008836 
C 310.141933 231.37587 317.650752 242.613611 327.11607 252.07893 
C 336.581389 261.544248 347.81913 269.053067 360.186164 274.17566 
C 372.553199 279.298254 385.809018 281.935 399.195 281.935 
C 412.580982 281.935 425.836801 279.298254 438.203836 274.17566 
C 450.57087 269.053067 461.808611 261.544248 471.27393 252.07893 
C 480.739248 242.613611 488.248067 231.37587 493.37066 219.008836 
C 498.493254 206.641801 501.13 193.385982 501.13 180 
" clip-path="url(#pbb4f59e6ff)" style="fill: none; stroke: #b0b0b0; stroke-width: 0.8; stroke-linecap: square"/>
     </g>
     <g id="text_22">
      <!-- 1.3 -->
      <g transform="translate(501.13 177.920312) scale(0.1 -0.1)">
       <use xlink:href="#DejaVuSans-31"/>
       <use xlink:href="#DejaVuSans-2e" transform="translate(63.623047 0)"/>
       <use xlink:href="#DejaVuSans-33" transform="translate(95.410156 0)"/>
      </g>
     </g>
    </g>
   </g>
   <g id="patch_5">
    <path d="M 501.13 180 
C 501.13 166.614018 498.493254 153.358199 493.37066 140.991164 
C 488.248067 128.62413 480.739248 117.386389 471.27393 107.92107 
C 461.808611 98.455752 450.57087 90.946933 438.203836 85.82434 
C 425.836801 80.701746 412.580982 78.065 399.195 78.065 
C 385.809018 78.065 372.553199 80.701746 360.186164 85.82434 
C 347.81913 90.946933 336.581389 98.455752 327.11607 107.92107 
C 317.650752 117.386389 310.141933 128.62413 305.01934 140.991164 
C 299.896746 153.358199 297.26 166.614018 297.26 180 
C 297.26 193.385982 299.896746 206.641801 305.01934 219.008836 
C 310.141933 231.37587 317.650752 242.613611 327.11607 252.07893 
C 336.581389 261.544248 347.81913 269.053067 360.186164 274.17566 
C 372.553199 279.298254 385.809018 281.935 399.195 281.935 
C 412.580982 281.935 425.836801 279.298254 438.203836 274.17566 
C 450.57087 269.053067 461.808611 261.544248 471.27393 252.07893 
C 480.739248 242.613611 488.248067 231.37587 493.37066 219.008836 
C 498.493254 206.641801 501.13 193.385982 501.13 180 
" style="fill: none; stroke: #000000; stroke-width: 0.8; stroke-linejoin: miter; stroke-linecap: square"/>
   </g>
   <g id="line2d_24">
    <path d="M 477.606538 180 
L 477.448671 175.026833 
L 476.975703 170.073691 
L 476.18954 165.160519 
L 475.093347 160.3071 
L 473.691538 155.532977 
L 471.989758 150.857375 
L 469.994859 146.29912 
L 467.714874 141.876566 
L 465.158984 137.607522 
L 462.33748 133.509177 
L 459.261723 129.598035 
L 455.944099 125.889843 
L 452.397967 122.399534 
L 448.637605 119.141162 
L 444.678155 116.127846 
L 440.53556 113.371722 
L 436.226502 110.883886 
L 431.76833 108.674356 
L 427.178998 106.752029 
L 422.476983 105.124646 
L 417.681221 103.79876 
L 412.811021 102.779709 
L 407.885994 102.071597 
L 402.925971 101.677275 
L 397.950925 101.598331 
L 392.980889 101.835083 
L 388.035875 102.386578 
L 383.135794 103.250594 
L 378.300378 104.423654 
L 373.549098 105.901032 
L 368.901084 107.676781 
L 364.375054 109.74375 
L 359.989231 112.093616 
L 355.761276 114.716917 
L 351.708213 117.60309 
L 347.846362 120.740513 
L 344.191275 124.116554 
L 340.757668 127.717617 
L 337.559368 131.529203 
L 334.609252 135.535964 
L 331.919201 139.721765 
L 329.500045 144.069753 
L 327.361526 148.56242 
L 325.512256 153.181674 
L 323.95968 157.908917 
L 322.71005 162.725112 
L 321.768398 167.610867 
L 321.138515 172.546509 
L 320.822938 177.512164 
L 320.822938 182.487836 
L 321.138515 187.453491 
L 321.768398 192.389133 
L 322.71005 197.274888 
L 323.95968 202.091083 
L 325.512256 206.818326 
L 327.361526 211.43758 
L 329.500045 215.930247 
L 331.919201 220.278235 
L 334.609252 224.464036 
L 337.559368 228.470797 
L 340.757668 232.282383 
L 344.191275 235.883446 
L 347.846362 239.259487 
L 351.708213 242.39691 
L 355.761276 245.283083 
L 359.989231 247.906384 
L 364.375054 250.25625 
L 368.901084 252.323219 
L 373.549098 254.098968 
L 378.300378 255.576346 
L 383.135794 256.749406 
L 388.035875 257.613422 
L 392.980889 258.164917 
L 397.950925 258.401669 
L 402.925971 258.322725 
L 407.885994 257.928403 
L 412.811021 257.220291 
L 417.681221 256.20124 
L 422.476983 254.875354 
L 427.178998 253.247971 
L 431.76833 251.325644 
L 436.226502 249.116114 
L 440.53556 246.628278 
L 444.678155 243.872154 
L 448.637605 240.858838 
L 452.397967 237.600466 
L 455.944099 234.110157 
L 459.261723 230.401965 
L 462.33748 226.490823 
L 465.158984 222.392478 
L 467.714874 218.123434 
L 469.994859 213.70088 
L 471.989758 209.142625 
L 473.691538 204.467023 
L 475.093347 199.6929 
L 476.18954 194.839481 
L 476.975703 189.926309 
L 477.448671 184.973167 
L 477.606538 180 
" clip-path="url(#pbb4f59e6ff)" style="fill: none; stroke: #000000; stroke-width: 3; stroke-linecap: square"/>
   </g>
   <g id="PathCollection_5">
    <g clip-path="url(#pbb4f59e6ff)"/>
   </g>
   <g id="PathCollection_6">
    <g clip-path="url(#pbb4f59e6ff)">
     <use xlink:href="#me2dda42bce" x="411.731306" y="174.440388" style="fill: #808080; stroke: #000000"/>
    </g>
   </g>
   <g id="PathCollection_7">
    <g clip-path="url(#pbb4f59e6ff)">
     <use xlink:href="#me2dda42bce" x="405.807503" y="177.851565" style="fill: #808080; stroke: #000000"/>
    </g>
   </g>
   <g id="PathCollection_8">
    <g clip-path="url(#pbb4f59e6ff)">
     <use xlink:href="#mfd20c4bdf6" x="411.731306" y="174.440388" style="fill: #00ffff; stroke: #000000"/>
    </g>
   </g>
  </g>
  <g id="axes_3">
   <g id="patch_6">
    <path d="M 761.53 180 
C 761.53 166.614018 758.893254 153.358199 753.77066 140.991164 
C 748.648067 128.62413 741.139248 117.386389 731.67393 107.92107 
C 722.208611 98.455752 710.97087 90.946933 698.603836 85.82434 
C 686.236801 80.701746 672.980982 78.065 659.595 78.065 
C 646.209018 78.065 632.953199 80.701746 620.586164 85.82434 
C 608.21913 90.946933 596.981389 98.455752 587.51607 107.92107 
C 578.050752 117.386389 570.541933 128.62413 565.41934 140.991164 
C 560.296746 153.358199 557.66 166.614018 557.66 180 
C 557.66 193.385982 560.296746 206.641801 565.41934 219.008836 
C 570.541933 231.37587 578.050752 242.613611 587.51607 252.07893 
C 596.981389 261.544248 608.21913 269.053067 620.586164 274.17566 
C 632.953199 279.298254 646.209018 281.935 659.595 281.935 
C 672.980982 281.935 686.236801 279.298254 698.603836 274.17566 
C 710.97087 269.053067 722.208611 261.544248 731.67393 252.07893 
C 741.139248 242.613611 748.648067 231.37587 753.77066 219.008836 
C 758.893254 206.641801 761.53 193.385982 761.53 180 
M 659.595 180 
C 659.595 180 659.595 180 659.595 180 
C 659.595 180 659.595 180 659.595 180 
C 659.595 180 659.595 180 659.595 180 
C 659.595 180 659.595 180 659.595 180 
C 659.595 180 659.595 180 659.595 180 
C 659.595 180 659.595 180 659.595 180 
C 659.595 180 659.595 180 659.595 180 
C 659.595 180 659.595 180 659.595 180 
C 659.595 180 659.595 180 659.595 180 
C 659.595 180 659.595 180 659.595 180 
C 659.595 180 659.595 180 659.595 180 
C 659.595 180 659.595 180 659.595 180 
C 659.595 180 659.595 180 659.595 180 
C 659.595 180 659.595 180 659.595 180 
C 659.595 180 659.595 180 659.595 180 
C 659.595 180 659.595 180 659.595 180 
z
" style="fill: #ffffff"/>
   </g>
   <g id="FillBetweenPolyCollection_5">
    <defs>
     <path id="m09d90ddb7e" d="M 738.006538 -180 
L 659.595 -180 
L 659.595 -180 
L 659.595 -180 
L 659.595 -180 
L 659.595 -180 
L 659.595 -180 
L 659.595 -180 
L 659.595 -180 
L 659.595 -180 
L 659.595 -180 
L 659.595 -180 
L 659.595 -180 
L 659.595 -180 
L 659.595 -180 
L 659.595 -180 
L 659.595 -180 
L 659.595 -180 
L 659.595 -180 
L 659.595 -180 
L 659.595 -180 
L 659.595 -180 
L 659.595 -180 
L 659.595 -180 
L 659.595 -180 
L 659.595 -180 
L 659.595 -180 
L 659.595 -180 
L 659.595 -180 
L 659.595 -180 
L 659.595 -180 
L 659.595 -180 
L 659.595 -180 
L 659.595 -180 
L 659.595 -180 
L 659.595 -180 
L 659.595 -180 
L 659.595 -180 
L 659.595 -180 
L 659.595 -180 
L 659.595 -180 
L 659.595 -180 
L 659.595 -180 
L 659.595 -180 
L 659.595 -180 
L 659.595 -180 
L 659.595 -180 
L 659.595 -180 
L 659.595 -180 
L 659.595 -180 
L 659.595 -180 
L 659.595 -180 
L 659.595 -180 
L 659.595 -180 
L 659.595 -180 
L 659.595 -180 
L 659.595 -180 
L 659.595 -180 
L 659.595 -180 
L 659.595 -180 
L 659.595 -180 
L 659.595 -180 
L 659.595 -180 
L 659.595 -180 
L 659.595 -180 
L 659.595 -180 
L 659.595 -180 
L 659.595 -180 
L 659.595 -180 
L 659.595 -180 
L 659.595 -180 
L 659.595 -180 
L 659.595 -180 
L 659.595 -180 
L 659.595 -180 
L 659.595 -180 
L 659.595 -180 
L 659.595 -180 
L 659.595 -180 
L 659.595 -180 
L 659.595 -180 
L 659.595 -180 
L 659.595 -180 
L 659.595 -180 
L 659.595 -180 
L 659.595 -180 
L 659.595 -180 
L 659.595 -180 
L 659.595 -180 
L 659.595 -180 
L 659.595 -180 
L 659.595 -180 
L 659.595 -180 
L 659.595 -180 
L 659.595 -180 
L 659.595 -180 
L 659.595 -180 
L 659.595 -180 
L 659.595 -180 
L 659.595 -180 
L 659.595 -180 
L 738.006538 -180 
L 738.006538 -180 
L 737.848671 -175.026833 
L 737.375703 -170.073691 
L 736.58954 -165.160519 
L 735.493347 -160.3071 
L 734.091538 -155.532977 
L 732.389758 -150.857375 
L 730.394859 -146.29912 
L 728.114874 -141.876566 
L 725.558984 -137.607522 
L 722.73748 -133.509177 
L 719.661723 -129.598035 
L 716.344099 -125.889843 
L 712.797967 -122.399534 
L 709.037605 -119.141162 
L 705.078155 -116.127846 
L 700.93556 -113.371722 
L 696.626502 -110.883886 
L 692.16833 -108.674356 
L 687.578998 -106.752029 
L 682.876983 -105.124646 
L 678.081221 -103.79876 
L 673.211021 -102.779709 
L 668.285994 -102.071597 
L 663.325971 -101.677275 
L 658.350925 -101.598331 
L 653.380889 -101.835083 
L 648.435875 -102.386578 
L 643.535794 -103.250594 
L 638.700378 -104.423654 
L 633.949098 -105.901032 
L 629.301084 -107.676781 
L 624.775054 -109.74375 
L 620.389231 -112.093616 
L 616.161276 -114.716917 
L 612.108213 -117.60309 
L 608.246362 -120.740513 
L 604.591275 -124.116554 
L 601.157668 -127.717617 
L 597.959368 -131.529203 
L 595.009252 -135.535964 
L 592.319201 -139.721765 
L 589.900045 -144.069753 
L 587.761526 -148.56242 
L 585.912256 -153.181674 
L 584.35968 -157.908917 
L 583.11005 -162.725112 
L 582.168398 -167.610867 
L 581.538515 -172.546509 
L 581.222938 -177.512164 
L 581.222938 -182.487836 
L 581.538515 -187.453491 
L 582.168398 -192.389133 
L 583.11005 -197.274888 
L 584.35968 -202.091083 
L 585.912256 -206.818326 
L 587.761526 -211.43758 
L 589.900045 -215.930247 
L 592.319201 -220.278235 
L 595.009252 -224.464036 
L 597.959368 -228.470797 
L 601.157668 -232.282383 
L 604.591275 -235.883446 
L 608.246362 -239.259487 
L 612.108213 -242.39691 
L 616.161276 -245.283083 
L 620.389231 -247.906384 
L 624.775054 -250.25625 
L 629.301084 -252.323219 
L 633.949098 -254.098968 
L 638.700378 -255.576346 
L 643.535794 -256.749406 
L 648.435875 -257.613422 
L 653.380889 -258.164917 
L 658.350925 -258.401669 
L 663.325971 -258.322725 
L 668.285994 -257.928403 
L 673.211021 -257.220291 
L 678.081221 -256.20124 
L 682.876983 -254.875354 
L 687.578998 -253.247971 
L 692.16833 -251.325644 
L 696.626502 -249.116114 
L 700.93556 -246.628278 
L 705.078155 -243.872154 
L 709.037605 -240.858838 
L 712.797967 -237.600466 
L 716.344099 -234.110157 
L 719.661723 -230.401965 
L 722.73748 -226.490823 
L 725.558984 -222.392478 
L 728.114874 -218.123434 
L 730.394859 -213.70088 
L 732.389758 -209.142625 
L 734.091538 -204.467023 
L 735.493347 -199.6929 
L 736.58954 -194.839481 
L 737.375703 -189.926309 
L 737.848671 -184.973167 
L 738.006538 -180 
z
" style="stroke: #008000; stroke-opacity: 0.1"/>
    </defs>
    <g clip-path="url(#pedee6fa7ad)">
     <use xlink:href="#m09d90ddb7e" x="0" y="360" style="fill: #008000; fill-opacity: 0.1; stroke: #008000; stroke-opacity: 0.1"/>
    </g>
   </g>
   <g id="FillBetweenPolyCollection_6">
    <defs>
     <path id="me450f179b9" d="M 761.53 -180 
L 738.006538 -180 
L 737.848671 -184.973167 
L 737.375703 -189.926309 
L 736.58954 -194.839481 
L 735.493347 -199.6929 
L 734.091538 -204.467023 
L 732.389758 -209.142625 
L 730.394859 -213.70088 
L 728.114874 -218.123434 
L 725.558984 -222.392478 
L 722.73748 -226.490823 
L 719.661723 -230.401965 
L 716.344099 -234.110157 
L 712.797967 -237.600466 
L 709.037605 -240.858838 
L 705.078155 -243.872154 
L 700.93556 -246.628278 
L 696.626502 -249.116114 
L 692.16833 -251.325644 
L 687.578998 -253.247971 
L 682.876983 -254.875354 
L 678.081221 -256.20124 
L 673.211021 -257.220291 
L 668.285994 -257.928403 
L 663.325971 -258.322725 
L 658.350925 -258.401669 
L 653.380889 -258.164917 
L 648.435875 -257.613422 
L 643.535794 -256.749406 
L 638.700378 -255.576346 
L 633.949098 -254.098968 
L 629.301084 -252.323219 
L 624.775054 -250.25625 
L 620.389231 -247.906384 
L 616.161276 -245.283083 
L 612.108213 -242.39691 
L 608.246362 -239.259487 
L 604.591275 -235.883446 
L 601.157668 -232.282383 
L 597.959368 -228.470797 
L 595.009252 -224.464036 
L 592.319201 -220.278235 
L 589.900045 -215.930247 
L 587.761526 -211.43758 
L 585.912256 -206.818326 
L 584.35968 -202.091083 
L 583.11005 -197.274888 
L 582.168398 -192.389133 
L 581.538515 -187.453491 
L 581.222938 -182.487836 
L 581.222938 -177.512164 
L 581.538515 -172.546509 
L 582.168398 -167.610867 
L 583.11005 -162.725112 
L 584.35968 -157.908917 
L 585.912256 -153.181674 
L 587.761526 -148.56242 
L 589.900045 -144.069753 
L 592.319201 -139.721765 
L 595.009252 -135.535964 
L 597.959368 -131.529203 
L 601.157668 -127.717617 
L 604.591275 -124.116554 
L 608.246362 -120.740513 
L 612.108213 -117.60309 
L 616.161276 -114.716917 
L 620.389231 -112.093616 
L 624.775054 -109.74375 
L 629.301084 -107.676781 
L 633.949098 -105.901032 
L 638.700378 -104.423654 
L 643.535794 -103.250594 
L 648.435875 -102.386578 
L 653.380889 -101.835083 
L 658.350925 -101.598331 
L 663.325971 -101.677275 
L 668.285994 -102.071597 
L 673.211021 -102.779709 
L 678.081221 -103.79876 
L 682.876983 -105.124646 
L 687.578998 -106.752029 
L 692.16833 -108.674356 
L 696.626502 -110.883886 
L 700.93556 -113.371722 
L 705.078155 -116.127846 
L 709.037605 -119.141162 
L 712.797967 -122.399534 
L 716.344099 -125.889843 
L 719.661723 -129.598035 
L 722.73748 -133.509177 
L 725.558984 -137.607522 
L 728.114874 -141.876566 
L 730.394859 -146.29912 
L 732.389758 -150.857375 
L 734.091538 -155.532977 
L 735.493347 -160.3071 
L 736.58954 -165.160519 
L 737.375703 -170.073691 
L 737.848671 -175.026833 
L 738.006538 -180 
L 761.53 -180 
L 761.53 -180 
L 761.324772 -173.534883 
L 760.709914 -167.095798 
L 759.687902 -160.708674 
L 758.262851 -154.39923 
L 756.440499 -148.192871 
L 754.228185 -142.114588 
L 751.634817 -136.188856 
L 748.670836 -130.439536 
L 745.348179 -124.889778 
L 741.680224 -119.56193 
L 737.68174 -114.477445 
L 733.368829 -109.656796 
L 728.758857 -105.119394 
L 723.870386 -100.88351 
L 718.723101 -96.9662 
L 713.337728 -93.383238 
L 707.735952 -90.149051 
L 701.940329 -87.276663 
L 695.974197 -84.777638 
L 689.861578 -82.66204 
L 683.627087 -80.938388 
L 677.295827 -79.613622 
L 670.893292 -78.693076 
L 664.445263 -78.180458 
L 657.977703 -78.077831 
L 651.516656 -78.385608 
L 645.088137 -79.102551 
L 638.718032 -80.225773 
L 632.431992 -81.75075 
L 626.255327 -83.671342 
L 620.21291 -85.979815 
L 614.32907 -88.666875 
L 608.6275 -91.7217 
L 603.131158 -95.131992 
L 597.862177 -98.884017 
L 592.841771 -102.962667 
L 588.090157 -107.35152 
L 583.626468 -112.032902 
L 579.468678 -116.987964 
L 575.633528 -122.196753 
L 572.136461 -127.638295 
L 568.991559 -133.29068 
L 566.211484 -139.131146 
L 563.807433 -145.136177 
L 561.789084 -151.281592 
L 560.164565 -157.542646 
L 558.940417 -163.894128 
L 558.12157 -170.310462 
L 557.71132 -176.765813 
L 557.71132 -183.234187 
L 558.12157 -189.689538 
L 558.940417 -196.105872 
L 560.164565 -202.457354 
L 561.789084 -208.718408 
L 563.807433 -214.863823 
L 566.211484 -220.868854 
L 568.991559 -226.70932 
L 572.136461 -232.361705 
L 575.633528 -237.803247 
L 579.468678 -243.012036 
L 583.626468 -247.967098 
L 588.090157 -252.64848 
L 592.841771 -257.037333 
L 597.862177 -261.115983 
L 603.131158 -264.868008 
L 608.6275 -268.2783 
L 614.32907 -271.333125 
L 620.21291 -274.020185 
L 626.255327 -276.328658 
L 632.431992 -278.24925 
L 638.718032 -279.774227 
L 645.088137 -280.897449 
L 651.516656 -281.614392 
L 657.977703 -281.922169 
L 664.445263 -281.819542 
L 670.893292 -281.306924 
L 677.295827 -280.386378 
L 683.627087 -279.061612 
L 689.861578 -277.33796 
L 695.974197 -275.222362 
L 701.940329 -272.723337 
L 707.735952 -269.850949 
L 713.337728 -266.616762 
L 718.723101 -263.0338 
L 723.870386 -259.11649 
L 728.758857 -254.880606 
L 733.368829 -250.343204 
L 737.68174 -245.522555 
L 741.680224 -240.43807 
L 745.348179 -235.110222 
L 748.670836 -229.560464 
L 751.634817 -223.811144 
L 754.228185 -217.885412 
L 756.440499 -211.807129 
L 758.262851 -205.60077 
L 759.687902 -199.291326 
L 760.709914 -192.904202 
L 761.324772 -186.465117 
L 761.53 -180 
z
" style="stroke: #ff0000; stroke-opacity: 0.1"/>
    </defs>
    <g clip-path="url(#pedee6fa7ad)">
     <use xlink:href="#me450f179b9" x="0" y="360" style="fill: #ff0000; fill-opacity: 0.1; stroke: #ff0000; stroke-opacity: 0.1"/>
    </g>
   </g>
   <g id="matplotlib.axis_5">
    <g id="xtick_17">
     <g id="line2d_25">
      <path d="M 659.595 180 
L 761.53 180 
" clip-path="url(#pedee6fa7ad)" style="fill: none; stroke: #b0b0b0; stroke-width: 0.8; stroke-linecap: square"/>
     </g>
     <g id="text_23">
      <!-- 0° -->
      <g transform="translate(769.84875 182.759375) scale(0.1 -0.1)">
       <use xlink:href="#DejaVuSans-30"/>
       <use xlink:href="#DejaVuSans-b0" transform="translate(63.623047 0)"/>
      </g>
     </g>
    </g>
    <g id="xtick_18">
     <g id="line2d_26">
      <path d="M 659.595 180 
L 731.67393 107.92107 
" clip-path="url(#pedee6fa7ad)" style="fill: none; stroke: #b0b0b0; stroke-width: 0.8; stroke-linecap: square"/>
     </g>
     <g id="text_24">
      <!-- 45° -->
      <g transform="translate(732.710925 100.78095) scale(0.1 -0.1)">
       <use xlink:href="#DejaVuSans-34"/>
       <use xlink:href="#DejaVuSans-35" transform="translate(63.623047 0)"/>
       <use xlink:href="#DejaVuSans-b0" transform="translate(127.246094 0)"/>
      </g>
     </g>
    </g>
    <g id="xtick_19">
     <g id="line2d_27">
      <path d="M 659.595 180 
L 659.595 78.065 
" clip-path="url(#pedee6fa7ad)" style="fill: none; stroke: #b0b0b0; stroke-width: 0.8; stroke-linecap: square"/>
     </g>
     <g id="text_25">
      <!-- 90° -->
      <g transform="translate(650.7325 66.824375) scale(0.1 -0.1)">
       <use xlink:href="#DejaVuSans-39"/>
       <use xlink:href="#DejaVuSans-30" transform="translate(63.623047 0)"/>
       <use xlink:href="#DejaVuSans-b0" transform="translate(127.246094 0)"/>
      </g>
     </g>
    </g>
    <g id="xtick_20">
     <g id="line2d_28">
      <path d="M 659.595 180 
L 587.51607 107.92107 
" clip-path="url(#pedee6fa7ad)" style="fill: none; stroke: #b0b0b0; stroke-width: 0.8; stroke-linecap: square"/>
     </g>
     <g id="text_26">
      <!-- 135° -->
      <g transform="translate(565.572825 100.78095) scale(0.1 -0.1)">
       <use xlink:href="#DejaVuSans-31"/>
       <use xlink:href="#DejaVuSans-33" transform="translate(63.623047 0)"/>
       <use xlink:href="#DejaVuSans-35" transform="translate(127.246094 0)"/>
       <use xlink:href="#DejaVuSans-b0" transform="translate(190.869141 0)"/>
      </g>
     </g>
    </g>
    <g id="xtick_21">
     <g id="line2d_29">
      <path d="M 659.595 180 
L 557.66 180 
" clip-path="url(#pedee6fa7ad)" style="fill: none; stroke: #b0b0b0; stroke-width: 0.8; stroke-linecap: square"/>
     </g>
     <g id="text_27">
      <!-- 180° -->
      <g transform="translate(531.61625 182.759375) scale(0.1 -0.1)">
       <use xlink:href="#DejaVuSans-31"/>
       <use xlink:href="#DejaVuSans-38" transform="translate(63.623047 0)"/>
       <use xlink:href="#DejaVuSans-30" transform="translate(127.246094 0)"/>
       <use xlink:href="#DejaVuSans-b0" transform="translate(190.869141 0)"/>
      </g>
     </g>
    </g>
    <g id="xtick_22">
     <g id="line2d_30">
      <path d="M 659.595 180 
L 587.51607 252.07893 
" clip-path="url(#pedee6fa7ad)" style="fill: none; stroke: #b0b0b0; stroke-width: 0.8; stroke-linecap: square"/>
     </g>
     <g id="text_28">
      <!-- 225° -->
      <g transform="translate(565.572825 264.7378) scale(0.1 -0.1)">
       <use xlink:href="#DejaVuSans-32"/>
       <use xlink:href="#DejaVuSans-32" transform="translate(63.623047 0)"/>
       <use xlink:href="#DejaVuSans-35" transform="translate(127.246094 0)"/>
       <use xlink:href="#DejaVuSans-b0" transform="translate(190.869141 0)"/>
      </g>
     </g>
    </g>
    <g id="xtick_23">
     <g id="line2d_31">
      <path d="M 659.595 180 
L 659.595 281.935 
" clip-path="url(#pedee6fa7ad)" style="fill: none; stroke: #b0b0b0; stroke-width: 0.8; stroke-linecap: square"/>
     </g>
     <g id="text_29">
      <!-- 270° -->
      <g transform="translate(647.55125 298.694375) scale(0.1 -0.1)">
       <use xlink:href="#DejaVuSans-32"/>
       <use xlink:href="#DejaVuSans-37" transform="translate(63.623047 0)"/>
       <use xlink:href="#DejaVuSans-30" transform="translate(127.246094 0)"/>
       <use xlink:href="#DejaVuSans-b0" transform="translate(190.869141 0)"/>
      </g>
     </g>
    </g>
    <g id="xtick_24">
     <g id="line2d_32">
      <path d="M 659.595 180 
L 731.67393 252.07893 
" clip-path="url(#pedee6fa7ad)" style="fill: none; stroke: #b0b0b0; stroke-width: 0.8; stroke-linecap: square"/>
     </g>
     <g id="text_30">
      <!-- 315° -->
      <g transform="translate(729.529675 264.7378) scale(0.1 -0.1)">
       <use xlink:href="#DejaVuSans-33"/>
       <use xlink:href="#DejaVuSans-31" transform="translate(63.623047 0)"/>
       <use xlink:href="#DejaVuSans-35" transform="translate(127.246094 0)"/>
       <use xlink:href="#DejaVuSans-b0" transform="translate(190.869141 0)"/>
      </g>
     </g>
    </g>
   </g>
   <g id="matplotlib.axis_6">
    <g id="ytick_7">
     <g id="line2d_33">
      <path d="M 698.800769 180 
C 698.800769 174.851546 697.786636 169.753153 695.816408 164.996602 
C 693.84618 160.24005 690.958172 155.917842 687.317665 152.277335 
C 683.677158 148.636828 679.35495 145.74882 674.598398 143.778592 
C 669.841847 141.808364 664.743454 140.794231 659.595 140.794231 
C 654.446546 140.794231 649.348153 141.808364 644.591602 143.778592 
C 639.83505 145.74882 635.512842 148.636828 631.872335 152.277335 
C 628.231828 155.917842 625.34382 160.24005 623.373592 164.996602 
C 621.403364 169.753153 620.389231 174.851546 620.389231 180 
C 620.389231 185.148454 621.403364 190.246847 623.373592 195.003398 
C 625.34382 199.75995 628.231828 204.082158 631.872335 207.722665 
C 635.512842 211.363172 639.83505 214.25118 644.591602 216.221408 
C 649.348153 218.191636 654.446546 219.205769 659.595 219.205769 
C 664.743454 219.205769 669.841847 218.191636 674.598398 216.221408 
C 679.35495 214.25118 683.677158 211.363172 687.317665 207.722665 
C 690.958172 204.082158 693.84618 199.75995 695.816408 195.003398 
C 697.786636 190.246847 698.800769 185.148454 698.800769 180 
" clip-path="url(#pedee6fa7ad)" style="fill: none; stroke: #b0b0b0; stroke-width: 0.8; stroke-linecap: square"/>
     </g>
     <g id="text_31">
      <!-- 0.5 -->
      <g transform="translate(698.800769 177.920312) scale(0.1 -0.1)">
       <use xlink:href="#DejaVuSans-30"/>
       <use xlink:href="#DejaVuSans-2e" transform="translate(63.623047 0)"/>
       <use xlink:href="#DejaVuSans-35" transform="translate(95.410156 0)"/>
      </g>
     </g>
    </g>
    <g id="ytick_8">
     <g id="line2d_34">
      <path d="M 738.006538 180 
C 738.006538 169.703091 735.978272 159.506307 732.037815 149.993203 
C 728.097359 140.4801 722.321345 131.835684 715.040331 124.554669 
C 707.759316 117.273655 699.1149 111.497641 689.601797 107.557185 
C 680.088693 103.616728 669.891909 101.588462 659.595 101.588462 
C 649.298091 101.588462 639.101307 103.616728 629.588203 107.557185 
C 620.0751 111.497641 611.430684 117.273655 604.149669 124.554669 
C 596.868655 131.835684 591.092641 140.4801 587.152185 149.993203 
C 583.211728 159.506307 581.183462 169.703091 581.183462 180 
C 581.183462 190.296909 583.211728 200.493693 587.152185 210.006797 
C 591.092641 219.5199 596.868655 228.164316 604.149669 235.445331 
C 611.430684 242.726345 620.0751 248.502359 629.588203 252.442815 
C 639.101307 256.383272 649.298091 258.411538 659.595 258.411538 
C 669.891909 258.411538 680.088693 256.383272 689.601797 252.442815 
C 699.1149 248.502359 707.759316 242.726345 715.040331 235.445331 
C 722.321345 228.164316 728.097359 219.5199 732.037815 210.006797 
C 735.978272 200.493693 738.006538 190.296909 738.006538 180 
" clip-path="url(#pedee6fa7ad)" style="fill: none; stroke: #b0b0b0; stroke-width: 0.8; stroke-linecap: square"/>
     </g>
     <g id="text_32">
      <!-- 1.0 -->
      <g transform="translate(738.006538 177.920312) scale(0.1 -0.1)">
       <use xlink:href="#DejaVuSans-31"/>
       <use xlink:href="#DejaVuSans-2e" transform="translate(63.623047 0)"/>
       <use xlink:href="#DejaVuSans-30" transform="translate(95.410156 0)"/>
      </g>
     </g>
    </g>
    <g id="ytick_9">
     <g id="line2d_35">
      <path d="M 761.53 180 
C 761.53 166.614018 758.893254 153.358199 753.77066 140.991164 
C 748.648067 128.62413 741.139248 117.386389 731.67393 107.92107 
C 722.208611 98.455752 710.97087 90.946933 698.603836 85.82434 
C 686.236801 80.701746 672.980982 78.065 659.595 78.065 
C 646.209018 78.065 632.953199 80.701746 620.586164 85.82434 
C 608.21913 90.946933 596.981389 98.455752 587.51607 107.92107 
C 578.050752 117.386389 570.541933 128.62413 565.41934 140.991164 
C 560.296746 153.358199 557.66 166.614018 557.66 180 
C 557.66 193.385982 560.296746 206.641801 565.41934 219.008836 
C 570.541933 231.37587 578.050752 242.613611 587.51607 252.07893 
C 596.981389 261.544248 608.21913 269.053067 620.586164 274.17566 
C 632.953199 279.298254 646.209018 281.935 659.595 281.935 
C 672.980982 281.935 686.236801 279.298254 698.603836 274.17566 
C 710.97087 269.053067 722.208611 261.544248 731.67393 252.07893 
C 741.139248 242.613611 748.648067 231.37587 753.77066 219.008836 
C 758.893254 206.641801 761.53 193.385982 761.53 180 
" clip-path="url(#pedee6fa7ad)" style="fill: none; stroke: #b0b0b0; stroke-width: 0.8; stroke-linecap: square"/>
     </g>
     <g id="text_33">
      <!-- 1.3 -->
      <g transform="translate(761.53 177.920312) scale(0.1 -0.1)">
       <use xlink:href="#DejaVuSans-31"/>
       <use xlink:href="#DejaVuSans-2e" transform="translate(63.623047 0)"/>
       <use xlink:href="#DejaVuSans-33" transform="translate(95.410156 0)"/>
      </g>
     </g>
    </g>
   </g>
   <g id="patch_7">
    <path d="M 761.53 180 
C 761.53 166.614018 758.893254 153.358199 753.77066 140.991164 
C 748.648067 128.62413 741.139248 117.386389 731.67393 107.92107 
C 722.208611 98.455752 710.97087 90.946933 698.603836 85.82434 
C 686.236801 80.701746 672.980982 78.065 659.595 78.065 
C 646.209018 78.065 632.953199 80.701746 620.586164 85.82434 
C 608.21913 90.946933 596.981389 98.455752 587.51607 107.92107 
C 578.050752 117.386389 570.541933 128.62413 565.41934 140.991164 
C 560.296746 153.358199 557.66 166.614018 557.66 180 
C 557.66 193.385982 560.296746 206.641801 565.41934 219.008836 
C 570.541933 231.37587 578.050752 242.613611 587.51607 252.07893 
C 596.981389 261.544248 608.21913 269.053067 620.586164 274.17566 
C 632.953199 279.298254 646.209018 281.935 659.595 281.935 
C 672.980982 281.935 686.236801 279.298254 698.603836 274.17566 
C 710.97087 269.053067 722.208611 261.544248 731.67393 252.07893 
C 741.139248 242.613611 748.648067 231.37587 753.77066 219.008836 
C 758.893254 206.641801 761.53 193.385982 761.53 180 
" style="fill: none; stroke: #000000; stroke-width: 0.8; stroke-linejoin: miter; stroke-linecap: square"/>
   </g>
   <g id="line2d_36">
    <path d="M 738.006538 180 
L 737.848671 175.026833 
L 737.375703 170.073691 
L 736.58954 165.160519 
L 735.493347 160.3071 
L 734.091538 155.532977 
L 732.389758 150.857375 
L 730.394859 146.29912 
L 728.114874 141.876566 
L 725.558984 137.607522 
L 722.73748 133.509177 
L 719.661723 129.598035 
L 716.344099 125.889843 
L 712.797967 122.399534 
L 709.037605 119.141162 
L 705.078155 116.127846 
L 700.93556 113.371722 
L 696.626502 110.883886 
L 692.16833 108.674356 
L 687.578998 106.752029 
L 682.876983 105.124646 
L 678.081221 103.79876 
L 673.211021 102.779709 
L 668.285994 102.071597 
L 663.325971 101.677275 
L 658.350925 101.598331 
L 653.380889 101.835083 
L 648.435875 102.386578 
L 643.535794 103.250594 
L 638.700378 104.423654 
L 633.949098 105.901032 
L 629.301084 107.676781 
L 624.775054 109.74375 
L 620.389231 112.093616 
L 616.161276 114.716917 
L 612.108213 117.60309 
L 608.246362 120.740513 
L 604.591275 124.116554 
L 601.157668 127.717617 
L 597.959368 131.529203 
L 595.009252 135.535964 
L 592.319201 139.721765 
L 589.900045 144.069753 
L 587.761526 148.56242 
L 585.912256 153.181674 
L 584.35968 157.908917 
L 583.11005 162.725112 
L 582.168398 167.610867 
L 581.538515 172.546509 
L 581.222938 177.512164 
L 581.222938 182.487836 
L 581.538515 187.453491 
L 582.168398 192.389133 
L 583.11005 197.274888 
L 584.35968 202.091083 
L 585.912256 206.818326 
L 587.761526 211.43758 
L 589.900045 215.930247 
L 592.319201 220.278235 
L 595.009252 224.464036 
L 597.959368 228.470797 
L 601.157668 232.282383 
L 604.591275 235.883446 
L 608.246362 239.259487 
L 612.108213 242.39691 
L 616.161276 245.283083 
L 620.389231 247.906384 
L 624.775054 250.25625 
L 629.301084 252.323219 
L 633.949098 254.098968 
L 638.700378 255.576346 
L 643.535794 256.749406 
L 648.435875 257.613422 
L 653.380889 258.164917 
L 658.350925 258.401669 
L 663.325971 258.322725 
L 668.285994 257.928403 
L 673.211021 257.220291 
L 678.081221 256.20124 
L 682.876983 254.875354 
L 687.578998 253.247971 
L 692.16833 251.325644 
L 696.626502 249.116114 
L 700.93556 246.628278 
L 705.078155 243.872154 
L 709.037605 240.858838 
L 712.797967 237.600466 
L 716.344099 234.110157 
L 719.661723 230.401965 
L 722.73748 226.490823 
L 725.558984 222.392478 
L 728.114874 218.123434 
L 730.394859 213.70088 
L 732.389758 209.142625 
L 734.091538 204.467023 
L 735.493347 199.6929 
L 736.58954 194.839481 
L 737.375703 189.926309 
L 737.848671 184.973167 
L 738.006538 180 
" clip-path="url(#pedee6fa7ad)" style="fill: none; stroke: #000000; stroke-width: 3; stroke-linecap: square"/>
   </g>
   <g id="PathCollection_9">
    <g clip-path="url(#pedee6fa7ad)">
     <use xlink:href="#me2dda42bce" x="562.763965" y="174.640991" style="fill: #808080; stroke: #000000"/>
    </g>
   </g>
   <g id="PathCollection_10">
    <g clip-path="url(#pedee6fa7ad)">
     <use xlink:href="#me2dda42bce" x="590.322536" y="190.121332" style="fill: #808080; stroke: #000000"/>
    </g>
   </g>
   <g id="PathCollection_11">
    <g clip-path="url(#pedee6fa7ad)">
     <use xlink:href="#me2dda42bce" x="590.721037" y="160.274055" style="fill: #808080; stroke: #000000"/>
    </g>
   </g>
   <g id="PathCollection_12">
    <g clip-path="url(#pedee6fa7ad)">
     <use xlink:href="#mfd20c4bdf6" x="590.721037" y="160.274055" style="fill: #00ffff; stroke: #000000"/>
    </g>
   </g>
  </g>
 </g>
 <defs>
  <clipPath id="p4566c0f2b4">
   <path d="M 240.73 180 
C 240.73 166.614018 238.093254 153.358199 232.97066 140.991164 
C 227.848067 128.62413 220.339248 117.386389 210.87393 107.92107 
C 201.408611 98.455752 190.17087 90.946933 177.803836 85.82434 
C 165.436801 80.701746 152.180982 78.065 138.795 78.065 
C 125.409018 78.065 112.153199 80.701746 99.786164 85.82434 
C 87.41913 90.946933 76.181389 98.455752 66.71607 107.92107 
C 57.250752 117.386389 49.741933 128.62413 44.61934 140.991164 
C 39.496746 153.358199 36.86 166.614018 36.86 180 
C 36.86 193.385982 39.496746 206.641801 44.61934 219.008836 
C 49.741933 231.37587 57.250752 242.613611 66.71607 252.07893 
C 76.181389 261.544248 87.41913 269.053067 99.786164 274.17566 
C 112.153199 279.298254 125.409018 281.935 138.795 281.935 
C 152.180982 281.935 165.436801 279.298254 177.803836 274.17566 
C 190.17087 269.053067 201.408611 261.544248 210.87393 252.07893 
C 220.339248 242.613611 227.848067 231.37587 232.97066 219.008836 
C 238.093254 206.641801 240.73 193.385982 240.73 180 
M 138.795 180 
C 138.795 180 138.795 180 138.795 180 
C 138.795 180 138.795 180 138.795 180 
C 138.795 180 138.795 180 138.795 180 
C 138.795 180 138.795 180 138.795 180 
C 138.795 180 138.795 180 138.795 180 
C 138.795 180 138.795 180 138.795 180 
C 138.795 180 138.795 180 138.795 180 
C 138.795 180 138.795 180 138.795 180 
C 138.795 180 138.795 180 138.795 180 
C 138.795 180 138.795 180 138.795 180 
C 138.795 180 138.795 180 138.795 180 
C 138.795 180 138.795 180 138.795 180 
C 138.795 180 138.795 180 138.795 180 
C 138.795 180 138.795 180 138.795 180 
C 138.795 180 138.795 180 138.795 180 
C 138.795 180 138.795 180 138.795 180 
z
"/>
  </clipPath>
  <clipPath id="pbb4f59e6ff">
   <path d="M 501.13 180 
C 501.13 166.614018 498.493254 153.358199 493.37066 140.991164 
C 488.248067 128.62413 480.739248 117.386389 471.27393 107.92107 
C 461.808611 98.455752 450.57087 90.946933 438.203836 85.82434 
C 425.836801 80.701746 412.580982 78.065 399.195 78.065 
C 385.809018 78.065 372.553199 80.701746 360.186164 85.82434 
C 347.81913 90.946933 336.581389 98.455752 327.11607 107.92107 
C 317.650752 117.386389 310.141933 128.62413 305.01934 140.991164 
C 299.896746 153.358199 297.26 166.614018 297.26 180 
C 297.26 193.385982 299.896746 206.641801 305.01934 219.008836 
C 310.141933 231.37587 317.650752 242.613611 327.11607 252.07893 
C 336.581389 261.544248 347.81913 269.053067 360.186164 274.17566 
C 372.553199 279.298254 385.809018 281.935 399.195 281.935 
C 412.580982 281.935 425.836801 279.298254 438.203836 274.17566 
C 450.57087 269.053067 461.808611 261.544248 471.27393 252.07893 
C 480.739248 242.613611 488.248067 231.37587 493.37066 219.008836 
C 498.493254 206.641801 501.13 193.385982 501.13 180 
M 399.195 180 
C 399.195 180 399.195 180 399.195 180 
C 399.195 180 399.195 180 399.195 180 
C 399.195 180 399.195 180 399.195 180 
C 399.195 180 399.195 180 399.195 180 
C 399.195 180 399.195 180 399.195 180 
C 399.195 180 399.195 180 399.195 180 
C 399.195 180 399.195 180 399.195 180 
C 399.195 180 399.195 180 399.195 180 
C 399.195 180 399.195 180 399.195 180 
C 399.195 180 399.195 180 399.195 180 
C 399.195 180 399.195 180 399.195 180 
C 399.195 180 399.195 180 399.195 180 
C 399.195 180 399.195 180 399.195 180 
C 399.195 180 399.195 180 399.195 180 
C 399.195 180 399.195 180 399.195 180 
C 399.195 180 399.195 180 399.195 180 
z
"/>
  </clipPath>
  <clipPath id="pedee6fa7ad">
   <path d="M 761.53 180 
C 761.53 166.614018 758.893254 153.358199 753.77066 140.991164 
C 748.648067 128.62413 741.139248 117.386389 731.67393 107.92107 
C 722.208611 98.455752 710.97087 90.946933 698.603836 85.82434 
C 686.236801 80.701746 672.980982 78.065 659.595 78.065 
C 646.209018 78.065 632.953199 80.701746 620.586164 85.82434 
C 608.21913 90.946933 596.981389 98.455752 587.51607 107.92107 
C 578.050752 117.386389 570.541933 128.62413 565.41934 140.991164 
C 560.296746 153.358199 557.66 166.614018 557.66 180 
C 557.66 193.385982 560.296746 206.641801 565.41934 219.008836 
C 570.541933 231.37587 578.050752 242.613611 587.51607 252.07893 
C 596.981389 261.544248 608.21913 269.053067 620.586164 274.17566 
C 632.953199 279.298254 646.209018 281.935 659.595 281.935 
C 672.980982 281.935 686.236801 279.298254 698.603836 274.17566 
C 710.97087 269.053067 722.208611 261.544248 731.67393 252.07893 
C 741.139248 242.613611 748.648067 231.37587 753.77066 219.008836 
C 758.893254 206.641801 761.53 193.385982 761.53 180 
M 659.595 180 
C 659.595 180 659.595 180 659.595 180 
C 659.595 180 659.595 180 659.595 180 
C 659.595 180 659.595 180 659.595 180 
C 659.595 180 659.595 180 659.595 180 
C 659.595 180 659.595 180 659.595 180 
C 659.595 180 659.595 180 659.595 180 
C 659.595 180 659.595 180 659.595 180 
C 659.595 180 659.595 180 659.595 180 
C 659.595 180 659.595 180 659.595 180 
C 659.595 180 659.595 180 659.595 180 
C 659.595 180 659.595 180 659.595 180 
C 659.595 180 659.595 180 659.595 180 
C 659.595 180 659.595 180 659.595 180 
C 659.595 180 659.595 180 659.595 180 
C 659.595 180 659.595 180 659.595 180 
C 659.595 180 659.595 180 659.595 180 
z
"/>
  </clipPath>
 </defs>
</svg>
