<?xml version="1.0" encoding="utf-8" standalone="no"?>
<!DOCTYPE svg PUBLIC "-//W3C//DTD SVG 1.1//EN"
  "http://www.w3.org/Graphics/SVG/1.1/DTD/svg11.dtd">
<svg xmlns:xlink="http://www.w3.org/1999/xlink" width="792pt" height="345.6pt" viewBox="0 0 792 345.6" xmlns="http://www.w3.org/2000/svg" version="1.1">
 <metadata>
  <rdf:RDF xmlns:dc="http://purl.org/dc/elements/1.1/" xmlns:cc="http://creativecommons.org/ns#" xmlns:rdf="http://www.w3.org/1999/02/22-rdf-syntax-ns#">
   <cc:Work>
    <dc:type rdf:resource="http://purl.org/dc/dcmitype/StillImage"/>
    <dc:date>2025-02-24T01:04:04.464295</dc:date>
    <dc:format>image/svg+xml</dc:format>
    <dc:creator>
     <cc:Agent>
      <dc:title>Matplotlib v3.10.0, https://matplotlib.org/</dc:title>
     </cc:Agent>
    </dc:creator>
   </cc:Work>
  </rdf:RDF>
 </metadata>
 <defs>
  <style type="text/css">*{stroke-linejoin: round; stroke-linecap: butt}</style>
 </defs>
 <g id="figure_1">
  <g id="patch_1">
   <path d="M 0 345.6 
L 792 345.6 
L 792 0 
L 0 0 
z
" style="fill: #ffffff"/>
  </g>
  <g id="axes_1">
   <g id="patch_2">
    <path d="M 240.73 172.8 
C 240.73 159.414018 238.093254 146.158199 232.97066 133.791164 
C 227.848067 121.42413 220.339248 110.186389 210.87393 100.72107 
C 201.408611 91.255752 190.17087 83.746933 177.803836 78.62434 
C 165.436801 73.501746 152.180982 70.865 138.795 70.865 
C 125.409018 70.865 112.153199 73.501746 99.786164 78.62434 
C 87.41913 83.746933 76.181389 91.255752 66.71607 100.72107 
C 57.250752 110.186389 49.741933 121.42413 44.61934 133.791164 
C 39.496746 146.158199 36.86 159.414018 36.86 172.8 
C 36.86 186.185982 39.496746 199.441801 44.61934 211.808836 
C 49.741933 224.17587 57.250752 235.413611 66.71607 244.87893 
C 76.181389 254.344248 87.41913 261.853067 99.786164 266.97566 
C 112.153199 272.098254 125.409018 274.735 138.795 274.735 
C 152.180982 274.735 165.436801 272.098254 177.803836 266.97566 
C 190.17087 261.853067 201.408611 254.344248 210.87393 244.87893 
C 220.339248 235.413611 227.848067 224.17587 232.97066 211.808836 
C 238.093254 199.441801 240.73 186.185982 240.73 172.8 
M 138.795 172.8 
C 138.795 172.8 138.795 172.8 138.795 172.8 
C 138.795 172.8 138.795 172.8 138.795 172.8 
C 138.795 172.8 138.795 172.8 138.795 172.8 
C 138.795 172.8 138.795 172.8 138.795 172.8 
C 138.795 172.8 138.795 172.8 138.795 172.8 
C 138.795 172.8 138.795 172.8 138.795 172.8 
C 138.795 172.8 138.795 172.8 138.795 172.8 
C 138.795 172.8 138.795 172.8 138.795 172.8 
C 138.795 172.8 138.795 172.8 138.795 172.8 
C 138.795 172.8 138.795 172.8 138.795 172.8 
C 138.795 172.8 138.795 172.8 138.795 172.8 
C 138.795 172.8 138.795 172.8 138.795 172.8 
C 138.795 172.8 138.795 172.8 138.795 172.8 
C 138.795 172.8 138.795 172.8 138.795 172.8 
C 138.795 172.8 138.795 172.8 138.795 172.8 
C 138.795 172.8 138.795 172.8 138.795 172.8 
z
" style="fill: #ffffff"/>
   </g>
   <g id="FillBetweenPolyCollection_1">
    <defs>
     <path id="m962c7bd7aa" d="M 217.206538 -172.8 
L 138.795 -172.8 
L 138.795 -172.8 
L 138.795 -172.8 
L 138.795 -172.8 
L 138.795 -172.8 
L 138.795 -172.8 
L 138.795 -172.8 
L 138.795 -172.8 
L 138.795 -172.8 
L 138.795 -172.8 
L 138.795 -172.8 
L 138.795 -172.8 
L 138.795 -172.8 
L 138.795 -172.8 
L 138.795 -172.8 
L 138.795 -172.8 
L 138.795 -172.8 
L 138.795 -172.8 
L 138.795 -172.8 
L 138.795 -172.8 
L 138.795 -172.8 
L 138.795 -172.8 
L 138.795 -172.8 
L 138.795 -172.8 
L 138.795 -172.8 
L 138.795 -172.8 
L 138.795 -172.8 
L 138.795 -172.8 
L 138.795 -172.8 
L 138.795 -172.8 
L 138.795 -172.8 
L 138.795 -172.8 
L 138.795 -172.8 
L 138.795 -172.8 
L 138.795 -172.8 
L 138.795 -172.8 
L 138.795 -172.8 
L 138.795 -172.8 
L 138.795 -172.8 
L 138.795 -172.8 
L 138.795 -172.8 
L 138.795 -172.8 
L 138.795 -172.8 
L 138.795 -172.8 
L 138.795 -172.8 
L 138.795 -172.8 
L 138.795 -172.8 
L 138.795 -172.8 
L 138.795 -172.8 
L 138.795 -172.8 
L 138.795 -172.8 
L 138.795 -172.8 
L 138.795 -172.8 
L 138.795 -172.8 
L 138.795 -172.8 
L 138.795 -172.8 
L 138.795 -172.8 
L 138.795 -172.8 
L 138.795 -172.8 
L 138.795 -172.8 
L 138.795 -172.8 
L 138.795 -172.8 
L 138.795 -172.8 
L 138.795 -172.8 
L 138.795 -172.8 
L 138.795 -172.8 
L 138.795 -172.8 
L 138.795 -172.8 
L 138.795 -172.8 
L 138.795 -172.8 
L 138.795 -172.8 
L 138.795 -172.8 
L 138.795 -172.8 
L 138.795 -172.8 
L 138.795 -172.8 
L 138.795 -172.8 
L 138.795 -172.8 
L 138.795 -172.8 
L 138.795 -172.8 
L 138.795 -172.8 
L 138.795 -172.8 
L 138.795 -172.8 
L 138.795 -172.8 
L 138.795 -172.8 
L 138.795 -172.8 
L 138.795 -172.8 
L 138.795 -172.8 
L 138.795 -172.8 
L 138.795 -172.8 
L 138.795 -172.8 
L 138.795 -172.8 
L 138.795 -172.8 
L 138.795 -172.8 
L 138.795 -172.8 
L 138.795 -172.8 
L 138.795 -172.8 
L 138.795 -172.8 
L 138.795 -172.8 
L 138.795 -172.8 
L 138.795 -172.8 
L 217.206538 -172.8 
L 217.206538 -172.8 
L 217.048671 -167.826833 
L 216.575703 -162.873691 
L 215.78954 -157.960519 
L 214.693347 -153.1071 
L 213.291538 -148.332977 
L 211.589758 -143.657375 
L 209.594859 -139.09912 
L 207.314874 -134.676566 
L 204.758984 -130.407522 
L 201.93748 -126.309177 
L 198.861723 -122.398035 
L 195.544099 -118.689843 
L 191.997967 -115.199534 
L 188.237605 -111.941162 
L 184.278155 -108.927846 
L 180.13556 -106.171722 
L 175.826502 -103.683886 
L 171.36833 -101.474356 
L 166.778998 -99.552029 
L 162.076983 -97.924646 
L 157.281221 -96.59876 
L 152.411021 -95.579709 
L 147.485994 -94.871597 
L 142.525971 -94.477275 
L 137.550925 -94.398331 
L 132.580889 -94.635083 
L 127.635875 -95.186578 
L 122.735794 -96.050594 
L 117.900378 -97.223654 
L 113.149098 -98.701032 
L 108.501084 -100.476781 
L 103.975054 -102.54375 
L 99.589231 -104.893616 
L 95.361276 -107.516917 
L 91.308213 -110.40309 
L 87.446362 -113.540513 
L 83.791275 -116.916554 
L 80.357668 -120.517617 
L 77.159368 -124.329203 
L 74.209252 -128.335964 
L 71.519201 -132.521765 
L 69.100045 -136.869753 
L 66.961526 -141.36242 
L 65.112256 -145.981674 
L 63.55968 -150.708917 
L 62.31005 -155.525112 
L 61.368398 -160.410867 
L 60.738515 -165.346509 
L 60.422938 -170.312164 
L 60.422938 -175.287836 
L 60.738515 -180.253491 
L 61.368398 -185.189133 
L 62.31005 -190.074888 
L 63.55968 -194.891083 
L 65.112256 -199.618326 
L 66.961526 -204.23758 
L 69.100045 -208.730247 
L 71.519201 -213.078235 
L 74.209252 -217.264036 
L 77.159368 -221.270797 
L 80.357668 -225.082383 
L 83.791275 -228.683446 
L 87.446362 -232.059487 
L 91.308213 -235.19691 
L 95.361276 -238.083083 
L 99.589231 -240.706384 
L 103.975054 -243.05625 
L 108.501084 -245.123219 
L 113.149098 -246.898968 
L 117.900378 -248.376346 
L 122.735794 -249.549406 
L 127.635875 -250.413422 
L 132.580889 -250.964917 
L 137.550925 -251.201669 
L 142.525971 -251.122725 
L 147.485994 -250.728403 
L 152.411021 -250.020291 
L 157.281221 -249.00124 
L 162.076983 -247.675354 
L 166.778998 -246.047971 
L 171.36833 -244.125644 
L 175.826502 -241.916114 
L 180.13556 -239.428278 
L 184.278155 -236.672154 
L 188.237605 -233.658838 
L 191.997967 -230.400466 
L 195.544099 -226.910157 
L 198.861723 -223.201965 
L 201.93748 -219.290823 
L 204.758984 -215.192478 
L 207.314874 -210.923434 
L 209.594859 -206.50088 
L 211.589758 -201.942625 
L 213.291538 -197.267023 
L 214.693347 -192.4929 
L 215.78954 -187.639481 
L 216.575703 -182.726309 
L 217.048671 -177.773167 
L 217.206538 -172.8 
z
" style="stroke: #008000; stroke-opacity: 0.1"/>
    </defs>
    <g clip-path="url(#p28d09d4da1)">
     <use xlink:href="#m962c7bd7aa" x="0" y="345.6" style="fill: #008000; fill-opacity: 0.1; stroke: #008000; stroke-opacity: 0.1"/>
    </g>
   </g>
   <g id="FillBetweenPolyCollection_2">
    <defs>
     <path id="m07da4fe2ed" d="M 240.73 -172.8 
L 217.206538 -172.8 
L 217.048671 -177.773167 
L 216.575703 -182.726309 
L 215.78954 -187.639481 
L 214.693347 -192.4929 
L 213.291538 -197.267023 
L 211.589758 -201.942625 
L 209.594859 -206.50088 
L 207.314874 -210.923434 
L 204.758984 -215.192478 
L 201.93748 -219.290823 
L 198.861723 -223.201965 
L 195.544099 -226.910157 
L 191.997967 -230.400466 
L 188.237605 -233.658838 
L 184.278155 -236.672154 
L 180.13556 -239.428278 
L 175.826502 -241.916114 
L 171.36833 -244.125644 
L 166.778998 -246.047971 
L 162.076983 -247.675354 
L 157.281221 -249.00124 
L 152.411021 -250.020291 
L 147.485994 -250.728403 
L 142.525971 -251.122725 
L 137.550925 -251.201669 
L 132.580889 -250.964917 
L 127.635875 -250.413422 
L 122.735794 -249.549406 
L 117.900378 -248.376346 
L 113.149098 -246.898968 
L 108.501084 -245.123219 
L 103.975054 -243.05625 
L 99.589231 -240.706384 
L 95.361276 -238.083083 
L 91.308213 -235.19691 
L 87.446362 -232.059487 
L 83.791275 -228.683446 
L 80.357668 -225.082383 
L 77.159368 -221.270797 
L 74.209252 -217.264036 
L 71.519201 -213.078235 
L 69.100045 -208.730247 
L 66.961526 -204.23758 
L 65.112256 -199.618326 
L 63.55968 -194.891083 
L 62.31005 -190.074888 
L 61.368398 -185.189133 
L 60.738515 -180.253491 
L 60.422938 -175.287836 
L 60.422938 -170.312164 
L 60.738515 -165.346509 
L 61.368398 -160.410867 
L 62.31005 -155.525112 
L 63.55968 -150.708917 
L 65.112256 -145.981674 
L 66.961526 -141.36242 
L 69.100045 -136.869753 
L 71.519201 -132.521765 
L 74.209252 -128.335964 
L 77.159368 -124.329203 
L 80.357668 -120.517617 
L 83.791275 -116.916554 
L 87.446362 -113.540513 
L 91.308213 -110.40309 
L 95.361276 -107.516917 
L 99.589231 -104.893616 
L 103.975054 -102.54375 
L 108.501084 -100.476781 
L 113.149098 -98.701032 
L 117.900378 -97.223654 
L 122.735794 -96.050594 
L 127.635875 -95.186578 
L 132.580889 -94.635083 
L 137.550925 -94.398331 
L 142.525971 -94.477275 
L 147.485994 -94.871597 
L 152.411021 -95.579709 
L 157.281221 -96.59876 
L 162.076983 -97.924646 
L 166.778998 -99.552029 
L 171.36833 -101.474356 
L 175.826502 -103.683886 
L 180.13556 -106.171722 
L 184.278155 -108.927846 
L 188.237605 -111.941162 
L 191.997967 -115.199534 
L 195.544099 -118.689843 
L 198.861723 -122.398035 
L 201.93748 -126.309177 
L 204.758984 -130.407522 
L 207.314874 -134.676566 
L 209.594859 -139.09912 
L 211.589758 -143.657375 
L 213.291538 -148.332977 
L 214.693347 -153.1071 
L 215.78954 -157.960519 
L 216.575703 -162.873691 
L 217.048671 -167.826833 
L 217.206538 -172.8 
L 240.73 -172.8 
L 240.73 -172.8 
L 240.524772 -166.334883 
L 239.909914 -159.895798 
L 238.887902 -153.508674 
L 237.462851 -147.19923 
L 235.640499 -140.992871 
L 233.428185 -134.914588 
L 230.834817 -128.988856 
L 227.870836 -123.239536 
L 224.548179 -117.689778 
L 220.880224 -112.36193 
L 216.88174 -107.277445 
L 212.568829 -102.456796 
L 207.958857 -97.919394 
L 203.070386 -93.68351 
L 197.923101 -89.7662 
L 192.537728 -86.183238 
L 186.935952 -82.949051 
L 181.140329 -80.076663 
L 175.174197 -77.577638 
L 169.061578 -75.46204 
L 162.827087 -73.738388 
L 156.495827 -72.413622 
L 150.093292 -71.493076 
L 143.645263 -70.980458 
L 137.177703 -70.877831 
L 130.716656 -71.185608 
L 124.288137 -71.902551 
L 117.918032 -73.025773 
L 111.631992 -74.55075 
L 105.455327 -76.471342 
L 99.41291 -78.779815 
L 93.52907 -81.466875 
L 87.8275 -84.5217 
L 82.331158 -87.931992 
L 77.062177 -91.684017 
L 72.041771 -95.762667 
L 67.290157 -100.15152 
L 62.826468 -104.832902 
L 58.668678 -109.787964 
L 54.833528 -114.996753 
L 51.336461 -120.438295 
L 48.191559 -126.09068 
L 45.411484 -131.931146 
L 43.007433 -137.936177 
L 40.989084 -144.081592 
L 39.364565 -150.342646 
L 38.140417 -156.694128 
L 37.32157 -163.110462 
L 36.91132 -169.565813 
L 36.91132 -176.034187 
L 37.32157 -182.489538 
L 38.140417 -188.905872 
L 39.364565 -195.257354 
L 40.989084 -201.518408 
L 43.007433 -207.663823 
L 45.411484 -213.668854 
L 48.191559 -219.50932 
L 51.336461 -225.161705 
L 54.833528 -230.603247 
L 58.668678 -235.812036 
L 62.826468 -240.767098 
L 67.290157 -245.44848 
L 72.041771 -249.837333 
L 77.062177 -253.915983 
L 82.331158 -257.668008 
L 87.8275 -261.0783 
L 93.52907 -264.133125 
L 99.41291 -266.820185 
L 105.455327 -269.128658 
L 111.631992 -271.04925 
L 117.918032 -272.574227 
L 124.288137 -273.697449 
L 130.716656 -274.414392 
L 137.177703 -274.722169 
L 143.645263 -274.619542 
L 150.093292 -274.106924 
L 156.495827 -273.186378 
L 162.827087 -271.861612 
L 169.061578 -270.13796 
L 175.174197 -268.022362 
L 181.140329 -265.523337 
L 186.935952 -262.650949 
L 192.537728 -259.416762 
L 197.923101 -255.8338 
L 203.070386 -251.91649 
L 207.958857 -247.680606 
L 212.568829 -243.143204 
L 216.88174 -238.322555 
L 220.880224 -233.23807 
L 224.548179 -227.910222 
L 227.870836 -222.360464 
L 230.834817 -216.611144 
L 233.428185 -210.685412 
L 235.640499 -204.607129 
L 237.462851 -198.40077 
L 238.887902 -192.091326 
L 239.909914 -185.704202 
L 240.524772 -179.265117 
L 240.73 -172.8 
z
" style="stroke: #ff0000; stroke-opacity: 0.1"/>
    </defs>
    <g clip-path="url(#p28d09d4da1)">
     <use xlink:href="#m07da4fe2ed" x="0" y="345.6" style="fill: #ff0000; fill-opacity: 0.1; stroke: #ff0000; stroke-opacity: 0.1"/>
    </g>
   </g>
   <g id="matplotlib.axis_1">
    <g id="xtick_1">
     <g id="line2d_1">
      <path d="M 138.795 172.8 
L 240.73 172.8 
" clip-path="url(#p28d09d4da1)" style="fill: none; stroke: #b0b0b0; stroke-width: 0.8; stroke-linecap: square"/>
     </g>
     <g id="text_1">
      <!-- 0° -->
      <g transform="translate(249.04875 175.559375) scale(0.1 -0.1)">
       <defs>
        <path id="DejaVuSans-30" d="M 2034 4250 
Q 1547 4250 1301 3770 
Q 1056 3291 1056 2328 
Q 1056 1369 1301 889 
Q 1547 409 2034 409 
Q 2525 409 2770 889 
Q 3016 1369 3016 2328 
Q 3016 3291 2770 3770 
Q 2525 4250 2034 4250 
z
M 2034 4750 
Q 2819 4750 3233 4129 
Q 3647 3509 3647 2328 
Q 3647 1150 3233 529 
Q 2819 -91 2034 -91 
Q 1250 -91 836 529 
Q 422 1150 422 2328 
Q 422 3509 836 4129 
Q 1250 4750 2034 4750 
z
" transform="scale(0.015625)"/>
        <path id="DejaVuSans-b0" d="M 1600 4347 
Q 1350 4347 1178 4173 
Q 1006 4000 1006 3750 
Q 1006 3503 1178 3333 
Q 1350 3163 1600 3163 
Q 1850 3163 2022 3333 
Q 2194 3503 2194 3750 
Q 2194 3997 2020 4172 
Q 1847 4347 1600 4347 
z
M 1600 4750 
Q 1800 4750 1984 4673 
Q 2169 4597 2303 4453 
Q 2447 4313 2519 4134 
Q 2591 3956 2591 3750 
Q 2591 3338 2302 3052 
Q 2013 2766 1594 2766 
Q 1172 2766 890 3047 
Q 609 3328 609 3750 
Q 609 4169 896 4459 
Q 1184 4750 1600 4750 
z
" transform="scale(0.015625)"/>
       </defs>
       <use xlink:href="#DejaVuSans-30"/>
       <use xlink:href="#DejaVuSans-b0" transform="translate(63.623047 0)"/>
      </g>
     </g>
    </g>
    <g id="xtick_2">
     <g id="line2d_2">
      <path d="M 138.795 172.8 
L 210.87393 100.72107 
" clip-path="url(#p28d09d4da1)" style="fill: none; stroke: #b0b0b0; stroke-width: 0.8; stroke-linecap: square"/>
     </g>
     <g id="text_2">
      <!-- 45° -->
      <g transform="translate(211.910925 93.58095) scale(0.1 -0.1)">
       <defs>
        <path id="DejaVuSans-34" d="M 2419 4116 
L 825 1625 
L 2419 1625 
L 2419 4116 
z
M 2253 4666 
L 3047 4666 
L 3047 1625 
L 3713 1625 
L 3713 1100 
L 3047 1100 
L 3047 0 
L 2419 0 
L 2419 1100 
L 313 1100 
L 313 1709 
L 2253 4666 
z
" transform="scale(0.015625)"/>
        <path id="DejaVuSans-35" d="M 691 4666 
L 3169 4666 
L 3169 4134 
L 1269 4134 
L 1269 2991 
Q 1406 3038 1543 3061 
Q 1681 3084 1819 3084 
Q 2600 3084 3056 2656 
Q 3513 2228 3513 1497 
Q 3513 744 3044 326 
Q 2575 -91 1722 -91 
Q 1428 -91 1123 -41 
Q 819 9 494 109 
L 494 744 
Q 775 591 1075 516 
Q 1375 441 1709 441 
Q 2250 441 2565 725 
Q 2881 1009 2881 1497 
Q 2881 1984 2565 2268 
Q 2250 2553 1709 2553 
Q 1456 2553 1204 2497 
Q 953 2441 691 2322 
L 691 4666 
z
" transform="scale(0.015625)"/>
       </defs>
       <use xlink:href="#DejaVuSans-34"/>
       <use xlink:href="#DejaVuSans-35" transform="translate(63.623047 0)"/>
       <use xlink:href="#DejaVuSans-b0" transform="translate(127.246094 0)"/>
      </g>
     </g>
    </g>
    <g id="xtick_3">
     <g id="line2d_3">
      <path d="M 138.795 172.8 
L 138.795 70.865 
" clip-path="url(#p28d09d4da1)" style="fill: none; stroke: #b0b0b0; stroke-width: 0.8; stroke-linecap: square"/>
     </g>
     <g id="text_3">
      <!-- 90° -->
      <g transform="translate(129.9325 59.624375) scale(0.1 -0.1)">
       <defs>
        <path id="DejaVuSans-39" d="M 703 97 
L 703 672 
Q 941 559 1184 500 
Q 1428 441 1663 441 
Q 2288 441 2617 861 
Q 2947 1281 2994 2138 
Q 2813 1869 2534 1725 
Q 2256 1581 1919 1581 
Q 1219 1581 811 2004 
Q 403 2428 403 3163 
Q 403 3881 828 4315 
Q 1253 4750 1959 4750 
Q 2769 4750 3195 4129 
Q 3622 3509 3622 2328 
Q 3622 1225 3098 567 
Q 2575 -91 1691 -91 
Q 1453 -91 1209 -44 
Q 966 3 703 97 
z
M 1959 2075 
Q 2384 2075 2632 2365 
Q 2881 2656 2881 3163 
Q 2881 3666 2632 3958 
Q 2384 4250 1959 4250 
Q 1534 4250 1286 3958 
Q 1038 3666 1038 3163 
Q 1038 2656 1286 2365 
Q 1534 2075 1959 2075 
z
" transform="scale(0.015625)"/>
       </defs>
       <use xlink:href="#DejaVuSans-39"/>
       <use xlink:href="#DejaVuSans-30" transform="translate(63.623047 0)"/>
       <use xlink:href="#DejaVuSans-b0" transform="translate(127.246094 0)"/>
      </g>
     </g>
    </g>
    <g id="xtick_4">
     <g id="line2d_4">
      <path d="M 138.795 172.8 
L 66.71607 100.72107 
" clip-path="url(#p28d09d4da1)" style="fill: none; stroke: #b0b0b0; stroke-width: 0.8; stroke-linecap: square"/>
     </g>
     <g id="text_4">
      <!-- 135° -->
      <g transform="translate(44.772825 93.58095) scale(0.1 -0.1)">
       <defs>
        <path id="DejaVuSans-31" d="M 794 531 
L 1825 531 
L 1825 4091 
L 703 3866 
L 703 4441 
L 1819 4666 
L 2450 4666 
L 2450 531 
L 3481 531 
L 3481 0 
L 794 0 
L 794 531 
z
" transform="scale(0.015625)"/>
        <path id="DejaVuSans-33" d="M 2597 2516 
Q 3050 2419 3304 2112 
Q 3559 1806 3559 1356 
Q 3559 666 3084 287 
Q 2609 -91 1734 -91 
Q 1441 -91 1130 -33 
Q 819 25 488 141 
L 488 750 
Q 750 597 1062 519 
Q 1375 441 1716 441 
Q 2309 441 2620 675 
Q 2931 909 2931 1356 
Q 2931 1769 2642 2001 
Q 2353 2234 1838 2234 
L 1294 2234 
L 1294 2753 
L 1863 2753 
Q 2328 2753 2575 2939 
Q 2822 3125 2822 3475 
Q 2822 3834 2567 4026 
Q 2313 4219 1838 4219 
Q 1578 4219 1281 4162 
Q 984 4106 628 3988 
L 628 4550 
Q 988 4650 1302 4700 
Q 1616 4750 1894 4750 
Q 2613 4750 3031 4423 
Q 3450 4097 3450 3541 
Q 3450 3153 3228 2886 
Q 3006 2619 2597 2516 
z
" transform="scale(0.015625)"/>
       </defs>
       <use xlink:href="#DejaVuSans-31"/>
       <use xlink:href="#DejaVuSans-33" transform="translate(63.623047 0)"/>
       <use xlink:href="#DejaVuSans-35" transform="translate(127.246094 0)"/>
       <use xlink:href="#DejaVuSans-b0" transform="translate(190.869141 0)"/>
      </g>
     </g>
    </g>
    <g id="xtick_5">
     <g id="line2d_5">
      <path d="M 138.795 172.8 
L 36.86 172.8 
" clip-path="url(#p28d09d4da1)" style="fill: none; stroke: #b0b0b0; stroke-width: 0.8; stroke-linecap: square"/>
     </g>
     <g id="text_5">
      <!-- 180° -->
      <g transform="translate(10.81625 175.559375) scale(0.1 -0.1)">
       <defs>
        <path id="DejaVuSans-38" d="M 2034 2216 
Q 1584 2216 1326 1975 
Q 1069 1734 1069 1313 
Q 1069 891 1326 650 
Q 1584 409 2034 409 
Q 2484 409 2743 651 
Q 3003 894 3003 1313 
Q 3003 1734 2745 1975 
Q 2488 2216 2034 2216 
z
M 1403 2484 
Q 997 2584 770 2862 
Q 544 3141 544 3541 
Q 544 4100 942 4425 
Q 1341 4750 2034 4750 
Q 2731 4750 3128 4425 
Q 3525 4100 3525 3541 
Q 3525 3141 3298 2862 
Q 3072 2584 2669 2484 
Q 3125 2378 3379 2068 
Q 3634 1759 3634 1313 
Q 3634 634 3220 271 
Q 2806 -91 2034 -91 
Q 1263 -91 848 271 
Q 434 634 434 1313 
Q 434 1759 690 2068 
Q 947 2378 1403 2484 
z
M 1172 3481 
Q 1172 3119 1398 2916 
Q 1625 2713 2034 2713 
Q 2441 2713 2670 2916 
Q 2900 3119 2900 3481 
Q 2900 3844 2670 4047 
Q 2441 4250 2034 4250 
Q 1625 4250 1398 4047 
Q 1172 3844 1172 3481 
z
" transform="scale(0.015625)"/>
       </defs>
       <use xlink:href="#DejaVuSans-31"/>
       <use xlink:href="#DejaVuSans-38" transform="translate(63.623047 0)"/>
       <use xlink:href="#DejaVuSans-30" transform="translate(127.246094 0)"/>
       <use xlink:href="#DejaVuSans-b0" transform="translate(190.869141 0)"/>
      </g>
     </g>
    </g>
    <g id="xtick_6">
     <g id="line2d_6">
      <path d="M 138.795 172.8 
L 66.71607 244.87893 
" clip-path="url(#p28d09d4da1)" style="fill: none; stroke: #b0b0b0; stroke-width: 0.8; stroke-linecap: square"/>
     </g>
     <g id="text_6">
      <!-- 225° -->
      <g transform="translate(44.772825 257.5378) scale(0.1 -0.1)">
       <defs>
        <path id="DejaVuSans-32" d="M 1228 531 
L 3431 531 
L 3431 0 
L 469 0 
L 469 531 
Q 828 903 1448 1529 
Q 2069 2156 2228 2338 
Q 2531 2678 2651 2914 
Q 2772 3150 2772 3378 
Q 2772 3750 2511 3984 
Q 2250 4219 1831 4219 
Q 1534 4219 1204 4116 
Q 875 4013 500 3803 
L 500 4441 
Q 881 4594 1212 4672 
Q 1544 4750 1819 4750 
Q 2544 4750 2975 4387 
Q 3406 4025 3406 3419 
Q 3406 3131 3298 2873 
Q 3191 2616 2906 2266 
Q 2828 2175 2409 1742 
Q 1991 1309 1228 531 
z
" transform="scale(0.015625)"/>
       </defs>
       <use xlink:href="#DejaVuSans-32"/>
       <use xlink:href="#DejaVuSans-32" transform="translate(63.623047 0)"/>
       <use xlink:href="#DejaVuSans-35" transform="translate(127.246094 0)"/>
       <use xlink:href="#DejaVuSans-b0" transform="translate(190.869141 0)"/>
      </g>
     </g>
    </g>
    <g id="xtick_7">
     <g id="line2d_7">
      <path d="M 138.795 172.8 
L 138.795 274.735 
" clip-path="url(#p28d09d4da1)" style="fill: none; stroke: #b0b0b0; stroke-width: 0.8; stroke-linecap: square"/>
     </g>
     <g id="text_7">
      <!-- 270° -->
      <g transform="translate(126.75125 291.494375) scale(0.1 -0.1)">
       <defs>
        <path id="DejaVuSans-37" d="M 525 4666 
L 3525 4666 
L 3525 4397 
L 1831 0 
L 1172 0 
L 2766 4134 
L 525 4134 
L 525 4666 
z
" transform="scale(0.015625)"/>
       </defs>
       <use xlink:href="#DejaVuSans-32"/>
       <use xlink:href="#DejaVuSans-37" transform="translate(63.623047 0)"/>
       <use xlink:href="#DejaVuSans-30" transform="translate(127.246094 0)"/>
       <use xlink:href="#DejaVuSans-b0" transform="translate(190.869141 0)"/>
      </g>
     </g>
    </g>
    <g id="xtick_8">
     <g id="line2d_8">
      <path d="M 138.795 172.8 
L 210.87393 244.87893 
" clip-path="url(#p28d09d4da1)" style="fill: none; stroke: #b0b0b0; stroke-width: 0.8; stroke-linecap: square"/>
     </g>
     <g id="text_8">
      <!-- 315° -->
      <g transform="translate(208.729675 257.5378) scale(0.1 -0.1)">
       <use xlink:href="#DejaVuSans-33"/>
       <use xlink:href="#DejaVuSans-31" transform="translate(63.623047 0)"/>
       <use xlink:href="#DejaVuSans-35" transform="translate(127.246094 0)"/>
       <use xlink:href="#DejaVuSans-b0" transform="translate(190.869141 0)"/>
      </g>
     </g>
    </g>
   </g>
   <g id="matplotlib.axis_2">
    <g id="ytick_1">
     <g id="line2d_9">
      <path d="M 178.000769 172.8 
C 178.000769 167.651546 176.986636 162.553153 175.016408 157.796602 
C 173.04618 153.04005 170.158172 148.717842 166.517665 145.077335 
C 162.877158 141.436828 158.55495 138.54882 153.798398 136.578592 
C 149.041847 134.608364 143.943454 133.594231 138.795 133.594231 
C 133.646546 133.594231 128.548153 134.608364 123.791602 136.578592 
C 119.03505 138.54882 114.712842 141.436828 111.072335 145.077335 
C 107.431828 148.717842 104.54382 153.04005 102.573592 157.796602 
C 100.603364 162.553153 99.589231 167.651546 99.589231 172.8 
C 99.589231 177.948454 100.603364 183.046847 102.573592 187.803398 
C 104.54382 192.55995 107.431828 196.882158 111.072335 200.522665 
C 114.712842 204.163172 119.03505 207.05118 123.791602 209.021408 
C 128.548153 210.991636 133.646546 212.005769 138.795 212.005769 
C 143.943454 212.005769 149.041847 210.991636 153.798398 209.021408 
C 158.55495 207.05118 162.877158 204.163172 166.517665 200.522665 
C 170.158172 196.882158 173.04618 192.55995 175.016408 187.803398 
C 176.986636 183.046847 178.000769 177.948454 178.000769 172.8 
" clip-path="url(#p28d09d4da1)" style="fill: none; stroke: #b0b0b0; stroke-width: 0.8; stroke-linecap: square"/>
     </g>
     <g id="text_9">
      <!-- 0.5 -->
      <g transform="translate(99.589231 170.720312) scale(0.1 -0.1)">
       <defs>
        <path id="DejaVuSans-2e" d="M 684 794 
L 1344 794 
L 1344 0 
L 684 0 
L 684 794 
z
" transform="scale(0.015625)"/>
       </defs>
       <use xlink:href="#DejaVuSans-30"/>
       <use xlink:href="#DejaVuSans-2e" transform="translate(63.623047 0)"/>
       <use xlink:href="#DejaVuSans-35" transform="translate(95.410156 0)"/>
      </g>
     </g>
    </g>
    <g id="ytick_2">
     <g id="line2d_10">
      <path d="M 217.206538 172.8 
C 217.206538 162.503091 215.178272 152.306307 211.237815 142.793203 
C 207.297359 133.2801 201.521345 124.635684 194.240331 117.354669 
C 186.959316 110.073655 178.3149 104.297641 168.801797 100.357185 
C 159.288693 96.416728 149.091909 94.388462 138.795 94.388462 
C 128.498091 94.388462 118.301307 96.416728 108.788203 100.357185 
C 99.2751 104.297641 90.630684 110.073655 83.349669 117.354669 
C 76.068655 124.635684 70.292641 133.2801 66.352185 142.793203 
C 62.411728 152.306307 60.383462 162.503091 60.383462 172.8 
C 60.383462 183.096909 62.411728 193.293693 66.352185 202.806797 
C 70.292641 212.3199 76.068655 220.964316 83.349669 228.245331 
C 90.630684 235.526345 99.2751 241.302359 108.788203 245.242815 
C 118.301307 249.183272 128.498091 251.211538 138.795 251.211538 
C 149.091909 251.211538 159.288693 249.183272 168.801797 245.242815 
C 178.3149 241.302359 186.959316 235.526345 194.240331 228.245331 
C 201.521345 220.964316 207.297359 212.3199 211.237815 202.806797 
C 215.178272 193.293693 217.206538 183.096909 217.206538 172.8 
" clip-path="url(#p28d09d4da1)" style="fill: none; stroke: #b0b0b0; stroke-width: 0.8; stroke-linecap: square"/>
     </g>
     <g id="text_10">
      <!-- 1.0 -->
      <g transform="translate(60.383462 170.720312) scale(0.1 -0.1)">
       <use xlink:href="#DejaVuSans-31"/>
       <use xlink:href="#DejaVuSans-2e" transform="translate(63.623047 0)"/>
       <use xlink:href="#DejaVuSans-30" transform="translate(95.410156 0)"/>
      </g>
     </g>
    </g>
    <g id="ytick_3">
     <g id="line2d_11">
      <path d="M 240.73 172.8 
C 240.73 159.414018 238.093254 146.158199 232.97066 133.791164 
C 227.848067 121.42413 220.339248 110.186389 210.87393 100.72107 
C 201.408611 91.255752 190.17087 83.746933 177.803836 78.62434 
C 165.436801 73.501746 152.180982 70.865 138.795 70.865 
C 125.409018 70.865 112.153199 73.501746 99.786164 78.62434 
C 87.41913 83.746933 76.181389 91.255752 66.71607 100.72107 
C 57.250752 110.186389 49.741933 121.42413 44.61934 133.791164 
C 39.496746 146.158199 36.86 159.414018 36.86 172.8 
C 36.86 186.185982 39.496746 199.441801 44.61934 211.808836 
C 49.741933 224.17587 57.250752 235.413611 66.71607 244.87893 
C 76.181389 254.344248 87.41913 261.853067 99.786164 266.97566 
C 112.153199 272.098254 125.409018 274.735 138.795 274.735 
C 152.180982 274.735 165.436801 272.098254 177.803836 266.97566 
C 190.17087 261.853067 201.408611 254.344248 210.87393 244.87893 
C 220.339248 235.413611 227.848067 224.17587 232.97066 211.808836 
C 238.093254 199.441801 240.73 186.185982 240.73 172.8 
" clip-path="url(#p28d09d4da1)" style="fill: none; stroke: #b0b0b0; stroke-width: 0.8; stroke-linecap: square"/>
     </g>
     <g id="text_11">
      <!-- 1.3 -->
      <g transform="translate(36.86 170.720312) scale(0.1 -0.1)">
       <use xlink:href="#DejaVuSans-31"/>
       <use xlink:href="#DejaVuSans-2e" transform="translate(63.623047 0)"/>
       <use xlink:href="#DejaVuSans-33" transform="translate(95.410156 0)"/>
      </g>
     </g>
    </g>
   </g>
   <g id="patch_3">
    <path d="M 240.73 172.8 
C 240.73 159.414018 238.093254 146.158199 232.97066 133.791164 
C 227.848067 121.42413 220.339248 110.186389 210.87393 100.72107 
C 201.408611 91.255752 190.17087 83.746933 177.803836 78.62434 
C 165.436801 73.501746 152.180982 70.865 138.795 70.865 
C 125.409018 70.865 112.153199 73.501746 99.786164 78.62434 
C 87.41913 83.746933 76.181389 91.255752 66.71607 100.72107 
C 57.250752 110.186389 49.741933 121.42413 44.61934 133.791164 
C 39.496746 146.158199 36.86 159.414018 36.86 172.8 
C 36.86 186.185982 39.496746 199.441801 44.61934 211.808836 
C 49.741933 224.17587 57.250752 235.413611 66.71607 244.87893 
C 76.181389 254.344248 87.41913 261.853067 99.786164 266.97566 
C 112.153199 272.098254 125.409018 274.735 138.795 274.735 
C 152.180982 274.735 165.436801 272.098254 177.803836 266.97566 
C 190.17087 261.853067 201.408611 254.344248 210.87393 244.87893 
C 220.339248 235.413611 227.848067 224.17587 232.97066 211.808836 
C 238.093254 199.441801 240.73 186.185982 240.73 172.8 
" style="fill: none; stroke: #000000; stroke-width: 0.8; stroke-linejoin: miter; stroke-linecap: square"/>
   </g>
   <g id="line2d_12">
    <path d="M 217.206538 172.8 
L 217.048671 167.826833 
L 216.575703 162.873691 
L 215.78954 157.960519 
L 214.693347 153.1071 
L 213.291538 148.332977 
L 211.589758 143.657375 
L 209.594859 139.09912 
L 207.314874 134.676566 
L 204.758984 130.407522 
L 201.93748 126.309177 
L 198.861723 122.398035 
L 195.544099 118.689843 
L 191.997967 115.199534 
L 188.237605 111.941162 
L 184.278155 108.927846 
L 180.13556 106.171722 
L 175.826502 103.683886 
L 171.36833 101.474356 
L 166.778998 99.552029 
L 162.076983 97.924646 
L 157.281221 96.59876 
L 152.411021 95.579709 
L 147.485994 94.871597 
L 142.525971 94.477275 
L 137.550925 94.398331 
L 132.580889 94.635083 
L 127.635875 95.186578 
L 122.735794 96.050594 
L 117.900378 97.223654 
L 113.149098 98.701032 
L 108.501084 100.476781 
L 103.975054 102.54375 
L 99.589231 104.893616 
L 95.361276 107.516917 
L 91.308213 110.40309 
L 87.446362 113.540513 
L 83.791275 116.916554 
L 80.357668 120.517617 
L 77.159368 124.329203 
L 74.209252 128.335964 
L 71.519201 132.521765 
L 69.100045 136.869753 
L 66.961526 141.36242 
L 65.112256 145.981674 
L 63.55968 150.708917 
L 62.31005 155.525112 
L 61.368398 160.410867 
L 60.738515 165.346509 
L 60.422938 170.312164 
L 60.422938 175.287836 
L 60.738515 180.253491 
L 61.368398 185.189133 
L 62.31005 190.074888 
L 63.55968 194.891083 
L 65.112256 199.618326 
L 66.961526 204.23758 
L 69.100045 208.730247 
L 71.519201 213.078235 
L 74.209252 217.264036 
L 77.159368 221.270797 
L 80.357668 225.082383 
L 83.791275 228.683446 
L 87.446362 232.059487 
L 91.308213 235.19691 
L 95.361276 238.083083 
L 99.589231 240.706384 
L 103.975054 243.05625 
L 108.501084 245.123219 
L 113.149098 246.898968 
L 117.900378 248.376346 
L 122.735794 249.549406 
L 127.635875 250.413422 
L 132.580889 250.964917 
L 137.550925 251.201669 
L 142.525971 251.122725 
L 147.485994 250.728403 
L 152.411021 250.020291 
L 157.281221 249.00124 
L 162.076983 247.675354 
L 166.778998 246.047971 
L 171.36833 244.125644 
L 175.826502 241.916114 
L 180.13556 239.428278 
L 184.278155 236.672154 
L 188.237605 233.658838 
L 191.997967 230.400466 
L 195.544099 226.910157 
L 198.861723 223.201965 
L 201.93748 219.290823 
L 204.758984 215.192478 
L 207.314874 210.923434 
L 209.594859 206.50088 
L 211.589758 201.942625 
L 213.291538 197.267023 
L 214.693347 192.4929 
L 215.78954 187.639481 
L 216.575703 182.726309 
L 217.048671 177.773167 
L 217.206538 172.8 
" clip-path="url(#p28d09d4da1)" style="fill: none; stroke: #000000; stroke-width: 3; stroke-linecap: square"/>
   </g>
   <g id="PathCollection_1">
    <defs>
     <path id="mf55aa1118a" d="M 0 4.1833 
C 1.109424 4.1833 2.173559 3.742521 2.95804 2.95804 
C 3.742521 2.173559 4.1833 1.109424 4.1833 0 
C 4.1833 -1.109424 3.742521 -2.173559 2.95804 -2.95804 
C 2.173559 -3.742521 1.109424 -4.1833 0 -4.1833 
C -1.109424 -4.1833 -2.173559 -3.742521 -2.95804 -2.95804 
C -3.742521 -2.173559 -4.1833 -1.109424 -4.1833 0 
C -4.1833 1.109424 -3.742521 2.173559 -2.95804 2.95804 
C -2.173559 3.742521 -1.109424 4.1833 0 4.1833 
z
" style="stroke: #000000"/>
    </defs>
    <g clip-path="url(#p28d09d4da1)">
     <use xlink:href="#mf55aa1118a" x="138.790512" y="172.793086" style="fill: #808080; stroke: #000000"/>
    </g>
   </g>
   <g id="PathCollection_2">
    <g clip-path="url(#p28d09d4da1)">
     <use xlink:href="#mf55aa1118a" x="139.16556" y="1135.524762" style="fill: #808080; stroke: #000000"/>
    </g>
   </g>
   <g id="PathCollection_3">
    <g clip-path="url(#p28d09d4da1)">
     <use xlink:href="#mf55aa1118a" x="138.806956" y="191.966324" style="fill: #808080; stroke: #000000"/>
    </g>
   </g>
   <g id="PathCollection_4">
    <defs>
     <path id="m0c83acdfe0" d="M 0 4.1833 
C 1.109424 4.1833 2.173559 3.742521 2.95804 2.95804 
C 3.742521 2.173559 4.1833 1.109424 4.1833 0 
C 4.1833 -1.109424 3.742521 -2.173559 2.95804 -2.95804 
C 2.173559 -3.742521 1.109424 -4.1833 0 -4.1833 
C -1.109424 -4.1833 -2.173559 -3.742521 -2.95804 -2.95804 
C -3.742521 -2.173559 -4.1833 -1.109424 -4.1833 0 
C -4.1833 1.109424 -3.742521 2.173559 -2.95804 2.95804 
C -2.173559 3.742521 -1.109424 4.1833 0 4.1833 
z
" style="stroke: #000000"/>
    </defs>
    <g clip-path="url(#p28d09d4da1)">
     <use xlink:href="#m0c83acdfe0" x="138.806956" y="191.966324" style="fill: #00ffff; stroke: #000000"/>
    </g>
   </g>
  </g>
  <g id="axes_2">
   <g id="patch_4">
    <path d="M 501.13 172.8 
C 501.13 159.414018 498.493254 146.158199 493.37066 133.791164 
C 488.248067 121.42413 480.739248 110.186389 471.27393 100.72107 
C 461.808611 91.255752 450.57087 83.746933 438.203836 78.62434 
C 425.836801 73.501746 412.580982 70.865 399.195 70.865 
C 385.809018 70.865 372.553199 73.501746 360.186164 78.62434 
C 347.81913 83.746933 336.581389 91.255752 327.11607 100.72107 
C 317.650752 110.186389 310.141933 121.42413 305.01934 133.791164 
C 299.896746 146.158199 297.26 159.414018 297.26 172.8 
C 297.26 186.185982 299.896746 199.441801 305.01934 211.808836 
C 310.141933 224.17587 317.650752 235.413611 327.11607 244.87893 
C 336.581389 254.344248 347.81913 261.853067 360.186164 266.97566 
C 372.553199 272.098254 385.809018 274.735 399.195 274.735 
C 412.580982 274.735 425.836801 272.098254 438.203836 266.97566 
C 450.57087 261.853067 461.808611 254.344248 471.27393 244.87893 
C 480.739248 235.413611 488.248067 224.17587 493.37066 211.808836 
C 498.493254 199.441801 501.13 186.185982 501.13 172.8 
M 399.195 172.8 
C 399.195 172.8 399.195 172.8 399.195 172.8 
C 399.195 172.8 399.195 172.8 399.195 172.8 
C 399.195 172.8 399.195 172.8 399.195 172.8 
C 399.195 172.8 399.195 172.8 399.195 172.8 
C 399.195 172.8 399.195 172.8 399.195 172.8 
C 399.195 172.8 399.195 172.8 399.195 172.8 
C 399.195 172.8 399.195 172.8 399.195 172.8 
C 399.195 172.8 399.195 172.8 399.195 172.8 
C 399.195 172.8 399.195 172.8 399.195 172.8 
C 399.195 172.8 399.195 172.8 399.195 172.8 
C 399.195 172.8 399.195 172.8 399.195 172.8 
C 399.195 172.8 399.195 172.8 399.195 172.8 
C 399.195 172.8 399.195 172.8 399.195 172.8 
C 399.195 172.8 399.195 172.8 399.195 172.8 
C 399.195 172.8 399.195 172.8 399.195 172.8 
C 399.195 172.8 399.195 172.8 399.195 172.8 
z
" style="fill: #ffffff"/>
   </g>
   <g id="FillBetweenPolyCollection_3">
    <defs>
     <path id="mc814a47dde" d="M 477.606538 -172.8 
L 399.195 -172.8 
L 399.195 -172.8 
L 399.195 -172.8 
L 399.195 -172.8 
L 399.195 -172.8 
L 399.195 -172.8 
L 399.195 -172.8 
L 399.195 -172.8 
L 399.195 -172.8 
L 399.195 -172.8 
L 399.195 -172.8 
L 399.195 -172.8 
L 399.195 -172.8 
L 399.195 -172.8 
L 399.195 -172.8 
L 399.195 -172.8 
L 399.195 -172.8 
L 399.195 -172.8 
L 399.195 -172.8 
L 399.195 -172.8 
L 399.195 -172.8 
L 399.195 -172.8 
L 399.195 -172.8 
L 399.195 -172.8 
L 399.195 -172.8 
L 399.195 -172.8 
L 399.195 -172.8 
L 399.195 -172.8 
L 399.195 -172.8 
L 399.195 -172.8 
L 399.195 -172.8 
L 399.195 -172.8 
L 399.195 -172.8 
L 399.195 -172.8 
L 399.195 -172.8 
L 399.195 -172.8 
L 399.195 -172.8 
L 399.195 -172.8 
L 399.195 -172.8 
L 399.195 -172.8 
L 399.195 -172.8 
L 399.195 -172.8 
L 399.195 -172.8 
L 399.195 -172.8 
L 399.195 -172.8 
L 399.195 -172.8 
L 399.195 -172.8 
L 399.195 -172.8 
L 399.195 -172.8 
L 399.195 -172.8 
L 399.195 -172.8 
L 399.195 -172.8 
L 399.195 -172.8 
L 399.195 -172.8 
L 399.195 -172.8 
L 399.195 -172.8 
L 399.195 -172.8 
L 399.195 -172.8 
L 399.195 -172.8 
L 399.195 -172.8 
L 399.195 -172.8 
L 399.195 -172.8 
L 399.195 -172.8 
L 399.195 -172.8 
L 399.195 -172.8 
L 399.195 -172.8 
L 399.195 -172.8 
L 399.195 -172.8 
L 399.195 -172.8 
L 399.195 -172.8 
L 399.195 -172.8 
L 399.195 -172.8 
L 399.195 -172.8 
L 399.195 -172.8 
L 399.195 -172.8 
L 399.195 -172.8 
L 399.195 -172.8 
L 399.195 -172.8 
L 399.195 -172.8 
L 399.195 -172.8 
L 399.195 -172.8 
L 399.195 -172.8 
L 399.195 -172.8 
L 399.195 -172.8 
L 399.195 -172.8 
L 399.195 -172.8 
L 399.195 -172.8 
L 399.195 -172.8 
L 399.195 -172.8 
L 399.195 -172.8 
L 399.195 -172.8 
L 399.195 -172.8 
L 399.195 -172.8 
L 399.195 -172.8 
L 399.195 -172.8 
L 399.195 -172.8 
L 399.195 -172.8 
L 399.195 -172.8 
L 399.195 -172.8 
L 399.195 -172.8 
L 477.606538 -172.8 
L 477.606538 -172.8 
L 477.448671 -167.826833 
L 476.975703 -162.873691 
L 476.18954 -157.960519 
L 475.093347 -153.1071 
L 473.691538 -148.332977 
L 471.989758 -143.657375 
L 469.994859 -139.09912 
L 467.714874 -134.676566 
L 465.158984 -130.407522 
L 462.33748 -126.309177 
L 459.261723 -122.398035 
L 455.944099 -118.689843 
L 452.397967 -115.199534 
L 448.637605 -111.941162 
L 444.678155 -108.927846 
L 440.53556 -106.171722 
L 436.226502 -103.683886 
L 431.76833 -101.474356 
L 427.178998 -99.552029 
L 422.476983 -97.924646 
L 417.681221 -96.59876 
L 412.811021 -95.579709 
L 407.885994 -94.871597 
L 402.925971 -94.477275 
L 397.950925 -94.398331 
L 392.980889 -94.635083 
L 388.035875 -95.186578 
L 383.135794 -96.050594 
L 378.300378 -97.223654 
L 373.549098 -98.701032 
L 368.901084 -100.476781 
L 364.375054 -102.54375 
L 359.989231 -104.893616 
L 355.761276 -107.516917 
L 351.708213 -110.40309 
L 347.846362 -113.540513 
L 344.191275 -116.916554 
L 340.757668 -120.517617 
L 337.559368 -124.329203 
L 334.609252 -128.335964 
L 331.919201 -132.521765 
L 329.500045 -136.869753 
L 327.361526 -141.36242 
L 325.512256 -145.981674 
L 323.95968 -150.708917 
L 322.71005 -155.525112 
L 321.768398 -160.410867 
L 321.138515 -165.346509 
L 320.822938 -170.312164 
L 320.822938 -175.287836 
L 321.138515 -180.253491 
L 321.768398 -185.189133 
L 322.71005 -190.074888 
L 323.95968 -194.891083 
L 325.512256 -199.618326 
L 327.361526 -204.23758 
L 329.500045 -208.730247 
L 331.919201 -213.078235 
L 334.609252 -217.264036 
L 337.559368 -221.270797 
L 340.757668 -225.082383 
L 344.191275 -228.683446 
L 347.846362 -232.059487 
L 351.708213 -235.19691 
L 355.761276 -238.083083 
L 359.989231 -240.706384 
L 364.375054 -243.05625 
L 368.901084 -245.123219 
L 373.549098 -246.898968 
L 378.300378 -248.376346 
L 383.135794 -249.549406 
L 388.035875 -250.413422 
L 392.980889 -250.964917 
L 397.950925 -251.201669 
L 402.925971 -251.122725 
L 407.885994 -250.728403 
L 412.811021 -250.020291 
L 417.681221 -249.00124 
L 422.476983 -247.675354 
L 427.178998 -246.047971 
L 431.76833 -244.125644 
L 436.226502 -241.916114 
L 440.53556 -239.428278 
L 444.678155 -236.672154 
L 448.637605 -233.658838 
L 452.397967 -230.400466 
L 455.944099 -226.910157 
L 459.261723 -223.201965 
L 462.33748 -219.290823 
L 465.158984 -215.192478 
L 467.714874 -210.923434 
L 469.994859 -206.50088 
L 471.989758 -201.942625 
L 473.691538 -197.267023 
L 475.093347 -192.4929 
L 476.18954 -187.639481 
L 476.975703 -182.726309 
L 477.448671 -177.773167 
L 477.606538 -172.8 
z
" style="stroke: #008000; stroke-opacity: 0.1"/>
    </defs>
    <g clip-path="url(#pc55e7332c5)">
     <use xlink:href="#mc814a47dde" x="0" y="345.6" style="fill: #008000; fill-opacity: 0.1; stroke: #008000; stroke-opacity: 0.1"/>
    </g>
   </g>
   <g id="FillBetweenPolyCollection_4">
    <defs>
     <path id="ma1b1c51b82" d="M 501.13 -172.8 
L 477.606538 -172.8 
L 477.448671 -177.773167 
L 476.975703 -182.726309 
L 476.18954 -187.639481 
L 475.093347 -192.4929 
L 473.691538 -197.267023 
L 471.989758 -201.942625 
L 469.994859 -206.50088 
L 467.714874 -210.923434 
L 465.158984 -215.192478 
L 462.33748 -219.290823 
L 459.261723 -223.201965 
L 455.944099 -226.910157 
L 452.397967 -230.400466 
L 448.637605 -233.658838 
L 444.678155 -236.672154 
L 440.53556 -239.428278 
L 436.226502 -241.916114 
L 431.76833 -244.125644 
L 427.178998 -246.047971 
L 422.476983 -247.675354 
L 417.681221 -249.00124 
L 412.811021 -250.020291 
L 407.885994 -250.728403 
L 402.925971 -251.122725 
L 397.950925 -251.201669 
L 392.980889 -250.964917 
L 388.035875 -250.413422 
L 383.135794 -249.549406 
L 378.300378 -248.376346 
L 373.549098 -246.898968 
L 368.901084 -245.123219 
L 364.375054 -243.05625 
L 359.989231 -240.706384 
L 355.761276 -238.083083 
L 351.708213 -235.19691 
L 347.846362 -232.059487 
L 344.191275 -228.683446 
L 340.757668 -225.082383 
L 337.559368 -221.270797 
L 334.609252 -217.264036 
L 331.919201 -213.078235 
L 329.500045 -208.730247 
L 327.361526 -204.23758 
L 325.512256 -199.618326 
L 323.95968 -194.891083 
L 322.71005 -190.074888 
L 321.768398 -185.189133 
L 321.138515 -180.253491 
L 320.822938 -175.287836 
L 320.822938 -170.312164 
L 321.138515 -165.346509 
L 321.768398 -160.410867 
L 322.71005 -155.525112 
L 323.95968 -150.708917 
L 325.512256 -145.981674 
L 327.361526 -141.36242 
L 329.500045 -136.869753 
L 331.919201 -132.521765 
L 334.609252 -128.335964 
L 337.559368 -124.329203 
L 340.757668 -120.517617 
L 344.191275 -116.916554 
L 347.846362 -113.540513 
L 351.708213 -110.40309 
L 355.761276 -107.516917 
L 359.989231 -104.893616 
L 364.375054 -102.54375 
L 368.901084 -100.476781 
L 373.549098 -98.701032 
L 378.300378 -97.223654 
L 383.135794 -96.050594 
L 388.035875 -95.186578 
L 392.980889 -94.635083 
L 397.950925 -94.398331 
L 402.925971 -94.477275 
L 407.885994 -94.871597 
L 412.811021 -95.579709 
L 417.681221 -96.59876 
L 422.476983 -97.924646 
L 427.178998 -99.552029 
L 431.76833 -101.474356 
L 436.226502 -103.683886 
L 440.53556 -106.171722 
L 444.678155 -108.927846 
L 448.637605 -111.941162 
L 452.397967 -115.199534 
L 455.944099 -118.689843 
L 459.261723 -122.398035 
L 462.33748 -126.309177 
L 465.158984 -130.407522 
L 467.714874 -134.676566 
L 469.994859 -139.09912 
L 471.989758 -143.657375 
L 473.691538 -148.332977 
L 475.093347 -153.1071 
L 476.18954 -157.960519 
L 476.975703 -162.873691 
L 477.448671 -167.826833 
L 477.606538 -172.8 
L 501.13 -172.8 
L 501.13 -172.8 
L 500.924772 -166.334883 
L 500.309914 -159.895798 
L 499.287902 -153.508674 
L 497.862851 -147.19923 
L 496.040499 -140.992871 
L 493.828185 -134.914588 
L 491.234817 -128.988856 
L 488.270836 -123.239536 
L 484.948179 -117.689778 
L 481.280224 -112.36193 
L 477.28174 -107.277445 
L 472.968829 -102.456796 
L 468.358857 -97.919394 
L 463.470386 -93.68351 
L 458.323101 -89.7662 
L 452.937728 -86.183238 
L 447.335952 -82.949051 
L 441.540329 -80.076663 
L 435.574197 -77.577638 
L 429.461578 -75.46204 
L 423.227087 -73.738388 
L 416.895827 -72.413622 
L 410.493292 -71.493076 
L 404.045263 -70.980458 
L 397.577703 -70.877831 
L 391.116656 -71.185608 
L 384.688137 -71.902551 
L 378.318032 -73.025773 
L 372.031992 -74.55075 
L 365.855327 -76.471342 
L 359.81291 -78.779815 
L 353.92907 -81.466875 
L 348.2275 -84.5217 
L 342.731158 -87.931992 
L 337.462177 -91.684017 
L 332.441771 -95.762667 
L 327.690157 -100.15152 
L 323.226468 -104.832902 
L 319.068678 -109.787964 
L 315.233528 -114.996753 
L 311.736461 -120.438295 
L 308.591559 -126.09068 
L 305.811484 -131.931146 
L 303.407433 -137.936177 
L 301.389084 -144.081592 
L 299.764565 -150.342646 
L 298.540417 -156.694128 
L 297.72157 -163.110462 
L 297.31132 -169.565813 
L 297.31132 -176.034187 
L 297.72157 -182.489538 
L 298.540417 -188.905872 
L 299.764565 -195.257354 
L 301.389084 -201.518408 
L 303.407433 -207.663823 
L 305.811484 -213.668854 
L 308.591559 -219.50932 
L 311.736461 -225.161705 
L 315.233528 -230.603247 
L 319.068678 -235.812036 
L 323.226468 -240.767098 
L 327.690157 -245.44848 
L 332.441771 -249.837333 
L 337.462177 -253.915983 
L 342.731158 -257.668008 
L 348.2275 -261.0783 
L 353.92907 -264.133125 
L 359.81291 -266.820185 
L 365.855327 -269.128658 
L 372.031992 -271.04925 
L 378.318032 -272.574227 
L 384.688137 -273.697449 
L 391.116656 -274.414392 
L 397.577703 -274.722169 
L 404.045263 -274.619542 
L 410.493292 -274.106924 
L 416.895827 -273.186378 
L 423.227087 -271.861612 
L 429.461578 -270.13796 
L 435.574197 -268.022362 
L 441.540329 -265.523337 
L 447.335952 -262.650949 
L 452.937728 -259.416762 
L 458.323101 -255.8338 
L 463.470386 -251.91649 
L 468.358857 -247.680606 
L 472.968829 -243.143204 
L 477.28174 -238.322555 
L 481.280224 -233.23807 
L 484.948179 -227.910222 
L 488.270836 -222.360464 
L 491.234817 -216.611144 
L 493.828185 -210.685412 
L 496.040499 -204.607129 
L 497.862851 -198.40077 
L 499.287902 -192.091326 
L 500.309914 -185.704202 
L 500.924772 -179.265117 
L 501.13 -172.8 
z
" style="stroke: #ff0000; stroke-opacity: 0.1"/>
    </defs>
    <g clip-path="url(#pc55e7332c5)">
     <use xlink:href="#ma1b1c51b82" x="0" y="345.6" style="fill: #ff0000; fill-opacity: 0.1; stroke: #ff0000; stroke-opacity: 0.1"/>
    </g>
   </g>
   <g id="matplotlib.axis_3">
    <g id="xtick_9">
     <g id="line2d_13">
      <path d="M 399.195 172.8 
L 501.13 172.8 
" clip-path="url(#pc55e7332c5)" style="fill: none; stroke: #b0b0b0; stroke-width: 0.8; stroke-linecap: square"/>
     </g>
     <g id="text_12">
      <!-- 0° -->
      <g transform="translate(509.44875 175.559375) scale(0.1 -0.1)">
       <use xlink:href="#DejaVuSans-30"/>
       <use xlink:href="#DejaVuSans-b0" transform="translate(63.623047 0)"/>
      </g>
     </g>
    </g>
    <g id="xtick_10">
     <g id="line2d_14">
      <path d="M 399.195 172.8 
L 471.27393 100.72107 
" clip-path="url(#pc55e7332c5)" style="fill: none; stroke: #b0b0b0; stroke-width: 0.8; stroke-linecap: square"/>
     </g>
     <g id="text_13">
      <!-- 45° -->
      <g transform="translate(472.310925 93.58095) scale(0.1 -0.1)">
       <use xlink:href="#DejaVuSans-34"/>
       <use xlink:href="#DejaVuSans-35" transform="translate(63.623047 0)"/>
       <use xlink:href="#DejaVuSans-b0" transform="translate(127.246094 0)"/>
      </g>
     </g>
    </g>
    <g id="xtick_11">
     <g id="line2d_15">
      <path d="M 399.195 172.8 
L 399.195 70.865 
" clip-path="url(#pc55e7332c5)" style="fill: none; stroke: #b0b0b0; stroke-width: 0.8; stroke-linecap: square"/>
     </g>
     <g id="text_14">
      <!-- 90° -->
      <g transform="translate(390.3325 59.624375) scale(0.1 -0.1)">
       <use xlink:href="#DejaVuSans-39"/>
       <use xlink:href="#DejaVuSans-30" transform="translate(63.623047 0)"/>
       <use xlink:href="#DejaVuSans-b0" transform="translate(127.246094 0)"/>
      </g>
     </g>
    </g>
    <g id="xtick_12">
     <g id="line2d_16">
      <path d="M 399.195 172.8 
L 327.11607 100.72107 
" clip-path="url(#pc55e7332c5)" style="fill: none; stroke: #b0b0b0; stroke-width: 0.8; stroke-linecap: square"/>
     </g>
     <g id="text_15">
      <!-- 135° -->
      <g transform="translate(305.172825 93.58095) scale(0.1 -0.1)">
       <use xlink:href="#DejaVuSans-31"/>
       <use xlink:href="#DejaVuSans-33" transform="translate(63.623047 0)"/>
       <use xlink:href="#DejaVuSans-35" transform="translate(127.246094 0)"/>
       <use xlink:href="#DejaVuSans-b0" transform="translate(190.869141 0)"/>
      </g>
     </g>
    </g>
    <g id="xtick_13">
     <g id="line2d_17">
      <path d="M 399.195 172.8 
L 297.26 172.8 
" clip-path="url(#pc55e7332c5)" style="fill: none; stroke: #b0b0b0; stroke-width: 0.8; stroke-linecap: square"/>
     </g>
     <g id="text_16">
      <!-- 180° -->
      <g transform="translate(271.21625 175.559375) scale(0.1 -0.1)">
       <use xlink:href="#DejaVuSans-31"/>
       <use xlink:href="#DejaVuSans-38" transform="translate(63.623047 0)"/>
       <use xlink:href="#DejaVuSans-30" transform="translate(127.246094 0)"/>
       <use xlink:href="#DejaVuSans-b0" transform="translate(190.869141 0)"/>
      </g>
     </g>
    </g>
    <g id="xtick_14">
     <g id="line2d_18">
      <path d="M 399.195 172.8 
L 327.11607 244.87893 
" clip-path="url(#pc55e7332c5)" style="fill: none; stroke: #b0b0b0; stroke-width: 0.8; stroke-linecap: square"/>
     </g>
     <g id="text_17">
      <!-- 225° -->
      <g transform="translate(305.172825 257.5378) scale(0.1 -0.1)">
       <use xlink:href="#DejaVuSans-32"/>
       <use xlink:href="#DejaVuSans-32" transform="translate(63.623047 0)"/>
       <use xlink:href="#DejaVuSans-35" transform="translate(127.246094 0)"/>
       <use xlink:href="#DejaVuSans-b0" transform="translate(190.869141 0)"/>
      </g>
     </g>
    </g>
    <g id="xtick_15">
     <g id="line2d_19">
      <path d="M 399.195 172.8 
L 399.195 274.735 
" clip-path="url(#pc55e7332c5)" style="fill: none; stroke: #b0b0b0; stroke-width: 0.8; stroke-linecap: square"/>
     </g>
     <g id="text_18">
      <!-- 270° -->
      <g transform="translate(387.15125 291.494375) scale(0.1 -0.1)">
       <use xlink:href="#DejaVuSans-32"/>
       <use xlink:href="#DejaVuSans-37" transform="translate(63.623047 0)"/>
       <use xlink:href="#DejaVuSans-30" transform="translate(127.246094 0)"/>
       <use xlink:href="#DejaVuSans-b0" transform="translate(190.869141 0)"/>
      </g>
     </g>
    </g>
    <g id="xtick_16">
     <g id="line2d_20">
      <path d="M 399.195 172.8 
L 471.27393 244.87893 
" clip-path="url(#pc55e7332c5)" style="fill: none; stroke: #b0b0b0; stroke-width: 0.8; stroke-linecap: square"/>
     </g>
     <g id="text_19">
      <!-- 315° -->
      <g transform="translate(469.129675 257.5378) scale(0.1 -0.1)">
       <use xlink:href="#DejaVuSans-33"/>
       <use xlink:href="#DejaVuSans-31" transform="translate(63.623047 0)"/>
       <use xlink:href="#DejaVuSans-35" transform="translate(127.246094 0)"/>
       <use xlink:href="#DejaVuSans-b0" transform="translate(190.869141 0)"/>
      </g>
     </g>
    </g>
   </g>
   <g id="matplotlib.axis_4">
    <g id="ytick_4">
     <g id="line2d_21">
      <path d="M 438.400769 172.8 
C 438.400769 167.651546 437.386636 162.553153 435.416408 157.796602 
C 433.44618 153.04005 430.558172 148.717842 426.917665 145.077335 
C 423.277158 141.436828 418.95495 138.54882 414.198398 136.578592 
C 409.441847 134.608364 404.343454 133.594231 399.195 133.594231 
C 394.046546 133.594231 388.948153 134.608364 384.191602 136.578592 
C 379.43505 138.54882 375.112842 141.436828 371.472335 145.077335 
C 367.831828 148.717842 364.94382 153.04005 362.973592 157.796602 
C 361.003364 162.553153 359.989231 167.651546 359.989231 172.8 
C 359.989231 177.948454 361.003364 183.046847 362.973592 187.803398 
C 364.94382 192.55995 367.831828 196.882158 371.472335 200.522665 
C 375.112842 204.163172 379.43505 207.05118 384.191602 209.021408 
C 388.948153 210.991636 394.046546 212.005769 399.195 212.005769 
C 404.343454 212.005769 409.441847 210.991636 414.198398 209.021408 
C 418.95495 207.05118 423.277158 204.163172 426.917665 200.522665 
C 430.558172 196.882158 433.44618 192.55995 435.416408 187.803398 
C 437.386636 183.046847 438.400769 177.948454 438.400769 172.8 
" clip-path="url(#pc55e7332c5)" style="fill: none; stroke: #b0b0b0; stroke-width: 0.8; stroke-linecap: square"/>
     </g>
     <g id="text_20">
      <!-- 0.5 -->
      <g transform="translate(359.989231 170.720312) scale(0.1 -0.1)">
       <use xlink:href="#DejaVuSans-30"/>
       <use xlink:href="#DejaVuSans-2e" transform="translate(63.623047 0)"/>
       <use xlink:href="#DejaVuSans-35" transform="translate(95.410156 0)"/>
      </g>
     </g>
    </g>
    <g id="ytick_5">
     <g id="line2d_22">
      <path d="M 477.606538 172.8 
C 477.606538 162.503091 475.578272 152.306307 471.637815 142.793203 
C 467.697359 133.2801 461.921345 124.635684 454.640331 117.354669 
C 447.359316 110.073655 438.7149 104.297641 429.201797 100.357185 
C 419.688693 96.416728 409.491909 94.388462 399.195 94.388462 
C 388.898091 94.388462 378.701307 96.416728 369.188203 100.357185 
C 359.6751 104.297641 351.030684 110.073655 343.749669 117.354669 
C 336.468655 124.635684 330.692641 133.2801 326.752185 142.793203 
C 322.811728 152.306307 320.783462 162.503091 320.783462 172.8 
C 320.783462 183.096909 322.811728 193.293693 326.752185 202.806797 
C 330.692641 212.3199 336.468655 220.964316 343.749669 228.245331 
C 351.030684 235.526345 359.6751 241.302359 369.188203 245.242815 
C 378.701307 249.183272 388.898091 251.211538 399.195 251.211538 
C 409.491909 251.211538 419.688693 249.183272 429.201797 245.242815 
C 438.7149 241.302359 447.359316 235.526345 454.640331 228.245331 
C 461.921345 220.964316 467.697359 212.3199 471.637815 202.806797 
C 475.578272 193.293693 477.606538 183.096909 477.606538 172.8 
" clip-path="url(#pc55e7332c5)" style="fill: none; stroke: #b0b0b0; stroke-width: 0.8; stroke-linecap: square"/>
     </g>
     <g id="text_21">
      <!-- 1.0 -->
      <g transform="translate(320.783462 170.720312) scale(0.1 -0.1)">
       <use xlink:href="#DejaVuSans-31"/>
       <use xlink:href="#DejaVuSans-2e" transform="translate(63.623047 0)"/>
       <use xlink:href="#DejaVuSans-30" transform="translate(95.410156 0)"/>
      </g>
     </g>
    </g>
    <g id="ytick_6">
     <g id="line2d_23">
      <path d="M 501.13 172.8 
C 501.13 159.414018 498.493254 146.158199 493.37066 133.791164 
C 488.248067 121.42413 480.739248 110.186389 471.27393 100.72107 
C 461.808611 91.255752 450.57087 83.746933 438.203836 78.62434 
C 425.836801 73.501746 412.580982 70.865 399.195 70.865 
C 385.809018 70.865 372.553199 73.501746 360.186164 78.62434 
C 347.81913 83.746933 336.581389 91.255752 327.11607 100.72107 
C 317.650752 110.186389 310.141933 121.42413 305.01934 133.791164 
C 299.896746 146.158199 297.26 159.414018 297.26 172.8 
C 297.26 186.185982 299.896746 199.441801 305.01934 211.808836 
C 310.141933 224.17587 317.650752 235.413611 327.11607 244.87893 
C 336.581389 254.344248 347.81913 261.853067 360.186164 266.97566 
C 372.553199 272.098254 385.809018 274.735 399.195 274.735 
C 412.580982 274.735 425.836801 272.098254 438.203836 266.97566 
C 450.57087 261.853067 461.808611 254.344248 471.27393 244.87893 
C 480.739248 235.413611 488.248067 224.17587 493.37066 211.808836 
C 498.493254 199.441801 501.13 186.185982 501.13 172.8 
" clip-path="url(#pc55e7332c5)" style="fill: none; stroke: #b0b0b0; stroke-width: 0.8; stroke-linecap: square"/>
     </g>
     <g id="text_22">
      <!-- 1.3 -->
      <g transform="translate(297.26 170.720312) scale(0.1 -0.1)">
       <use xlink:href="#DejaVuSans-31"/>
       <use xlink:href="#DejaVuSans-2e" transform="translate(63.623047 0)"/>
       <use xlink:href="#DejaVuSans-33" transform="translate(95.410156 0)"/>
      </g>
     </g>
    </g>
   </g>
   <g id="patch_5">
    <path d="M 501.13 172.8 
C 501.13 159.414018 498.493254 146.158199 493.37066 133.791164 
C 488.248067 121.42413 480.739248 110.186389 471.27393 100.72107 
C 461.808611 91.255752 450.57087 83.746933 438.203836 78.62434 
C 425.836801 73.501746 412.580982 70.865 399.195 70.865 
C 385.809018 70.865 372.553199 73.501746 360.186164 78.62434 
C 347.81913 83.746933 336.581389 91.255752 327.11607 100.72107 
C 317.650752 110.186389 310.141933 121.42413 305.01934 133.791164 
C 299.896746 146.158199 297.26 159.414018 297.26 172.8 
C 297.26 186.185982 299.896746 199.441801 305.01934 211.808836 
C 310.141933 224.17587 317.650752 235.413611 327.11607 244.87893 
C 336.581389 254.344248 347.81913 261.853067 360.186164 266.97566 
C 372.553199 272.098254 385.809018 274.735 399.195 274.735 
C 412.580982 274.735 425.836801 272.098254 438.203836 266.97566 
C 450.57087 261.853067 461.808611 254.344248 471.27393 244.87893 
C 480.739248 235.413611 488.248067 224.17587 493.37066 211.808836 
C 498.493254 199.441801 501.13 186.185982 501.13 172.8 
" style="fill: none; stroke: #000000; stroke-width: 0.8; stroke-linejoin: miter; stroke-linecap: square"/>
   </g>
   <g id="line2d_24">
    <path d="M 477.606538 172.8 
L 477.448671 167.826833 
L 476.975703 162.873691 
L 476.18954 157.960519 
L 475.093347 153.1071 
L 473.691538 148.332977 
L 471.989758 143.657375 
L 469.994859 139.09912 
L 467.714874 134.676566 
L 465.158984 130.407522 
L 462.33748 126.309177 
L 459.261723 122.398035 
L 455.944099 118.689843 
L 452.397967 115.199534 
L 448.637605 111.941162 
L 444.678155 108.927846 
L 440.53556 106.171722 
L 436.226502 103.683886 
L 431.76833 101.474356 
L 427.178998 99.552029 
L 422.476983 97.924646 
L 417.681221 96.59876 
L 412.811021 95.579709 
L 407.885994 94.871597 
L 402.925971 94.477275 
L 397.950925 94.398331 
L 392.980889 94.635083 
L 388.035875 95.186578 
L 383.135794 96.050594 
L 378.300378 97.223654 
L 373.549098 98.701032 
L 368.901084 100.476781 
L 364.375054 102.54375 
L 359.989231 104.893616 
L 355.761276 107.516917 
L 351.708213 110.40309 
L 347.846362 113.540513 
L 344.191275 116.916554 
L 340.757668 120.517617 
L 337.559368 124.329203 
L 334.609252 128.335964 
L 331.919201 132.521765 
L 329.500045 136.869753 
L 327.361526 141.36242 
L 325.512256 145.981674 
L 323.95968 150.708917 
L 322.71005 155.525112 
L 321.768398 160.410867 
L 321.138515 165.346509 
L 320.822938 170.312164 
L 320.822938 175.287836 
L 321.138515 180.253491 
L 321.768398 185.189133 
L 322.71005 190.074888 
L 323.95968 194.891083 
L 325.512256 199.618326 
L 327.361526 204.23758 
L 329.500045 208.730247 
L 331.919201 213.078235 
L 334.609252 217.264036 
L 337.559368 221.270797 
L 340.757668 225.082383 
L 344.191275 228.683446 
L 347.846362 232.059487 
L 351.708213 235.19691 
L 355.761276 238.083083 
L 359.989231 240.706384 
L 364.375054 243.05625 
L 368.901084 245.123219 
L 373.549098 246.898968 
L 378.300378 248.376346 
L 383.135794 249.549406 
L 388.035875 250.413422 
L 392.980889 250.964917 
L 397.950925 251.201669 
L 402.925971 251.122725 
L 407.885994 250.728403 
L 412.811021 250.020291 
L 417.681221 249.00124 
L 422.476983 247.675354 
L 427.178998 246.047971 
L 431.76833 244.125644 
L 436.226502 241.916114 
L 440.53556 239.428278 
L 444.678155 236.672154 
L 448.637605 233.658838 
L 452.397967 230.400466 
L 455.944099 226.910157 
L 459.261723 223.201965 
L 462.33748 219.290823 
L 465.158984 215.192478 
L 467.714874 210.923434 
L 469.994859 206.50088 
L 471.989758 201.942625 
L 473.691538 197.267023 
L 475.093347 192.4929 
L 476.18954 187.639481 
L 476.975703 182.726309 
L 477.448671 177.773167 
L 477.606538 172.8 
" clip-path="url(#pc55e7332c5)" style="fill: none; stroke: #000000; stroke-width: 3; stroke-linecap: square"/>
   </g>
   <g id="PathCollection_5">
    <g clip-path="url(#pc55e7332c5)">
     <use xlink:href="#mf55aa1118a" x="395.500455" y="170.710421" style="fill: #808080; stroke: #000000"/>
    </g>
   </g>
   <g id="PathCollection_6">
    <g clip-path="url(#pc55e7332c5)">
     <use xlink:href="#mf55aa1118a" x="633.640469" y="701.180353" style="fill: #808080; stroke: #000000"/>
    </g>
   </g>
   <g id="PathCollection_7">
    <g clip-path="url(#pc55e7332c5)">
     <use xlink:href="#mf55aa1118a" x="416.086061" y="204.159037" style="fill: #808080; stroke: #000000"/>
    </g>
   </g>
   <g id="PathCollection_8">
    <g clip-path="url(#pc55e7332c5)">
     <use xlink:href="#m0c83acdfe0" x="416.086061" y="204.159037" style="fill: #00ffff; stroke: #000000"/>
    </g>
   </g>
  </g>
  <g id="axes_3">
   <g id="patch_6">
    <path d="M 761.53 172.8 
C 761.53 159.414018 758.893254 146.158199 753.77066 133.791164 
C 748.648067 121.42413 741.139248 110.186389 731.67393 100.72107 
C 722.208611 91.255752 710.97087 83.746933 698.603836 78.62434 
C 686.236801 73.501746 672.980982 70.865 659.595 70.865 
C 646.209018 70.865 632.953199 73.501746 620.586164 78.62434 
C 608.21913 83.746933 596.981389 91.255752 587.51607 100.72107 
C 578.050752 110.186389 570.541933 121.42413 565.41934 133.791164 
C 560.296746 146.158199 557.66 159.414018 557.66 172.8 
C 557.66 186.185982 560.296746 199.441801 565.41934 211.808836 
C 570.541933 224.17587 578.050752 235.413611 587.51607 244.87893 
C 596.981389 254.344248 608.21913 261.853067 620.586164 266.97566 
C 632.953199 272.098254 646.209018 274.735 659.595 274.735 
C 672.980982 274.735 686.236801 272.098254 698.603836 266.97566 
C 710.97087 261.853067 722.208611 254.344248 731.67393 244.87893 
C 741.139248 235.413611 748.648067 224.17587 753.77066 211.808836 
C 758.893254 199.441801 761.53 186.185982 761.53 172.8 
M 659.595 172.8 
C 659.595 172.8 659.595 172.8 659.595 172.8 
C 659.595 172.8 659.595 172.8 659.595 172.8 
C 659.595 172.8 659.595 172.8 659.595 172.8 
C 659.595 172.8 659.595 172.8 659.595 172.8 
C 659.595 172.8 659.595 172.8 659.595 172.8 
C 659.595 172.8 659.595 172.8 659.595 172.8 
C 659.595 172.8 659.595 172.8 659.595 172.8 
C 659.595 172.8 659.595 172.8 659.595 172.8 
C 659.595 172.8 659.595 172.8 659.595 172.8 
C 659.595 172.8 659.595 172.8 659.595 172.8 
C 659.595 172.8 659.595 172.8 659.595 172.8 
C 659.595 172.8 659.595 172.8 659.595 172.8 
C 659.595 172.8 659.595 172.8 659.595 172.8 
C 659.595 172.8 659.595 172.8 659.595 172.8 
C 659.595 172.8 659.595 172.8 659.595 172.8 
C 659.595 172.8 659.595 172.8 659.595 172.8 
z
" style="fill: #ffffff"/>
   </g>
   <g id="FillBetweenPolyCollection_5">
    <defs>
     <path id="mb6d1f48374" d="M 738.006538 -172.8 
L 659.595 -172.8 
L 659.595 -172.8 
L 659.595 -172.8 
L 659.595 -172.8 
L 659.595 -172.8 
L 659.595 -172.8 
L 659.595 -172.8 
L 659.595 -172.8 
L 659.595 -172.8 
L 659.595 -172.8 
L 659.595 -172.8 
L 659.595 -172.8 
L 659.595 -172.8 
L 659.595 -172.8 
L 659.595 -172.8 
L 659.595 -172.8 
L 659.595 -172.8 
L 659.595 -172.8 
L 659.595 -172.8 
L 659.595 -172.8 
L 659.595 -172.8 
L 659.595 -172.8 
L 659.595 -172.8 
L 659.595 -172.8 
L 659.595 -172.8 
L 659.595 -172.8 
L 659.595 -172.8 
L 659.595 -172.8 
L 659.595 -172.8 
L 659.595 -172.8 
L 659.595 -172.8 
L 659.595 -172.8 
L 659.595 -172.8 
L 659.595 -172.8 
L 659.595 -172.8 
L 659.595 -172.8 
L 659.595 -172.8 
L 659.595 -172.8 
L 659.595 -172.8 
L 659.595 -172.8 
L 659.595 -172.8 
L 659.595 -172.8 
L 659.595 -172.8 
L 659.595 -172.8 
L 659.595 -172.8 
L 659.595 -172.8 
L 659.595 -172.8 
L 659.595 -172.8 
L 659.595 -172.8 
L 659.595 -172.8 
L 659.595 -172.8 
L 659.595 -172.8 
L 659.595 -172.8 
L 659.595 -172.8 
L 659.595 -172.8 
L 659.595 -172.8 
L 659.595 -172.8 
L 659.595 -172.8 
L 659.595 -172.8 
L 659.595 -172.8 
L 659.595 -172.8 
L 659.595 -172.8 
L 659.595 -172.8 
L 659.595 -172.8 
L 659.595 -172.8 
L 659.595 -172.8 
L 659.595 -172.8 
L 659.595 -172.8 
L 659.595 -172.8 
L 659.595 -172.8 
L 659.595 -172.8 
L 659.595 -172.8 
L 659.595 -172.8 
L 659.595 -172.8 
L 659.595 -172.8 
L 659.595 -172.8 
L 659.595 -172.8 
L 659.595 -172.8 
L 659.595 -172.8 
L 659.595 -172.8 
L 659.595 -172.8 
L 659.595 -172.8 
L 659.595 -172.8 
L 659.595 -172.8 
L 659.595 -172.8 
L 659.595 -172.8 
L 659.595 -172.8 
L 659.595 -172.8 
L 659.595 -172.8 
L 659.595 -172.8 
L 659.595 -172.8 
L 659.595 -172.8 
L 659.595 -172.8 
L 659.595 -172.8 
L 659.595 -172.8 
L 659.595 -172.8 
L 659.595 -172.8 
L 659.595 -172.8 
L 659.595 -172.8 
L 659.595 -172.8 
L 738.006538 -172.8 
L 738.006538 -172.8 
L 737.848671 -167.826833 
L 737.375703 -162.873691 
L 736.58954 -157.960519 
L 735.493347 -153.1071 
L 734.091538 -148.332977 
L 732.389758 -143.657375 
L 730.394859 -139.09912 
L 728.114874 -134.676566 
L 725.558984 -130.407522 
L 722.73748 -126.309177 
L 719.661723 -122.398035 
L 716.344099 -118.689843 
L 712.797967 -115.199534 
L 709.037605 -111.941162 
L 705.078155 -108.927846 
L 700.93556 -106.171722 
L 696.626502 -103.683886 
L 692.16833 -101.474356 
L 687.578998 -99.552029 
L 682.876983 -97.924646 
L 678.081221 -96.59876 
L 673.211021 -95.579709 
L 668.285994 -94.871597 
L 663.325971 -94.477275 
L 658.350925 -94.398331 
L 653.380889 -94.635083 
L 648.435875 -95.186578 
L 643.535794 -96.050594 
L 638.700378 -97.223654 
L 633.949098 -98.701032 
L 629.301084 -100.476781 
L 624.775054 -102.54375 
L 620.389231 -104.893616 
L 616.161276 -107.516917 
L 612.108213 -110.40309 
L 608.246362 -113.540513 
L 604.591275 -116.916554 
L 601.157668 -120.517617 
L 597.959368 -124.329203 
L 595.009252 -128.335964 
L 592.319201 -132.521765 
L 589.900045 -136.869753 
L 587.761526 -141.36242 
L 585.912256 -145.981674 
L 584.35968 -150.708917 
L 583.11005 -155.525112 
L 582.168398 -160.410867 
L 581.538515 -165.346509 
L 581.222938 -170.312164 
L 581.222938 -175.287836 
L 581.538515 -180.253491 
L 582.168398 -185.189133 
L 583.11005 -190.074888 
L 584.35968 -194.891083 
L 585.912256 -199.618326 
L 587.761526 -204.23758 
L 589.900045 -208.730247 
L 592.319201 -213.078235 
L 595.009252 -217.264036 
L 597.959368 -221.270797 
L 601.157668 -225.082383 
L 604.591275 -228.683446 
L 608.246362 -232.059487 
L 612.108213 -235.19691 
L 616.161276 -238.083083 
L 620.389231 -240.706384 
L 624.775054 -243.05625 
L 629.301084 -245.123219 
L 633.949098 -246.898968 
L 638.700378 -248.376346 
L 643.535794 -249.549406 
L 648.435875 -250.413422 
L 653.380889 -250.964917 
L 658.350925 -251.201669 
L 663.325971 -251.122725 
L 668.285994 -250.728403 
L 673.211021 -250.020291 
L 678.081221 -249.00124 
L 682.876983 -247.675354 
L 687.578998 -246.047971 
L 692.16833 -244.125644 
L 696.626502 -241.916114 
L 700.93556 -239.428278 
L 705.078155 -236.672154 
L 709.037605 -233.658838 
L 712.797967 -230.400466 
L 716.344099 -226.910157 
L 719.661723 -223.201965 
L 722.73748 -219.290823 
L 725.558984 -215.192478 
L 728.114874 -210.923434 
L 730.394859 -206.50088 
L 732.389758 -201.942625 
L 734.091538 -197.267023 
L 735.493347 -192.4929 
L 736.58954 -187.639481 
L 737.375703 -182.726309 
L 737.848671 -177.773167 
L 738.006538 -172.8 
z
" style="stroke: #008000; stroke-opacity: 0.1"/>
    </defs>
    <g clip-path="url(#p5eb4d84583)">
     <use xlink:href="#mb6d1f48374" x="0" y="345.6" style="fill: #008000; fill-opacity: 0.1; stroke: #008000; stroke-opacity: 0.1"/>
    </g>
   </g>
   <g id="FillBetweenPolyCollection_6">
    <defs>
     <path id="m7ec3738717" d="M 761.53 -172.8 
L 738.006538 -172.8 
L 737.848671 -177.773167 
L 737.375703 -182.726309 
L 736.58954 -187.639481 
L 735.493347 -192.4929 
L 734.091538 -197.267023 
L 732.389758 -201.942625 
L 730.394859 -206.50088 
L 728.114874 -210.923434 
L 725.558984 -215.192478 
L 722.73748 -219.290823 
L 719.661723 -223.201965 
L 716.344099 -226.910157 
L 712.797967 -230.400466 
L 709.037605 -233.658838 
L 705.078155 -236.672154 
L 700.93556 -239.428278 
L 696.626502 -241.916114 
L 692.16833 -244.125644 
L 687.578998 -246.047971 
L 682.876983 -247.675354 
L 678.081221 -249.00124 
L 673.211021 -250.020291 
L 668.285994 -250.728403 
L 663.325971 -251.122725 
L 658.350925 -251.201669 
L 653.380889 -250.964917 
L 648.435875 -250.413422 
L 643.535794 -249.549406 
L 638.700378 -248.376346 
L 633.949098 -246.898968 
L 629.301084 -245.123219 
L 624.775054 -243.05625 
L 620.389231 -240.706384 
L 616.161276 -238.083083 
L 612.108213 -235.19691 
L 608.246362 -232.059487 
L 604.591275 -228.683446 
L 601.157668 -225.082383 
L 597.959368 -221.270797 
L 595.009252 -217.264036 
L 592.319201 -213.078235 
L 589.900045 -208.730247 
L 587.761526 -204.23758 
L 585.912256 -199.618326 
L 584.35968 -194.891083 
L 583.11005 -190.074888 
L 582.168398 -185.189133 
L 581.538515 -180.253491 
L 581.222938 -175.287836 
L 581.222938 -170.312164 
L 581.538515 -165.346509 
L 582.168398 -160.410867 
L 583.11005 -155.525112 
L 584.35968 -150.708917 
L 585.912256 -145.981674 
L 587.761526 -141.36242 
L 589.900045 -136.869753 
L 592.319201 -132.521765 
L 595.009252 -128.335964 
L 597.959368 -124.329203 
L 601.157668 -120.517617 
L 604.591275 -116.916554 
L 608.246362 -113.540513 
L 612.108213 -110.40309 
L 616.161276 -107.516917 
L 620.389231 -104.893616 
L 624.775054 -102.54375 
L 629.301084 -100.476781 
L 633.949098 -98.701032 
L 638.700378 -97.223654 
L 643.535794 -96.050594 
L 648.435875 -95.186578 
L 653.380889 -94.635083 
L 658.350925 -94.398331 
L 663.325971 -94.477275 
L 668.285994 -94.871597 
L 673.211021 -95.579709 
L 678.081221 -96.59876 
L 682.876983 -97.924646 
L 687.578998 -99.552029 
L 692.16833 -101.474356 
L 696.626502 -103.683886 
L 700.93556 -106.171722 
L 705.078155 -108.927846 
L 709.037605 -111.941162 
L 712.797967 -115.199534 
L 716.344099 -118.689843 
L 719.661723 -122.398035 
L 722.73748 -126.309177 
L 725.558984 -130.407522 
L 728.114874 -134.676566 
L 730.394859 -139.09912 
L 732.389758 -143.657375 
L 734.091538 -148.332977 
L 735.493347 -153.1071 
L 736.58954 -157.960519 
L 737.375703 -162.873691 
L 737.848671 -167.826833 
L 738.006538 -172.8 
L 761.53 -172.8 
L 761.53 -172.8 
L 761.324772 -166.334883 
L 760.709914 -159.895798 
L 759.687902 -153.508674 
L 758.262851 -147.19923 
L 756.440499 -140.992871 
L 754.228185 -134.914588 
L 751.634817 -128.988856 
L 748.670836 -123.239536 
L 745.348179 -117.689778 
L 741.680224 -112.36193 
L 737.68174 -107.277445 
L 733.368829 -102.456796 
L 728.758857 -97.919394 
L 723.870386 -93.68351 
L 718.723101 -89.7662 
L 713.337728 -86.183238 
L 707.735952 -82.949051 
L 701.940329 -80.076663 
L 695.974197 -77.577638 
L 689.861578 -75.46204 
L 683.627087 -73.738388 
L 677.295827 -72.413622 
L 670.893292 -71.493076 
L 664.445263 -70.980458 
L 657.977703 -70.877831 
L 651.516656 -71.185608 
L 645.088137 -71.902551 
L 638.718032 -73.025773 
L 632.431992 -74.55075 
L 626.255327 -76.471342 
L 620.21291 -78.779815 
L 614.32907 -81.466875 
L 608.6275 -84.5217 
L 603.131158 -87.931992 
L 597.862177 -91.684017 
L 592.841771 -95.762667 
L 588.090157 -100.15152 
L 583.626468 -104.832902 
L 579.468678 -109.787964 
L 575.633528 -114.996753 
L 572.136461 -120.438295 
L 568.991559 -126.09068 
L 566.211484 -131.931146 
L 563.807433 -137.936177 
L 561.789084 -144.081592 
L 560.164565 -150.342646 
L 558.940417 -156.694128 
L 558.12157 -163.110462 
L 557.71132 -169.565813 
L 557.71132 -176.034187 
L 558.12157 -182.489538 
L 558.940417 -188.905872 
L 560.164565 -195.257354 
L 561.789084 -201.518408 
L 563.807433 -207.663823 
L 566.211484 -213.668854 
L 568.991559 -219.50932 
L 572.136461 -225.161705 
L 575.633528 -230.603247 
L 579.468678 -235.812036 
L 583.626468 -240.767098 
L 588.090157 -245.44848 
L 592.841771 -249.837333 
L 597.862177 -253.915983 
L 603.131158 -257.668008 
L 608.6275 -261.0783 
L 614.32907 -264.133125 
L 620.21291 -266.820185 
L 626.255327 -269.128658 
L 632.431992 -271.04925 
L 638.718032 -272.574227 
L 645.088137 -273.697449 
L 651.516656 -274.414392 
L 657.977703 -274.722169 
L 664.445263 -274.619542 
L 670.893292 -274.106924 
L 677.295827 -273.186378 
L 683.627087 -271.861612 
L 689.861578 -270.13796 
L 695.974197 -268.022362 
L 701.940329 -265.523337 
L 707.735952 -262.650949 
L 713.337728 -259.416762 
L 718.723101 -255.8338 
L 723.870386 -251.91649 
L 728.758857 -247.680606 
L 733.368829 -243.143204 
L 737.68174 -238.322555 
L 741.680224 -233.23807 
L 745.348179 -227.910222 
L 748.670836 -222.360464 
L 751.634817 -216.611144 
L 754.228185 -210.685412 
L 756.440499 -204.607129 
L 758.262851 -198.40077 
L 759.687902 -192.091326 
L 760.709914 -185.704202 
L 761.324772 -179.265117 
L 761.53 -172.8 
z
" style="stroke: #ff0000; stroke-opacity: 0.1"/>
    </defs>
    <g clip-path="url(#p5eb4d84583)">
     <use xlink:href="#m7ec3738717" x="0" y="345.6" style="fill: #ff0000; fill-opacity: 0.1; stroke: #ff0000; stroke-opacity: 0.1"/>
    </g>
   </g>
   <g id="matplotlib.axis_5">
    <g id="xtick_17">
     <g id="line2d_25">
      <path d="M 659.595 172.8 
L 761.53 172.8 
" clip-path="url(#p5eb4d84583)" style="fill: none; stroke: #b0b0b0; stroke-width: 0.8; stroke-linecap: square"/>
     </g>
     <g id="text_23">
      <!-- 0° -->
      <g transform="translate(769.84875 175.559375) scale(0.1 -0.1)">
       <use xlink:href="#DejaVuSans-30"/>
       <use xlink:href="#DejaVuSans-b0" transform="translate(63.623047 0)"/>
      </g>
     </g>
    </g>
    <g id="xtick_18">
     <g id="line2d_26">
      <path d="M 659.595 172.8 
L 731.67393 100.72107 
" clip-path="url(#p5eb4d84583)" style="fill: none; stroke: #b0b0b0; stroke-width: 0.8; stroke-linecap: square"/>
     </g>
     <g id="text_24">
      <!-- 45° -->
      <g transform="translate(732.710925 93.58095) scale(0.1 -0.1)">
       <use xlink:href="#DejaVuSans-34"/>
       <use xlink:href="#DejaVuSans-35" transform="translate(63.623047 0)"/>
       <use xlink:href="#DejaVuSans-b0" transform="translate(127.246094 0)"/>
      </g>
     </g>
    </g>
    <g id="xtick_19">
     <g id="line2d_27">
      <path d="M 659.595 172.8 
L 659.595 70.865 
" clip-path="url(#p5eb4d84583)" style="fill: none; stroke: #b0b0b0; stroke-width: 0.8; stroke-linecap: square"/>
     </g>
     <g id="text_25">
      <!-- 90° -->
      <g transform="translate(650.7325 59.624375) scale(0.1 -0.1)">
       <use xlink:href="#DejaVuSans-39"/>
       <use xlink:href="#DejaVuSans-30" transform="translate(63.623047 0)"/>
       <use xlink:href="#DejaVuSans-b0" transform="translate(127.246094 0)"/>
      </g>
     </g>
    </g>
    <g id="xtick_20">
     <g id="line2d_28">
      <path d="M 659.595 172.8 
L 587.51607 100.72107 
" clip-path="url(#p5eb4d84583)" style="fill: none; stroke: #b0b0b0; stroke-width: 0.8; stroke-linecap: square"/>
     </g>
     <g id="text_26">
      <!-- 135° -->
      <g transform="translate(565.572825 93.58095) scale(0.1 -0.1)">
       <use xlink:href="#DejaVuSans-31"/>
       <use xlink:href="#DejaVuSans-33" transform="translate(63.623047 0)"/>
       <use xlink:href="#DejaVuSans-35" transform="translate(127.246094 0)"/>
       <use xlink:href="#DejaVuSans-b0" transform="translate(190.869141 0)"/>
      </g>
     </g>
    </g>
    <g id="xtick_21">
     <g id="line2d_29">
      <path d="M 659.595 172.8 
L 557.66 172.8 
" clip-path="url(#p5eb4d84583)" style="fill: none; stroke: #b0b0b0; stroke-width: 0.8; stroke-linecap: square"/>
     </g>
     <g id="text_27">
      <!-- 180° -->
      <g transform="translate(531.61625 175.559375) scale(0.1 -0.1)">
       <use xlink:href="#DejaVuSans-31"/>
       <use xlink:href="#DejaVuSans-38" transform="translate(63.623047 0)"/>
       <use xlink:href="#DejaVuSans-30" transform="translate(127.246094 0)"/>
       <use xlink:href="#DejaVuSans-b0" transform="translate(190.869141 0)"/>
      </g>
     </g>
    </g>
    <g id="xtick_22">
     <g id="line2d_30">
      <path d="M 659.595 172.8 
L 587.51607 244.87893 
" clip-path="url(#p5eb4d84583)" style="fill: none; stroke: #b0b0b0; stroke-width: 0.8; stroke-linecap: square"/>
     </g>
     <g id="text_28">
      <!-- 225° -->
      <g transform="translate(565.572825 257.5378) scale(0.1 -0.1)">
       <use xlink:href="#DejaVuSans-32"/>
       <use xlink:href="#DejaVuSans-32" transform="translate(63.623047 0)"/>
       <use xlink:href="#DejaVuSans-35" transform="translate(127.246094 0)"/>
       <use xlink:href="#DejaVuSans-b0" transform="translate(190.869141 0)"/>
      </g>
     </g>
    </g>
    <g id="xtick_23">
     <g id="line2d_31">
      <path d="M 659.595 172.8 
L 659.595 274.735 
" clip-path="url(#p5eb4d84583)" style="fill: none; stroke: #b0b0b0; stroke-width: 0.8; stroke-linecap: square"/>
     </g>
     <g id="text_29">
      <!-- 270° -->
      <g transform="translate(647.55125 291.494375) scale(0.1 -0.1)">
       <use xlink:href="#DejaVuSans-32"/>
       <use xlink:href="#DejaVuSans-37" transform="translate(63.623047 0)"/>
       <use xlink:href="#DejaVuSans-30" transform="translate(127.246094 0)"/>
       <use xlink:href="#DejaVuSans-b0" transform="translate(190.869141 0)"/>
      </g>
     </g>
    </g>
    <g id="xtick_24">
     <g id="line2d_32">
      <path d="M 659.595 172.8 
L 731.67393 244.87893 
" clip-path="url(#p5eb4d84583)" style="fill: none; stroke: #b0b0b0; stroke-width: 0.8; stroke-linecap: square"/>
     </g>
     <g id="text_30">
      <!-- 315° -->
      <g transform="translate(729.529675 257.5378) scale(0.1 -0.1)">
       <use xlink:href="#DejaVuSans-33"/>
       <use xlink:href="#DejaVuSans-31" transform="translate(63.623047 0)"/>
       <use xlink:href="#DejaVuSans-35" transform="translate(127.246094 0)"/>
       <use xlink:href="#DejaVuSans-b0" transform="translate(190.869141 0)"/>
      </g>
     </g>
    </g>
   </g>
   <g id="matplotlib.axis_6">
    <g id="ytick_7">
     <g id="line2d_33">
      <path d="M 698.800769 172.8 
C 698.800769 167.651546 697.786636 162.553153 695.816408 157.796602 
C 693.84618 153.04005 690.958172 148.717842 687.317665 145.077335 
C 683.677158 141.436828 679.35495 138.54882 674.598398 136.578592 
C 669.841847 134.608364 664.743454 133.594231 659.595 133.594231 
C 654.446546 133.594231 649.348153 134.608364 644.591602 136.578592 
C 639.83505 138.54882 635.512842 141.436828 631.872335 145.077335 
C 628.231828 148.717842 625.34382 153.04005 623.373592 157.796602 
C 621.403364 162.553153 620.389231 167.651546 620.389231 172.8 
C 620.389231 177.948454 621.403364 183.046847 623.373592 187.803398 
C 625.34382 192.55995 628.231828 196.882158 631.872335 200.522665 
C 635.512842 204.163172 639.83505 207.05118 644.591602 209.021408 
C 649.348153 210.991636 654.446546 212.005769 659.595 212.005769 
C 664.743454 212.005769 669.841847 210.991636 674.598398 209.021408 
C 679.35495 207.05118 683.677158 204.163172 687.317665 200.522665 
C 690.958172 196.882158 693.84618 192.55995 695.816408 187.803398 
C 697.786636 183.046847 698.800769 177.948454 698.800769 172.8 
" clip-path="url(#p5eb4d84583)" style="fill: none; stroke: #b0b0b0; stroke-width: 0.8; stroke-linecap: square"/>
     </g>
     <g id="text_31">
      <!-- 0.5 -->
      <g transform="translate(620.389231 170.720312) scale(0.1 -0.1)">
       <use xlink:href="#DejaVuSans-30"/>
       <use xlink:href="#DejaVuSans-2e" transform="translate(63.623047 0)"/>
       <use xlink:href="#DejaVuSans-35" transform="translate(95.410156 0)"/>
      </g>
     </g>
    </g>
    <g id="ytick_8">
     <g id="line2d_34">
      <path d="M 738.006538 172.8 
C 738.006538 162.503091 735.978272 152.306307 732.037815 142.793203 
C 728.097359 133.2801 722.321345 124.635684 715.040331 117.354669 
C 707.759316 110.073655 699.1149 104.297641 689.601797 100.357185 
C 680.088693 96.416728 669.891909 94.388462 659.595 94.388462 
C 649.298091 94.388462 639.101307 96.416728 629.588203 100.357185 
C 620.0751 104.297641 611.430684 110.073655 604.149669 117.354669 
C 596.868655 124.635684 591.092641 133.2801 587.152185 142.793203 
C 583.211728 152.306307 581.183462 162.503091 581.183462 172.8 
C 581.183462 183.096909 583.211728 193.293693 587.152185 202.806797 
C 591.092641 212.3199 596.868655 220.964316 604.149669 228.245331 
C 611.430684 235.526345 620.0751 241.302359 629.588203 245.242815 
C 639.101307 249.183272 649.298091 251.211538 659.595 251.211538 
C 669.891909 251.211538 680.088693 249.183272 689.601797 245.242815 
C 699.1149 241.302359 707.759316 235.526345 715.040331 228.245331 
C 722.321345 220.964316 728.097359 212.3199 732.037815 202.806797 
C 735.978272 193.293693 738.006538 183.096909 738.006538 172.8 
" clip-path="url(#p5eb4d84583)" style="fill: none; stroke: #b0b0b0; stroke-width: 0.8; stroke-linecap: square"/>
     </g>
     <g id="text_32">
      <!-- 1.0 -->
      <g transform="translate(581.183462 170.720312) scale(0.1 -0.1)">
       <use xlink:href="#DejaVuSans-31"/>
       <use xlink:href="#DejaVuSans-2e" transform="translate(63.623047 0)"/>
       <use xlink:href="#DejaVuSans-30" transform="translate(95.410156 0)"/>
      </g>
     </g>
    </g>
    <g id="ytick_9">
     <g id="line2d_35">
      <path d="M 761.53 172.8 
C 761.53 159.414018 758.893254 146.158199 753.77066 133.791164 
C 748.648067 121.42413 741.139248 110.186389 731.67393 100.72107 
C 722.208611 91.255752 710.97087 83.746933 698.603836 78.62434 
C 686.236801 73.501746 672.980982 70.865 659.595 70.865 
C 646.209018 70.865 632.953199 73.501746 620.586164 78.62434 
C 608.21913 83.746933 596.981389 91.255752 587.51607 100.72107 
C 578.050752 110.186389 570.541933 121.42413 565.41934 133.791164 
C 560.296746 146.158199 557.66 159.414018 557.66 172.8 
C 557.66 186.185982 560.296746 199.441801 565.41934 211.808836 
C 570.541933 224.17587 578.050752 235.413611 587.51607 244.87893 
C 596.981389 254.344248 608.21913 261.853067 620.586164 266.97566 
C 632.953199 272.098254 646.209018 274.735 659.595 274.735 
C 672.980982 274.735 686.236801 272.098254 698.603836 266.97566 
C 710.97087 261.853067 722.208611 254.344248 731.67393 244.87893 
C 741.139248 235.413611 748.648067 224.17587 753.77066 211.808836 
C 758.893254 199.441801 761.53 186.185982 761.53 172.8 
" clip-path="url(#p5eb4d84583)" style="fill: none; stroke: #b0b0b0; stroke-width: 0.8; stroke-linecap: square"/>
     </g>
     <g id="text_33">
      <!-- 1.3 -->
      <g transform="translate(557.66 170.720312) scale(0.1 -0.1)">
       <use xlink:href="#DejaVuSans-31"/>
       <use xlink:href="#DejaVuSans-2e" transform="translate(63.623047 0)"/>
       <use xlink:href="#DejaVuSans-33" transform="translate(95.410156 0)"/>
      </g>
     </g>
    </g>
   </g>
   <g id="patch_7">
    <path d="M 761.53 172.8 
C 761.53 159.414018 758.893254 146.158199 753.77066 133.791164 
C 748.648067 121.42413 741.139248 110.186389 731.67393 100.72107 
C 722.208611 91.255752 710.97087 83.746933 698.603836 78.62434 
C 686.236801 73.501746 672.980982 70.865 659.595 70.865 
C 646.209018 70.865 632.953199 73.501746 620.586164 78.62434 
C 608.21913 83.746933 596.981389 91.255752 587.51607 100.72107 
C 578.050752 110.186389 570.541933 121.42413 565.41934 133.791164 
C 560.296746 146.158199 557.66 159.414018 557.66 172.8 
C 557.66 186.185982 560.296746 199.441801 565.41934 211.808836 
C 570.541933 224.17587 578.050752 235.413611 587.51607 244.87893 
C 596.981389 254.344248 608.21913 261.853067 620.586164 266.97566 
C 632.953199 272.098254 646.209018 274.735 659.595 274.735 
C 672.980982 274.735 686.236801 272.098254 698.603836 266.97566 
C 710.97087 261.853067 722.208611 254.344248 731.67393 244.87893 
C 741.139248 235.413611 748.648067 224.17587 753.77066 211.808836 
C 758.893254 199.441801 761.53 186.185982 761.53 172.8 
" style="fill: none; stroke: #000000; stroke-width: 0.8; stroke-linejoin: miter; stroke-linecap: square"/>
   </g>
   <g id="line2d_36">
    <path d="M 738.006538 172.8 
L 737.848671 167.826833 
L 737.375703 162.873691 
L 736.58954 157.960519 
L 735.493347 153.1071 
L 734.091538 148.332977 
L 732.389758 143.657375 
L 730.394859 139.09912 
L 728.114874 134.676566 
L 725.558984 130.407522 
L 722.73748 126.309177 
L 719.661723 122.398035 
L 716.344099 118.689843 
L 712.797967 115.199534 
L 709.037605 111.941162 
L 705.078155 108.927846 
L 700.93556 106.171722 
L 696.626502 103.683886 
L 692.16833 101.474356 
L 687.578998 99.552029 
L 682.876983 97.924646 
L 678.081221 96.59876 
L 673.211021 95.579709 
L 668.285994 94.871597 
L 663.325971 94.477275 
L 658.350925 94.398331 
L 653.380889 94.635083 
L 648.435875 95.186578 
L 643.535794 96.050594 
L 638.700378 97.223654 
L 633.949098 98.701032 
L 629.301084 100.476781 
L 624.775054 102.54375 
L 620.389231 104.893616 
L 616.161276 107.516917 
L 612.108213 110.40309 
L 608.246362 113.540513 
L 604.591275 116.916554 
L 601.157668 120.517617 
L 597.959368 124.329203 
L 595.009252 128.335964 
L 592.319201 132.521765 
L 589.900045 136.869753 
L 587.761526 141.36242 
L 585.912256 145.981674 
L 584.35968 150.708917 
L 583.11005 155.525112 
L 582.168398 160.410867 
L 581.538515 165.346509 
L 581.222938 170.312164 
L 581.222938 175.287836 
L 581.538515 180.253491 
L 582.168398 185.189133 
L 583.11005 190.074888 
L 584.35968 194.891083 
L 585.912256 199.618326 
L 587.761526 204.23758 
L 589.900045 208.730247 
L 592.319201 213.078235 
L 595.009252 217.264036 
L 597.959368 221.270797 
L 601.157668 225.082383 
L 604.591275 228.683446 
L 608.246362 232.059487 
L 612.108213 235.19691 
L 616.161276 238.083083 
L 620.389231 240.706384 
L 624.775054 243.05625 
L 629.301084 245.123219 
L 633.949098 246.898968 
L 638.700378 248.376346 
L 643.535794 249.549406 
L 648.435875 250.413422 
L 653.380889 250.964917 
L 658.350925 251.201669 
L 663.325971 251.122725 
L 668.285994 250.728403 
L 673.211021 250.020291 
L 678.081221 249.00124 
L 682.876983 247.675354 
L 687.578998 246.047971 
L 692.16833 244.125644 
L 696.626502 241.916114 
L 700.93556 239.428278 
L 705.078155 236.672154 
L 709.037605 233.658838 
L 712.797967 230.400466 
L 716.344099 226.910157 
L 719.661723 223.201965 
L 722.73748 219.290823 
L 725.558984 215.192478 
L 728.114874 210.923434 
L 730.394859 206.50088 
L 732.389758 201.942625 
L 734.091538 197.267023 
L 735.493347 192.4929 
L 736.58954 187.639481 
L 737.375703 182.726309 
L 737.848671 177.773167 
L 738.006538 172.8 
" clip-path="url(#p5eb4d84583)" style="fill: none; stroke: #000000; stroke-width: 3; stroke-linecap: square"/>
   </g>
   <g id="PathCollection_9">
    <g clip-path="url(#p5eb4d84583)"/>
   </g>
   <g id="PathCollection_10">
    <g clip-path="url(#p5eb4d84583)">
     <use xlink:href="#mf55aa1118a" x="655.528839" y="163.914296" style="fill: #808080; stroke: #000000"/>
    </g>
   </g>
   <g id="PathCollection_11">
    <g clip-path="url(#p5eb4d84583)">
     <use xlink:href="#mf55aa1118a" x="651.581623" y="155.286638" style="fill: #808080; stroke: #000000"/>
    </g>
   </g>
   <g id="PathCollection_12">
    <g clip-path="url(#p5eb4d84583)">
     <use xlink:href="#m0c83acdfe0" x="651.581623" y="155.286638" style="fill: #00ffff; stroke: #000000"/>
    </g>
   </g>
  </g>
 </g>
 <defs>
  <clipPath id="p28d09d4da1">
   <path d="M 240.73 172.8 
C 240.73 159.414018 238.093254 146.158199 232.97066 133.791164 
C 227.848067 121.42413 220.339248 110.186389 210.87393 100.72107 
C 201.408611 91.255752 190.17087 83.746933 177.803836 78.62434 
C 165.436801 73.501746 152.180982 70.865 138.795 70.865 
C 125.409018 70.865 112.153199 73.501746 99.786164 78.62434 
C 87.41913 83.746933 76.181389 91.255752 66.71607 100.72107 
C 57.250752 110.186389 49.741933 121.42413 44.61934 133.791164 
C 39.496746 146.158199 36.86 159.414018 36.86 172.8 
C 36.86 186.185982 39.496746 199.441801 44.61934 211.808836 
C 49.741933 224.17587 57.250752 235.413611 66.71607 244.87893 
C 76.181389 254.344248 87.41913 261.853067 99.786164 266.97566 
C 112.153199 272.098254 125.409018 274.735 138.795 274.735 
C 152.180982 274.735 165.436801 272.098254 177.803836 266.97566 
C 190.17087 261.853067 201.408611 254.344248 210.87393 244.87893 
C 220.339248 235.413611 227.848067 224.17587 232.97066 211.808836 
C 238.093254 199.441801 240.73 186.185982 240.73 172.8 
M 138.795 172.8 
C 138.795 172.8 138.795 172.8 138.795 172.8 
C 138.795 172.8 138.795 172.8 138.795 172.8 
C 138.795 172.8 138.795 172.8 138.795 172.8 
C 138.795 172.8 138.795 172.8 138.795 172.8 
C 138.795 172.8 138.795 172.8 138.795 172.8 
C 138.795 172.8 138.795 172.8 138.795 172.8 
C 138.795 172.8 138.795 172.8 138.795 172.8 
C 138.795 172.8 138.795 172.8 138.795 172.8 
C 138.795 172.8 138.795 172.8 138.795 172.8 
C 138.795 172.8 138.795 172.8 138.795 172.8 
C 138.795 172.8 138.795 172.8 138.795 172.8 
C 138.795 172.8 138.795 172.8 138.795 172.8 
C 138.795 172.8 138.795 172.8 138.795 172.8 
C 138.795 172.8 138.795 172.8 138.795 172.8 
C 138.795 172.8 138.795 172.8 138.795 172.8 
C 138.795 172.8 138.795 172.8 138.795 172.8 
z
"/>
  </clipPath>
  <clipPath id="pc55e7332c5">
   <path d="M 501.13 172.8 
C 501.13 159.414018 498.493254 146.158199 493.37066 133.791164 
C 488.248067 121.42413 480.739248 110.186389 471.27393 100.72107 
C 461.808611 91.255752 450.57087 83.746933 438.203836 78.62434 
C 425.836801 73.501746 412.580982 70.865 399.195 70.865 
C 385.809018 70.865 372.553199 73.501746 360.186164 78.62434 
C 347.81913 83.746933 336.581389 91.255752 327.11607 100.72107 
C 317.650752 110.186389 310.141933 121.42413 305.01934 133.791164 
C 299.896746 146.158199 297.26 159.414018 297.26 172.8 
C 297.26 186.185982 299.896746 199.441801 305.01934 211.808836 
C 310.141933 224.17587 317.650752 235.413611 327.11607 244.87893 
C 336.581389 254.344248 347.81913 261.853067 360.186164 266.97566 
C 372.553199 272.098254 385.809018 274.735 399.195 274.735 
C 412.580982 274.735 425.836801 272.098254 438.203836 266.97566 
C 450.57087 261.853067 461.808611 254.344248 471.27393 244.87893 
C 480.739248 235.413611 488.248067 224.17587 493.37066 211.808836 
C 498.493254 199.441801 501.13 186.185982 501.13 172.8 
M 399.195 172.8 
C 399.195 172.8 399.195 172.8 399.195 172.8 
C 399.195 172.8 399.195 172.8 399.195 172.8 
C 399.195 172.8 399.195 172.8 399.195 172.8 
C 399.195 172.8 399.195 172.8 399.195 172.8 
C 399.195 172.8 399.195 172.8 399.195 172.8 
C 399.195 172.8 399.195 172.8 399.195 172.8 
C 399.195 172.8 399.195 172.8 399.195 172.8 
C 399.195 172.8 399.195 172.8 399.195 172.8 
C 399.195 172.8 399.195 172.8 399.195 172.8 
C 399.195 172.8 399.195 172.8 399.195 172.8 
C 399.195 172.8 399.195 172.8 399.195 172.8 
C 399.195 172.8 399.195 172.8 399.195 172.8 
C 399.195 172.8 399.195 172.8 399.195 172.8 
C 399.195 172.8 399.195 172.8 399.195 172.8 
C 399.195 172.8 399.195 172.8 399.195 172.8 
C 399.195 172.8 399.195 172.8 399.195 172.8 
z
"/>
  </clipPath>
  <clipPath id="p5eb4d84583">
   <path d="M 761.53 172.8 
C 761.53 159.414018 758.893254 146.158199 753.77066 133.791164 
C 748.648067 121.42413 741.139248 110.186389 731.67393 100.72107 
C 722.208611 91.255752 710.97087 83.746933 698.603836 78.62434 
C 686.236801 73.501746 672.980982 70.865 659.595 70.865 
C 646.209018 70.865 632.953199 73.501746 620.586164 78.62434 
C 608.21913 83.746933 596.981389 91.255752 587.51607 100.72107 
C 578.050752 110.186389 570.541933 121.42413 565.41934 133.791164 
C 560.296746 146.158199 557.66 159.414018 557.66 172.8 
C 557.66 186.185982 560.296746 199.441801 565.41934 211.808836 
C 570.541933 224.17587 578.050752 235.413611 587.51607 244.87893 
C 596.981389 254.344248 608.21913 261.853067 620.586164 266.97566 
C 632.953199 272.098254 646.209018 274.735 659.595 274.735 
C 672.980982 274.735 686.236801 272.098254 698.603836 266.97566 
C 710.97087 261.853067 722.208611 254.344248 731.67393 244.87893 
C 741.139248 235.413611 748.648067 224.17587 753.77066 211.808836 
C 758.893254 199.441801 761.53 186.185982 761.53 172.8 
M 659.595 172.8 
C 659.595 172.8 659.595 172.8 659.595 172.8 
C 659.595 172.8 659.595 172.8 659.595 172.8 
C 659.595 172.8 659.595 172.8 659.595 172.8 
C 659.595 172.8 659.595 172.8 659.595 172.8 
C 659.595 172.8 659.595 172.8 659.595 172.8 
C 659.595 172.8 659.595 172.8 659.595 172.8 
C 659.595 172.8 659.595 172.8 659.595 172.8 
C 659.595 172.8 659.595 172.8 659.595 172.8 
C 659.595 172.8 659.595 172.8 659.595 172.8 
C 659.595 172.8 659.595 172.8 659.595 172.8 
C 659.595 172.8 659.595 172.8 659.595 172.8 
C 659.595 172.8 659.595 172.8 659.595 172.8 
C 659.595 172.8 659.595 172.8 659.595 172.8 
C 659.595 172.8 659.595 172.8 659.595 172.8 
C 659.595 172.8 659.595 172.8 659.595 172.8 
C 659.595 172.8 659.595 172.8 659.595 172.8 
z
"/>
  </clipPath>
 </defs>
</svg>
