<?xml version="1.0" encoding="utf-8" standalone="no"?>
<!DOCTYPE svg PUBLIC "-//W3C//DTD SVG 1.1//EN"
  "http://www.w3.org/Graphics/SVG/1.1/DTD/svg11.dtd">
<svg xmlns:xlink="http://www.w3.org/1999/xlink" width="504pt" height="288pt" viewBox="0 0 504 288" xmlns="http://www.w3.org/2000/svg" version="1.1">
 <metadata>
  <rdf:RDF xmlns:dc="http://purl.org/dc/elements/1.1/" xmlns:cc="http://creativecommons.org/ns#" xmlns:rdf="http://www.w3.org/1999/02/22-rdf-syntax-ns#">
   <cc:Work>
    <dc:type rdf:resource="http://purl.org/dc/dcmitype/StillImage"/>
    <dc:date>2025-02-26T04:23:51.284412</dc:date>
    <dc:format>image/svg+xml</dc:format>
    <dc:creator>
     <cc:Agent>
      <dc:title>Matplotlib v3.10.0, https://matplotlib.org/</dc:title>
     </cc:Agent>
    </dc:creator>
   </cc:Work>
  </rdf:RDF>
 </metadata>
 <defs>
  <style type="text/css">*{stroke-linejoin: round; stroke-linecap: butt}</style>
 </defs>
 <g id="figure_1">
  <g id="patch_1">
   <path d="M 0 288 
L 504 288 
L 504 0 
L 0 0 
z
" style="fill: #ffffff"/>
  </g>
  <g id="axes_1">
   <g id="patch_2">
    <path d="M 79.829231 246.04 
L 150.400729 246.04 
L 150.400729 26.88 
L 79.829231 26.88 
z
" style="fill: #ffffff"/>
   </g>
   <g id="patch_3">
    <path d="M 115.139215 151.870753 
C 115.138966 130.311259 115.138692 109.631884 115.138451 94.38702 
C 115.138211 79.142155 115.138024 70.576478 115.137933 70.576478 
C 115.137841 70.576478 115.137852 79.142155 115.137962 94.38702 
C 115.138073 109.631884 115.138275 130.311259 115.138523 151.870753 
C 115.138771 173.430246 115.139046 194.109622 115.139286 209.354486 
C 115.139527 224.59935 115.139713 233.165028 115.139805 233.165028 
C 115.139897 233.165028 115.139886 224.59935 115.139775 209.354486 
C 115.139665 194.109622 115.139463 173.430246 115.139215 151.870753 
L 115.139215 151.870753 
z
" clip-path="url(#p006f9f1491)" style="fill: none; stroke: #0000ff; stroke-width: 2; stroke-linejoin: miter"/>
   </g>
   <g id="patch_4">
    <path d="M 115.138869 50.537885 
C 116.954988 50.537885 118.696969 49.816333 119.98116 48.532143 
C 121.26535 47.247952 121.986902 45.505971 121.986902 43.689852 
C 121.986902 41.873732 121.26535 40.131751 119.98116 38.847561 
C 118.696969 37.56337 116.954988 36.841818 115.138869 36.841818 
C 113.322749 36.841818 111.580768 37.56337 110.296578 38.847561 
C 109.012387 40.131751 108.290835 41.873732 108.290835 43.689852 
C 108.290835 45.505971 109.012387 47.247952 110.296578 48.532143 
C 111.580768 49.816333 113.322749 50.537885 115.138869 50.537885 
L 115.138869 50.537885 
z
" clip-path="url(#p006f9f1491)" style="fill: none; stroke: #000000; stroke-linejoin: miter"/>
   </g>
   <g id="PathCollection_1">
    <defs>
     <path id="m34ee8635d5" d="M -2.236068 0 
L 2.236068 0 
M 0 2.236068 
L 0 -2.236068 
" style="stroke: #000000; stroke-width: 1.5"/>
    </defs>
    <g clip-path="url(#p006f9f1491)">
     <use xlink:href="#m34ee8635d5" x="115.138869" y="43.689852" style="stroke: #000000; stroke-width: 1.5"/>
    </g>
   </g>
   <g id="matplotlib.axis_1">
    <g id="xtick_1">
     <g id="line2d_1">
      <defs>
       <path id="mb9be7fdb6a" d="M 0 0 
L 0 3.5 
" style="stroke: #000000; stroke-width: 0.8"/>
      </defs>
      <g>
       <use xlink:href="#mb9be7fdb6a" x="80.898701" y="246.04" style="stroke: #000000; stroke-width: 0.8"/>
      </g>
     </g>
     <g id="text_1">
      <!-- −5000 -->
      <g transform="translate(63.983857 260.638438) scale(0.1 -0.1)">
       <defs>
        <path id="DejaVuSans-2212" d="M 678 2272 
L 4684 2272 
L 4684 1741 
L 678 1741 
L 678 2272 
z
" transform="scale(0.015625)"/>
        <path id="DejaVuSans-35" d="M 691 4666 
L 3169 4666 
L 3169 4134 
L 1269 4134 
L 1269 2991 
Q 1406 3038 1543 3061 
Q 1681 3084 1819 3084 
Q 2600 3084 3056 2656 
Q 3513 2228 3513 1497 
Q 3513 744 3044 326 
Q 2575 -91 1722 -91 
Q 1428 -91 1123 -41 
Q 819 9 494 109 
L 494 744 
Q 775 591 1075 516 
Q 1375 441 1709 441 
Q 2250 441 2565 725 
Q 2881 1009 2881 1497 
Q 2881 1984 2565 2268 
Q 2250 2553 1709 2553 
Q 1456 2553 1204 2497 
Q 953 2441 691 2322 
L 691 4666 
z
" transform="scale(0.015625)"/>
        <path id="DejaVuSans-30" d="M 2034 4250 
Q 1547 4250 1301 3770 
Q 1056 3291 1056 2328 
Q 1056 1369 1301 889 
Q 1547 409 2034 409 
Q 2525 409 2770 889 
Q 3016 1369 3016 2328 
Q 3016 3291 2770 3770 
Q 2525 4250 2034 4250 
z
M 2034 4750 
Q 2819 4750 3233 4129 
Q 3647 3509 3647 2328 
Q 3647 1150 3233 529 
Q 2819 -91 2034 -91 
Q 1250 -91 836 529 
Q 422 1150 422 2328 
Q 422 3509 836 4129 
Q 1250 4750 2034 4750 
z
" transform="scale(0.015625)"/>
       </defs>
       <use xlink:href="#DejaVuSans-2212"/>
       <use xlink:href="#DejaVuSans-35" transform="translate(83.789062 0)"/>
       <use xlink:href="#DejaVuSans-30" transform="translate(147.412109 0)"/>
       <use xlink:href="#DejaVuSans-30" transform="translate(211.035156 0)"/>
       <use xlink:href="#DejaVuSans-30" transform="translate(274.658203 0)"/>
      </g>
     </g>
    </g>
    <g id="xtick_2">
     <g id="line2d_2">
      <g>
       <use xlink:href="#mb9be7fdb6a" x="115.138869" y="246.04" style="stroke: #000000; stroke-width: 0.8"/>
      </g>
     </g>
     <g id="text_2">
      <!-- 0 -->
      <g transform="translate(111.957619 260.638438) scale(0.1 -0.1)">
       <use xlink:href="#DejaVuSans-30"/>
      </g>
     </g>
    </g>
    <g id="xtick_3">
     <g id="line2d_3">
      <g>
       <use xlink:href="#mb9be7fdb6a" x="149.379036" y="246.04" style="stroke: #000000; stroke-width: 0.8"/>
      </g>
     </g>
     <g id="text_3">
      <!-- 5000 -->
      <g transform="translate(136.654036 260.638438) scale(0.1 -0.1)">
       <use xlink:href="#DejaVuSans-35"/>
       <use xlink:href="#DejaVuSans-30" transform="translate(63.623047 0)"/>
       <use xlink:href="#DejaVuSans-30" transform="translate(127.246094 0)"/>
       <use xlink:href="#DejaVuSans-30" transform="translate(190.869141 0)"/>
      </g>
     </g>
    </g>
    <g id="text_4">
     <!-- Cross-Track (m) -->
     <g transform="translate(76.622793 274.316562) scale(0.1 -0.1)">
      <defs>
       <path id="DejaVuSans-43" d="M 4122 4306 
L 4122 3641 
Q 3803 3938 3442 4084 
Q 3081 4231 2675 4231 
Q 1875 4231 1450 3742 
Q 1025 3253 1025 2328 
Q 1025 1406 1450 917 
Q 1875 428 2675 428 
Q 3081 428 3442 575 
Q 3803 722 4122 1019 
L 4122 359 
Q 3791 134 3420 21 
Q 3050 -91 2638 -91 
Q 1578 -91 968 557 
Q 359 1206 359 2328 
Q 359 3453 968 4101 
Q 1578 4750 2638 4750 
Q 3056 4750 3426 4639 
Q 3797 4528 4122 4306 
z
" transform="scale(0.015625)"/>
       <path id="DejaVuSans-72" d="M 2631 2963 
Q 2534 3019 2420 3045 
Q 2306 3072 2169 3072 
Q 1681 3072 1420 2755 
Q 1159 2438 1159 1844 
L 1159 0 
L 581 0 
L 581 3500 
L 1159 3500 
L 1159 2956 
Q 1341 3275 1631 3429 
Q 1922 3584 2338 3584 
Q 2397 3584 2469 3576 
Q 2541 3569 2628 3553 
L 2631 2963 
z
" transform="scale(0.015625)"/>
       <path id="DejaVuSans-6f" d="M 1959 3097 
Q 1497 3097 1228 2736 
Q 959 2375 959 1747 
Q 959 1119 1226 758 
Q 1494 397 1959 397 
Q 2419 397 2687 759 
Q 2956 1122 2956 1747 
Q 2956 2369 2687 2733 
Q 2419 3097 1959 3097 
z
M 1959 3584 
Q 2709 3584 3137 3096 
Q 3566 2609 3566 1747 
Q 3566 888 3137 398 
Q 2709 -91 1959 -91 
Q 1206 -91 779 398 
Q 353 888 353 1747 
Q 353 2609 779 3096 
Q 1206 3584 1959 3584 
z
" transform="scale(0.015625)"/>
       <path id="DejaVuSans-73" d="M 2834 3397 
L 2834 2853 
Q 2591 2978 2328 3040 
Q 2066 3103 1784 3103 
Q 1356 3103 1142 2972 
Q 928 2841 928 2578 
Q 928 2378 1081 2264 
Q 1234 2150 1697 2047 
L 1894 2003 
Q 2506 1872 2764 1633 
Q 3022 1394 3022 966 
Q 3022 478 2636 193 
Q 2250 -91 1575 -91 
Q 1294 -91 989 -36 
Q 684 19 347 128 
L 347 722 
Q 666 556 975 473 
Q 1284 391 1588 391 
Q 1994 391 2212 530 
Q 2431 669 2431 922 
Q 2431 1156 2273 1281 
Q 2116 1406 1581 1522 
L 1381 1569 
Q 847 1681 609 1914 
Q 372 2147 372 2553 
Q 372 3047 722 3315 
Q 1072 3584 1716 3584 
Q 2034 3584 2315 3537 
Q 2597 3491 2834 3397 
z
" transform="scale(0.015625)"/>
       <path id="DejaVuSans-2d" d="M 313 2009 
L 1997 2009 
L 1997 1497 
L 313 1497 
L 313 2009 
z
" transform="scale(0.015625)"/>
       <path id="DejaVuSans-54" d="M -19 4666 
L 3928 4666 
L 3928 4134 
L 2272 4134 
L 2272 0 
L 1638 0 
L 1638 4134 
L -19 4134 
L -19 4666 
z
" transform="scale(0.015625)"/>
       <path id="DejaVuSans-61" d="M 2194 1759 
Q 1497 1759 1228 1600 
Q 959 1441 959 1056 
Q 959 750 1161 570 
Q 1363 391 1709 391 
Q 2188 391 2477 730 
Q 2766 1069 2766 1631 
L 2766 1759 
L 2194 1759 
z
M 3341 1997 
L 3341 0 
L 2766 0 
L 2766 531 
Q 2569 213 2275 61 
Q 1981 -91 1556 -91 
Q 1019 -91 701 211 
Q 384 513 384 1019 
Q 384 1609 779 1909 
Q 1175 2209 1959 2209 
L 2766 2209 
L 2766 2266 
Q 2766 2663 2505 2880 
Q 2244 3097 1772 3097 
Q 1472 3097 1187 3025 
Q 903 2953 641 2809 
L 641 3341 
Q 956 3463 1253 3523 
Q 1550 3584 1831 3584 
Q 2591 3584 2966 3190 
Q 3341 2797 3341 1997 
z
" transform="scale(0.015625)"/>
       <path id="DejaVuSans-63" d="M 3122 3366 
L 3122 2828 
Q 2878 2963 2633 3030 
Q 2388 3097 2138 3097 
Q 1578 3097 1268 2742 
Q 959 2388 959 1747 
Q 959 1106 1268 751 
Q 1578 397 2138 397 
Q 2388 397 2633 464 
Q 2878 531 3122 666 
L 3122 134 
Q 2881 22 2623 -34 
Q 2366 -91 2075 -91 
Q 1284 -91 818 406 
Q 353 903 353 1747 
Q 353 2603 823 3093 
Q 1294 3584 2113 3584 
Q 2378 3584 2631 3529 
Q 2884 3475 3122 3366 
z
" transform="scale(0.015625)"/>
       <path id="DejaVuSans-6b" d="M 581 4863 
L 1159 4863 
L 1159 1991 
L 2875 3500 
L 3609 3500 
L 1753 1863 
L 3688 0 
L 2938 0 
L 1159 1709 
L 1159 0 
L 581 0 
L 581 4863 
z
" transform="scale(0.015625)"/>
       <path id="DejaVuSans-20" transform="scale(0.015625)"/>
       <path id="DejaVuSans-28" d="M 1984 4856 
Q 1566 4138 1362 3434 
Q 1159 2731 1159 2009 
Q 1159 1288 1364 580 
Q 1569 -128 1984 -844 
L 1484 -844 
Q 1016 -109 783 600 
Q 550 1309 550 2009 
Q 550 2706 781 3412 
Q 1013 4119 1484 4856 
L 1984 4856 
z
" transform="scale(0.015625)"/>
       <path id="DejaVuSans-6d" d="M 3328 2828 
Q 3544 3216 3844 3400 
Q 4144 3584 4550 3584 
Q 5097 3584 5394 3201 
Q 5691 2819 5691 2113 
L 5691 0 
L 5113 0 
L 5113 2094 
Q 5113 2597 4934 2840 
Q 4756 3084 4391 3084 
Q 3944 3084 3684 2787 
Q 3425 2491 3425 1978 
L 3425 0 
L 2847 0 
L 2847 2094 
Q 2847 2600 2669 2842 
Q 2491 3084 2119 3084 
Q 1678 3084 1418 2786 
Q 1159 2488 1159 1978 
L 1159 0 
L 581 0 
L 581 3500 
L 1159 3500 
L 1159 2956 
Q 1356 3278 1631 3431 
Q 1906 3584 2284 3584 
Q 2666 3584 2933 3390 
Q 3200 3197 3328 2828 
z
" transform="scale(0.015625)"/>
       <path id="DejaVuSans-29" d="M 513 4856 
L 1013 4856 
Q 1481 4119 1714 3412 
Q 1947 2706 1947 2009 
Q 1947 1309 1714 600 
Q 1481 -109 1013 -844 
L 513 -844 
Q 928 -128 1133 580 
Q 1338 1288 1338 2009 
Q 1338 2731 1133 3434 
Q 928 4138 513 4856 
z
" transform="scale(0.015625)"/>
      </defs>
      <use xlink:href="#DejaVuSans-43"/>
      <use xlink:href="#DejaVuSans-72" transform="translate(69.824219 0)"/>
      <use xlink:href="#DejaVuSans-6f" transform="translate(108.6875 0)"/>
      <use xlink:href="#DejaVuSans-73" transform="translate(169.869141 0)"/>
      <use xlink:href="#DejaVuSans-73" transform="translate(221.96875 0)"/>
      <use xlink:href="#DejaVuSans-2d" transform="translate(274.068359 0)"/>
      <use xlink:href="#DejaVuSans-54" transform="translate(301.027344 0)"/>
      <use xlink:href="#DejaVuSans-72" transform="translate(347.361328 0)"/>
      <use xlink:href="#DejaVuSans-61" transform="translate(388.474609 0)"/>
      <use xlink:href="#DejaVuSans-63" transform="translate(449.753906 0)"/>
      <use xlink:href="#DejaVuSans-6b" transform="translate(504.734375 0)"/>
      <use xlink:href="#DejaVuSans-20" transform="translate(562.644531 0)"/>
      <use xlink:href="#DejaVuSans-28" transform="translate(594.431641 0)"/>
      <use xlink:href="#DejaVuSans-6d" transform="translate(633.445312 0)"/>
      <use xlink:href="#DejaVuSans-29" transform="translate(730.857422 0)"/>
     </g>
    </g>
   </g>
   <g id="matplotlib.axis_2">
    <g id="ytick_1">
     <g id="line2d_4">
      <defs>
       <path id="m54142d8019" d="M 0 0 
L -3.5 0 
" style="stroke: #000000; stroke-width: 0.8"/>
      </defs>
      <g>
       <use xlink:href="#m54142d8019" x="79.829231" y="214.89069" style="stroke: #000000; stroke-width: 0.8"/>
      </g>
     </g>
     <g id="text_5">
      <!-- −25000 -->
      <g transform="translate(32.637044 218.689908) scale(0.1 -0.1)">
       <defs>
        <path id="DejaVuSans-32" d="M 1228 531 
L 3431 531 
L 3431 0 
L 469 0 
L 469 531 
Q 828 903 1448 1529 
Q 2069 2156 2228 2338 
Q 2531 2678 2651 2914 
Q 2772 3150 2772 3378 
Q 2772 3750 2511 3984 
Q 2250 4219 1831 4219 
Q 1534 4219 1204 4116 
Q 875 4013 500 3803 
L 500 4441 
Q 881 4594 1212 4672 
Q 1544 4750 1819 4750 
Q 2544 4750 2975 4387 
Q 3406 4025 3406 3419 
Q 3406 3131 3298 2873 
Q 3191 2616 2906 2266 
Q 2828 2175 2409 1742 
Q 1991 1309 1228 531 
z
" transform="scale(0.015625)"/>
       </defs>
       <use xlink:href="#DejaVuSans-2212"/>
       <use xlink:href="#DejaVuSans-32" transform="translate(83.789062 0)"/>
       <use xlink:href="#DejaVuSans-35" transform="translate(147.412109 0)"/>
       <use xlink:href="#DejaVuSans-30" transform="translate(211.035156 0)"/>
       <use xlink:href="#DejaVuSans-30" transform="translate(274.658203 0)"/>
       <use xlink:href="#DejaVuSans-30" transform="translate(338.28125 0)"/>
      </g>
     </g>
    </g>
    <g id="ytick_2">
     <g id="line2d_5">
      <g>
       <use xlink:href="#m54142d8019" x="79.829231" y="180.650522" style="stroke: #000000; stroke-width: 0.8"/>
      </g>
     </g>
     <g id="text_6">
      <!-- −20000 -->
      <g transform="translate(32.637044 184.449741) scale(0.1 -0.1)">
       <use xlink:href="#DejaVuSans-2212"/>
       <use xlink:href="#DejaVuSans-32" transform="translate(83.789062 0)"/>
       <use xlink:href="#DejaVuSans-30" transform="translate(147.412109 0)"/>
       <use xlink:href="#DejaVuSans-30" transform="translate(211.035156 0)"/>
       <use xlink:href="#DejaVuSans-30" transform="translate(274.658203 0)"/>
       <use xlink:href="#DejaVuSans-30" transform="translate(338.28125 0)"/>
      </g>
     </g>
    </g>
    <g id="ytick_3">
     <g id="line2d_6">
      <g>
       <use xlink:href="#m54142d8019" x="79.829231" y="146.410355" style="stroke: #000000; stroke-width: 0.8"/>
      </g>
     </g>
     <g id="text_7">
      <!-- −15000 -->
      <g transform="translate(32.637044 150.209573) scale(0.1 -0.1)">
       <defs>
        <path id="DejaVuSans-31" d="M 794 531 
L 1825 531 
L 1825 4091 
L 703 3866 
L 703 4441 
L 1819 4666 
L 2450 4666 
L 2450 531 
L 3481 531 
L 3481 0 
L 794 0 
L 794 531 
z
" transform="scale(0.015625)"/>
       </defs>
       <use xlink:href="#DejaVuSans-2212"/>
       <use xlink:href="#DejaVuSans-31" transform="translate(83.789062 0)"/>
       <use xlink:href="#DejaVuSans-35" transform="translate(147.412109 0)"/>
       <use xlink:href="#DejaVuSans-30" transform="translate(211.035156 0)"/>
       <use xlink:href="#DejaVuSans-30" transform="translate(274.658203 0)"/>
       <use xlink:href="#DejaVuSans-30" transform="translate(338.28125 0)"/>
      </g>
     </g>
    </g>
    <g id="ytick_4">
     <g id="line2d_7">
      <g>
       <use xlink:href="#m54142d8019" x="79.829231" y="112.170187" style="stroke: #000000; stroke-width: 0.8"/>
      </g>
     </g>
     <g id="text_8">
      <!-- −10000 -->
      <g transform="translate(32.637044 115.969406) scale(0.1 -0.1)">
       <use xlink:href="#DejaVuSans-2212"/>
       <use xlink:href="#DejaVuSans-31" transform="translate(83.789062 0)"/>
       <use xlink:href="#DejaVuSans-30" transform="translate(147.412109 0)"/>
       <use xlink:href="#DejaVuSans-30" transform="translate(211.035156 0)"/>
       <use xlink:href="#DejaVuSans-30" transform="translate(274.658203 0)"/>
       <use xlink:href="#DejaVuSans-30" transform="translate(338.28125 0)"/>
      </g>
     </g>
    </g>
    <g id="ytick_5">
     <g id="line2d_8">
      <g>
       <use xlink:href="#m54142d8019" x="79.829231" y="77.930019" style="stroke: #000000; stroke-width: 0.8"/>
      </g>
     </g>
     <g id="text_9">
      <!-- −5000 -->
      <g transform="translate(38.999544 81.729238) scale(0.1 -0.1)">
       <use xlink:href="#DejaVuSans-2212"/>
       <use xlink:href="#DejaVuSans-35" transform="translate(83.789062 0)"/>
       <use xlink:href="#DejaVuSans-30" transform="translate(147.412109 0)"/>
       <use xlink:href="#DejaVuSans-30" transform="translate(211.035156 0)"/>
       <use xlink:href="#DejaVuSans-30" transform="translate(274.658203 0)"/>
      </g>
     </g>
    </g>
    <g id="ytick_6">
     <g id="line2d_9">
      <g>
       <use xlink:href="#m54142d8019" x="79.829231" y="43.689852" style="stroke: #000000; stroke-width: 0.8"/>
      </g>
     </g>
     <g id="text_10">
      <!-- 0 -->
      <g transform="translate(66.466731 47.48907) scale(0.1 -0.1)">
       <use xlink:href="#DejaVuSans-30"/>
      </g>
     </g>
    </g>
    <g id="text_11">
     <!-- Radial (m) -->
     <g transform="translate(26.557356 162.263125) rotate(-90) scale(0.1 -0.1)">
      <defs>
       <path id="DejaVuSans-52" d="M 2841 2188 
Q 3044 2119 3236 1894 
Q 3428 1669 3622 1275 
L 4263 0 
L 3584 0 
L 2988 1197 
Q 2756 1666 2539 1819 
Q 2322 1972 1947 1972 
L 1259 1972 
L 1259 0 
L 628 0 
L 628 4666 
L 2053 4666 
Q 2853 4666 3247 4331 
Q 3641 3997 3641 3322 
Q 3641 2881 3436 2590 
Q 3231 2300 2841 2188 
z
M 1259 4147 
L 1259 2491 
L 2053 2491 
Q 2509 2491 2742 2702 
Q 2975 2913 2975 3322 
Q 2975 3731 2742 3939 
Q 2509 4147 2053 4147 
L 1259 4147 
z
" transform="scale(0.015625)"/>
       <path id="DejaVuSans-64" d="M 2906 2969 
L 2906 4863 
L 3481 4863 
L 3481 0 
L 2906 0 
L 2906 525 
Q 2725 213 2448 61 
Q 2172 -91 1784 -91 
Q 1150 -91 751 415 
Q 353 922 353 1747 
Q 353 2572 751 3078 
Q 1150 3584 1784 3584 
Q 2172 3584 2448 3432 
Q 2725 3281 2906 2969 
z
M 947 1747 
Q 947 1113 1208 752 
Q 1469 391 1925 391 
Q 2381 391 2643 752 
Q 2906 1113 2906 1747 
Q 2906 2381 2643 2742 
Q 2381 3103 1925 3103 
Q 1469 3103 1208 2742 
Q 947 2381 947 1747 
z
" transform="scale(0.015625)"/>
       <path id="DejaVuSans-69" d="M 603 3500 
L 1178 3500 
L 1178 0 
L 603 0 
L 603 3500 
z
M 603 4863 
L 1178 4863 
L 1178 4134 
L 603 4134 
L 603 4863 
z
" transform="scale(0.015625)"/>
       <path id="DejaVuSans-6c" d="M 603 4863 
L 1178 4863 
L 1178 0 
L 603 0 
L 603 4863 
z
" transform="scale(0.015625)"/>
      </defs>
      <use xlink:href="#DejaVuSans-52"/>
      <use xlink:href="#DejaVuSans-61" transform="translate(67.232422 0)"/>
      <use xlink:href="#DejaVuSans-64" transform="translate(128.511719 0)"/>
      <use xlink:href="#DejaVuSans-69" transform="translate(191.988281 0)"/>
      <use xlink:href="#DejaVuSans-61" transform="translate(219.771484 0)"/>
      <use xlink:href="#DejaVuSans-6c" transform="translate(281.050781 0)"/>
      <use xlink:href="#DejaVuSans-20" transform="translate(308.833984 0)"/>
      <use xlink:href="#DejaVuSans-28" transform="translate(340.621094 0)"/>
      <use xlink:href="#DejaVuSans-6d" transform="translate(379.634766 0)"/>
      <use xlink:href="#DejaVuSans-29" transform="translate(477.046875 0)"/>
     </g>
    </g>
   </g>
   <g id="patch_5">
    <path d="M 79.829231 246.04 
L 79.829231 26.88 
" style="fill: none; stroke: #000000; stroke-width: 0.8; stroke-linejoin: miter; stroke-linecap: square"/>
   </g>
   <g id="patch_6">
    <path d="M 150.400729 246.04 
L 150.400729 26.88 
" style="fill: none; stroke: #000000; stroke-width: 0.8; stroke-linejoin: miter; stroke-linecap: square"/>
   </g>
   <g id="patch_7">
    <path d="M 79.829231 246.04 
L 150.400729 246.04 
" style="fill: none; stroke: #000000; stroke-width: 0.8; stroke-linejoin: miter; stroke-linecap: square"/>
   </g>
   <g id="patch_8">
    <path d="M 79.829231 26.88 
L 150.400729 26.88 
" style="fill: none; stroke: #000000; stroke-width: 0.8; stroke-linejoin: miter; stroke-linecap: square"/>
   </g>
   <g id="text_12">
    <!-- Satellite 1 -->
    <g transform="translate(84.815918 20.88) scale(0.12 -0.12)">
     <defs>
      <path id="DejaVuSans-53" d="M 3425 4513 
L 3425 3897 
Q 3066 4069 2747 4153 
Q 2428 4238 2131 4238 
Q 1616 4238 1336 4038 
Q 1056 3838 1056 3469 
Q 1056 3159 1242 3001 
Q 1428 2844 1947 2747 
L 2328 2669 
Q 3034 2534 3370 2195 
Q 3706 1856 3706 1288 
Q 3706 609 3251 259 
Q 2797 -91 1919 -91 
Q 1588 -91 1214 -16 
Q 841 59 441 206 
L 441 856 
Q 825 641 1194 531 
Q 1563 422 1919 422 
Q 2459 422 2753 634 
Q 3047 847 3047 1241 
Q 3047 1584 2836 1778 
Q 2625 1972 2144 2069 
L 1759 2144 
Q 1053 2284 737 2584 
Q 422 2884 422 3419 
Q 422 4038 858 4394 
Q 1294 4750 2059 4750 
Q 2388 4750 2728 4690 
Q 3069 4631 3425 4513 
z
" transform="scale(0.015625)"/>
      <path id="DejaVuSans-74" d="M 1172 4494 
L 1172 3500 
L 2356 3500 
L 2356 3053 
L 1172 3053 
L 1172 1153 
Q 1172 725 1289 603 
Q 1406 481 1766 481 
L 2356 481 
L 2356 0 
L 1766 0 
Q 1100 0 847 248 
Q 594 497 594 1153 
L 594 3053 
L 172 3053 
L 172 3500 
L 594 3500 
L 594 4494 
L 1172 4494 
z
" transform="scale(0.015625)"/>
      <path id="DejaVuSans-65" d="M 3597 1894 
L 3597 1613 
L 953 1613 
Q 991 1019 1311 708 
Q 1631 397 2203 397 
Q 2534 397 2845 478 
Q 3156 559 3463 722 
L 3463 178 
Q 3153 47 2828 -22 
Q 2503 -91 2169 -91 
Q 1331 -91 842 396 
Q 353 884 353 1716 
Q 353 2575 817 3079 
Q 1281 3584 2069 3584 
Q 2775 3584 3186 3129 
Q 3597 2675 3597 1894 
z
M 3022 2063 
Q 3016 2534 2758 2815 
Q 2500 3097 2075 3097 
Q 1594 3097 1305 2825 
Q 1016 2553 972 2059 
L 3022 2063 
z
" transform="scale(0.015625)"/>
     </defs>
     <use xlink:href="#DejaVuSans-53"/>
     <use xlink:href="#DejaVuSans-61" transform="translate(63.476562 0)"/>
     <use xlink:href="#DejaVuSans-74" transform="translate(124.755859 0)"/>
     <use xlink:href="#DejaVuSans-65" transform="translate(163.964844 0)"/>
     <use xlink:href="#DejaVuSans-6c" transform="translate(225.488281 0)"/>
     <use xlink:href="#DejaVuSans-6c" transform="translate(253.271484 0)"/>
     <use xlink:href="#DejaVuSans-69" transform="translate(281.054688 0)"/>
     <use xlink:href="#DejaVuSans-74" transform="translate(308.837891 0)"/>
     <use xlink:href="#DejaVuSans-65" transform="translate(348.046875 0)"/>
     <use xlink:href="#DejaVuSans-20" transform="translate(409.570312 0)"/>
     <use xlink:href="#DejaVuSans-31" transform="translate(441.357422 0)"/>
    </g>
   </g>
   <g id="line2d_10">
    <path d="M 115.137944 70.890091 
L 115.137043 71.008961 
L 115.136169 71.206942 
L 115.135325 71.483837 
L 115.134513 71.839375 
L 115.133735 72.273208 
L 115.132995 72.784914 
L 115.132293 73.373995 
L 115.131634 74.039878 
L 115.131018 74.781917 
L 115.130449 75.599395 
L 115.129927 76.491519 
L 115.129456 77.457426 
L 115.129036 78.496183 
L 115.128671 79.606787 
L 115.128361 80.788165 
L 115.128108 82.039178 
L 115.127913 83.35862 
L 115.127779 84.745219 
L 115.127705 86.197638 
L 115.127694 87.714481 
L 115.127747 89.294286 
L 115.127864 90.935533 
L 115.128047 92.636645 
L 115.128295 94.395985 
L 115.128611 96.211864 
L 115.128993 98.082535 
L 115.129443 100.006203 
L 115.12996 101.981021 
L 115.130546 104.005093 
L 115.131199 106.076476 
L 115.13192 108.193184 
L 115.132709 110.353186 
L 115.133565 112.554412 
L 115.134487 114.79475 
L 115.135476 117.072055 
L 115.13653 119.384143 
L 115.137648 121.728799 
L 115.138829 124.103778 
L 115.140073 126.506806 
L 115.141378 128.935581 
L 115.142742 131.387778 
L 115.144165 133.861051 
L 115.145645 136.353031 
L 115.147179 138.861334 
L 115.148766 141.38356 
L 115.150404 143.917296 
L 115.152092 146.460119 
L 115.153826 149.009596 
L 115.155605 151.563288 
L 115.157426 154.118753 
L 115.159287 156.673548 
L 115.161185 159.22523 
L 115.163118 161.771358 
L 115.165083 164.309499 
L 115.167076 166.837225 
L 115.169096 169.352121 
L 115.171139 171.851781 
L 115.173201 174.333817 
L 115.175281 176.795855 
L 115.177374 179.235542 
L 115.179478 181.650546 
L 115.181589 184.038559 
L 115.183703 186.397297 
L 115.185817 188.724506 
L 115.187929 191.017962 
L 115.190033 193.275473 
L 115.192127 195.49488 
L 115.194207 197.674063 
L 115.19627 199.81094 
L 115.198312 201.903466 
L 115.200328 203.949644 
L 115.202316 205.947518 
L 115.204272 207.895178 
L 115.206193 209.790764 
L 115.208073 211.632465 
L 115.209911 213.418523 
L 115.211702 215.147231 
L 115.213442 216.816939 
L 115.215129 218.426053 
L 115.216758 219.973037 
L 115.218326 221.456417 
L 115.21983 222.874778 
L 115.221266 224.226767 
L 115.222631 225.511098 
L 115.223921 226.726547 
L 115.225133 227.87196 
L 115.226265 228.946248 
L 115.227312 229.948392 
L 115.228273 230.877442 
L 115.229143 231.73252 
L 115.229921 232.512818 
L 115.230604 233.217603 
L 115.231188 233.846213 
L 115.231671 234.398062 
L 115.232052 234.872637 
L 115.232327 235.269501 
L 115.232495 235.588292 
L 115.232552 235.828727 
L 115.232499 235.990595 
L 115.232331 236.073765 
L 115.232049 236.078182 
L 115.23165 236.003868 
L 115.231133 235.850922 
L 115.230497 235.619521 
L 115.22974 235.309917 
L 115.228862 234.922442 
L 115.227861 234.4575 
L 115.226738 233.915577 
L 115.225492 233.297229 
L 115.224121 232.603092 
L 115.222627 231.833873 
L 115.221009 230.990357 
L 115.219267 230.073399 
" clip-path="url(#p006f9f1491)" style="fill: none; stroke: #000000; stroke-opacity: 0.5; stroke-width: 1.5; stroke-linecap: square"/>
   </g>
  </g>
  <g id="axes_2">
   <g id="patch_9">
    <path d="M 236.446894 246.04 
L 306.85629 246.04 
L 306.85629 26.88 
L 236.446894 26.88 
z
" style="fill: #ffffff"/>
   </g>
   <g id="patch_10">
    <path d="M 278.207202 149.108132 
C 269.918939 127.469427 261.280798 106.977685 254.195227 92.145977 
C 247.109656 77.314268 242.155163 69.353535 240.422915 70.017037 
C 238.690668 70.680539 240.322097 79.914103 244.9579 95.684145 
C 249.593703 111.454187 256.855387 132.473153 265.143649 154.111858 
C 273.431912 175.750564 282.070054 196.242305 289.155624 211.074014 
C 296.241195 225.905722 301.195689 233.866455 302.927936 233.202954 
C 304.660183 232.539452 303.028754 223.305887 298.392951 207.535845 
C 293.757148 191.765803 286.495465 170.746838 278.207202 149.108132 
L 278.207202 149.108132 
z
" clip-path="url(#pf7da072ef9)" style="fill: none; stroke: #0000ff; stroke-width: 2; stroke-linejoin: miter"/>
   </g>
   <g id="patch_11">
    <path d="M 271.675426 50.506425 
C 273.487374 50.506425 275.225353 49.786531 276.506594 48.50529 
C 277.787835 47.224049 278.507729 45.48607 278.507729 43.674122 
C 278.507729 41.862174 277.787835 40.124194 276.506594 38.842954 
C 275.225353 37.561713 273.487374 36.841818 271.675426 36.841818 
C 269.863478 36.841818 268.125498 37.561713 266.844257 38.842954 
C 265.563017 40.124194 264.843122 41.862174 264.843122 43.674122 
C 264.843122 45.48607 265.563017 47.224049 266.844257 48.50529 
C 268.125498 49.786531 269.863478 50.506425 271.675426 50.506425 
L 271.675426 50.506425 
z
" clip-path="url(#pf7da072ef9)" style="fill: none; stroke: #000000; stroke-linejoin: miter"/>
   </g>
   <g id="PathCollection_2">
    <g clip-path="url(#pf7da072ef9)">
     <use xlink:href="#m34ee8635d5" x="271.675426" y="43.674122" style="stroke: #000000; stroke-width: 1.5"/>
    </g>
   </g>
   <g id="matplotlib.axis_3">
    <g id="xtick_4">
     <g id="line2d_11">
      <g>
       <use xlink:href="#mb9be7fdb6a" x="237.513908" y="246.04" style="stroke: #000000; stroke-width: 0.8"/>
      </g>
     </g>
     <g id="text_13">
      <!-- −5000 -->
      <g transform="translate(220.599064 260.638438) scale(0.1 -0.1)">
       <use xlink:href="#DejaVuSans-2212"/>
       <use xlink:href="#DejaVuSans-35" transform="translate(83.789062 0)"/>
       <use xlink:href="#DejaVuSans-30" transform="translate(147.412109 0)"/>
       <use xlink:href="#DejaVuSans-30" transform="translate(211.035156 0)"/>
       <use xlink:href="#DejaVuSans-30" transform="translate(274.658203 0)"/>
      </g>
     </g>
    </g>
    <g id="xtick_5">
     <g id="line2d_12">
      <g>
       <use xlink:href="#mb9be7fdb6a" x="271.675426" y="246.04" style="stroke: #000000; stroke-width: 0.8"/>
      </g>
     </g>
     <g id="text_14">
      <!-- 0 -->
      <g transform="translate(268.494176 260.638438) scale(0.1 -0.1)">
       <use xlink:href="#DejaVuSans-30"/>
      </g>
     </g>
    </g>
    <g id="xtick_6">
     <g id="line2d_13">
      <g>
       <use xlink:href="#mb9be7fdb6a" x="305.836944" y="246.04" style="stroke: #000000; stroke-width: 0.8"/>
      </g>
     </g>
     <g id="text_15">
      <!-- 5000 -->
      <g transform="translate(293.111944 260.638438) scale(0.1 -0.1)">
       <use xlink:href="#DejaVuSans-35"/>
       <use xlink:href="#DejaVuSans-30" transform="translate(63.623047 0)"/>
       <use xlink:href="#DejaVuSans-30" transform="translate(127.246094 0)"/>
       <use xlink:href="#DejaVuSans-30" transform="translate(190.869141 0)"/>
      </g>
     </g>
    </g>
    <g id="text_16">
     <!-- Cross-Track (m) -->
     <g transform="translate(233.159405 274.316562) scale(0.1 -0.1)">
      <use xlink:href="#DejaVuSans-43"/>
      <use xlink:href="#DejaVuSans-72" transform="translate(69.824219 0)"/>
      <use xlink:href="#DejaVuSans-6f" transform="translate(108.6875 0)"/>
      <use xlink:href="#DejaVuSans-73" transform="translate(169.869141 0)"/>
      <use xlink:href="#DejaVuSans-73" transform="translate(221.96875 0)"/>
      <use xlink:href="#DejaVuSans-2d" transform="translate(274.068359 0)"/>
      <use xlink:href="#DejaVuSans-54" transform="translate(301.027344 0)"/>
      <use xlink:href="#DejaVuSans-72" transform="translate(347.361328 0)"/>
      <use xlink:href="#DejaVuSans-61" transform="translate(388.474609 0)"/>
      <use xlink:href="#DejaVuSans-63" transform="translate(449.753906 0)"/>
      <use xlink:href="#DejaVuSans-6b" transform="translate(504.734375 0)"/>
      <use xlink:href="#DejaVuSans-20" transform="translate(562.644531 0)"/>
      <use xlink:href="#DejaVuSans-28" transform="translate(594.431641 0)"/>
      <use xlink:href="#DejaVuSans-6d" transform="translate(633.445312 0)"/>
      <use xlink:href="#DejaVuSans-29" transform="translate(730.857422 0)"/>
     </g>
    </g>
   </g>
   <g id="matplotlib.axis_4">
    <g id="ytick_7">
     <g id="line2d_14">
      <g>
       <use xlink:href="#m54142d8019" x="236.446894" y="214.481713" style="stroke: #000000; stroke-width: 0.8"/>
      </g>
     </g>
     <g id="text_17">
      <!-- −25000 -->
      <g transform="translate(189.254707 218.280931) scale(0.1 -0.1)">
       <use xlink:href="#DejaVuSans-2212"/>
       <use xlink:href="#DejaVuSans-32" transform="translate(83.789062 0)"/>
       <use xlink:href="#DejaVuSans-35" transform="translate(147.412109 0)"/>
       <use xlink:href="#DejaVuSans-30" transform="translate(211.035156 0)"/>
       <use xlink:href="#DejaVuSans-30" transform="translate(274.658203 0)"/>
       <use xlink:href="#DejaVuSans-30" transform="translate(338.28125 0)"/>
      </g>
     </g>
    </g>
    <g id="ytick_8">
     <g id="line2d_15">
      <g>
       <use xlink:href="#m54142d8019" x="236.446894" y="180.320194" style="stroke: #000000; stroke-width: 0.8"/>
      </g>
     </g>
     <g id="text_18">
      <!-- −20000 -->
      <g transform="translate(189.254707 184.119413) scale(0.1 -0.1)">
       <use xlink:href="#DejaVuSans-2212"/>
       <use xlink:href="#DejaVuSans-32" transform="translate(83.789062 0)"/>
       <use xlink:href="#DejaVuSans-30" transform="translate(147.412109 0)"/>
       <use xlink:href="#DejaVuSans-30" transform="translate(211.035156 0)"/>
       <use xlink:href="#DejaVuSans-30" transform="translate(274.658203 0)"/>
       <use xlink:href="#DejaVuSans-30" transform="translate(338.28125 0)"/>
      </g>
     </g>
    </g>
    <g id="ytick_9">
     <g id="line2d_16">
      <g>
       <use xlink:href="#m54142d8019" x="236.446894" y="146.158676" style="stroke: #000000; stroke-width: 0.8"/>
      </g>
     </g>
     <g id="text_19">
      <!-- −15000 -->
      <g transform="translate(189.254707 149.957895) scale(0.1 -0.1)">
       <use xlink:href="#DejaVuSans-2212"/>
       <use xlink:href="#DejaVuSans-31" transform="translate(83.789062 0)"/>
       <use xlink:href="#DejaVuSans-35" transform="translate(147.412109 0)"/>
       <use xlink:href="#DejaVuSans-30" transform="translate(211.035156 0)"/>
       <use xlink:href="#DejaVuSans-30" transform="translate(274.658203 0)"/>
       <use xlink:href="#DejaVuSans-30" transform="translate(338.28125 0)"/>
      </g>
     </g>
    </g>
    <g id="ytick_10">
     <g id="line2d_17">
      <g>
       <use xlink:href="#m54142d8019" x="236.446894" y="111.997158" style="stroke: #000000; stroke-width: 0.8"/>
      </g>
     </g>
     <g id="text_20">
      <!-- −10000 -->
      <g transform="translate(189.254707 115.796377) scale(0.1 -0.1)">
       <use xlink:href="#DejaVuSans-2212"/>
       <use xlink:href="#DejaVuSans-31" transform="translate(83.789062 0)"/>
       <use xlink:href="#DejaVuSans-30" transform="translate(147.412109 0)"/>
       <use xlink:href="#DejaVuSans-30" transform="translate(211.035156 0)"/>
       <use xlink:href="#DejaVuSans-30" transform="translate(274.658203 0)"/>
       <use xlink:href="#DejaVuSans-30" transform="translate(338.28125 0)"/>
      </g>
     </g>
    </g>
    <g id="ytick_11">
     <g id="line2d_18">
      <g>
       <use xlink:href="#m54142d8019" x="236.446894" y="77.83564" style="stroke: #000000; stroke-width: 0.8"/>
      </g>
     </g>
     <g id="text_21">
      <!-- −5000 -->
      <g transform="translate(195.617207 81.634859) scale(0.1 -0.1)">
       <use xlink:href="#DejaVuSans-2212"/>
       <use xlink:href="#DejaVuSans-35" transform="translate(83.789062 0)"/>
       <use xlink:href="#DejaVuSans-30" transform="translate(147.412109 0)"/>
       <use xlink:href="#DejaVuSans-30" transform="translate(211.035156 0)"/>
       <use xlink:href="#DejaVuSans-30" transform="translate(274.658203 0)"/>
      </g>
     </g>
    </g>
    <g id="ytick_12">
     <g id="line2d_19">
      <g>
       <use xlink:href="#m54142d8019" x="236.446894" y="43.674122" style="stroke: #000000; stroke-width: 0.8"/>
      </g>
     </g>
     <g id="text_22">
      <!-- 0 -->
      <g transform="translate(223.084394 47.473341) scale(0.1 -0.1)">
       <use xlink:href="#DejaVuSans-30"/>
      </g>
     </g>
    </g>
   </g>
   <g id="line2d_20">
    <path d="M 303.37695 235.494486 
L 303.170165 235.941663 
L 302.838969 236.078182 
L 302.384626 235.90284 
L 301.808892 235.415654 
L 300.722713 234.103211 
L 299.37811 232.10151 
L 297.204159 228.387907 
L 294.626369 223.530058 
L 290.898722 215.958614 
L 286.695908 206.887588 
L 282.121582 196.530272 
L 276.301267 182.751141 
L 270.314973 167.94735 
L 264.374487 152.629113 
L 258.689515 137.325984 
L 253.460221 122.567968 
L 248.870187 108.866606 
L 245.650185 98.60006 
L 243.064231 89.645115 
L 241.174817 82.21696 
L 240.195957 77.494745 
L 239.707342 73.936681 
L 239.667343 72.065398 
L 239.796515 71.206922 
L 240.049821 70.663603 
L 240.426261 70.437431 
L 240.924359 70.529169 
L 241.542171 70.938354 
L 242.277289 71.6633 
L 243.593542 73.336094 
L 245.155702 75.697687 
L 247.597249 79.881169 
L 250.413667 85.186449 
L 254.394387 93.26877 
L 258.795986 102.779242 
L 263.511884 113.488964 
L 268.427738 125.14064 
L 274.422403 139.971252 
L 280.32297 155.243508 
L 285.922123 170.431138 
L 290.214953 182.644875 
L 294.055492 194.143673 
L 297.34894 204.652137 
L 300.013668 213.918526 
L 301.647611 220.287009 
L 302.810146 225.62009 
L 303.48246 229.836011 
L 303.65803 232.225335 
L 303.549711 233.929107 
L 303.320068 234.676682 
L 302.965413 235.110212 
L 302.487102 235.228136 
L 301.886988 235.03013 
L 301.167407 234.517105 
L 300.331174 233.691209 
L 298.865399 231.873454 
L 297.157606 229.376151 
L 294.530533 225.029179 
L 291.541783 219.584456 
L 289.091063 214.832222 
L 289.091063 214.832222 
" clip-path="url(#pf7da072ef9)" style="fill: none; stroke: #000000; stroke-opacity: 0.5; stroke-width: 1.5; stroke-linecap: square"/>
   </g>
   <g id="patch_12">
    <path d="M 236.446894 246.04 
L 236.446894 26.88 
" style="fill: none; stroke: #000000; stroke-width: 0.8; stroke-linejoin: miter; stroke-linecap: square"/>
   </g>
   <g id="patch_13">
    <path d="M 306.85629 246.04 
L 306.85629 26.88 
" style="fill: none; stroke: #000000; stroke-width: 0.8; stroke-linejoin: miter; stroke-linecap: square"/>
   </g>
   <g id="patch_14">
    <path d="M 236.446894 246.04 
L 306.85629 246.04 
" style="fill: none; stroke: #000000; stroke-width: 0.8; stroke-linejoin: miter; stroke-linecap: square"/>
   </g>
   <g id="patch_15">
    <path d="M 236.446894 26.88 
L 306.85629 26.88 
" style="fill: none; stroke: #000000; stroke-width: 0.8; stroke-linejoin: miter; stroke-linecap: square"/>
   </g>
   <g id="text_23">
    <!-- Satellite 2 -->
    <g transform="translate(241.35253 20.88) scale(0.12 -0.12)">
     <use xlink:href="#DejaVuSans-53"/>
     <use xlink:href="#DejaVuSans-61" transform="translate(63.476562 0)"/>
     <use xlink:href="#DejaVuSans-74" transform="translate(124.755859 0)"/>
     <use xlink:href="#DejaVuSans-65" transform="translate(163.964844 0)"/>
     <use xlink:href="#DejaVuSans-6c" transform="translate(225.488281 0)"/>
     <use xlink:href="#DejaVuSans-6c" transform="translate(253.271484 0)"/>
     <use xlink:href="#DejaVuSans-69" transform="translate(281.054688 0)"/>
     <use xlink:href="#DejaVuSans-74" transform="translate(308.837891 0)"/>
     <use xlink:href="#DejaVuSans-65" transform="translate(348.046875 0)"/>
     <use xlink:href="#DejaVuSans-20" transform="translate(409.570312 0)"/>
     <use xlink:href="#DejaVuSans-32" transform="translate(441.357422 0)"/>
    </g>
   </g>
  </g>
  <g id="axes_3">
   <g id="patch_16">
    <path d="M 392.171029 246.04 
L 464.205379 246.04 
L 464.205379 26.88 
L 392.171029 26.88 
z
" style="fill: #ffffff"/>
   </g>
   <g id="patch_17">
    <path d="M 427.625077 154.226699 
C 426.261473 175.924174 425.015439 196.739788 424.1614 212.089144 
C 423.307361 227.438499 422.915044 236.06839 423.070854 236.078182 
C 423.226663 236.087974 423.917878 227.476868 424.992265 212.14136 
C 426.066653 196.805853 427.436494 175.99802 428.800098 154.300545 
C 430.163702 132.60307 431.409736 111.787456 432.263775 96.4381 
C 433.117815 81.088745 433.510131 72.458854 433.354321 72.449062 
C 433.198512 72.43927 432.507297 81.050376 431.43291 96.385884 
C 430.358522 111.721391 428.988681 132.529224 427.625077 154.226699 
L 427.625077 154.226699 
z
" clip-path="url(#pfdfee4cd3e)" style="fill: none; stroke: #0000ff; stroke-width: 2; stroke-linejoin: miter"/>
   </g>
   <g id="patch_18">
    <path d="M 428.212588 50.821786 
C 430.066353 50.821786 431.844442 50.085277 433.155253 48.774467 
C 434.466063 47.463657 435.202571 45.685568 435.202571 43.831802 
C 435.202571 41.978037 434.466063 40.199947 433.155253 38.889137 
C 431.844442 37.578327 430.066353 36.841818 428.212588 36.841818 
C 426.358822 36.841818 424.580733 37.578327 423.269922 38.889137 
C 421.959112 40.199947 421.222604 41.978037 421.222604 43.831802 
C 421.222604 45.685568 421.959112 47.463657 423.269922 48.774467 
C 424.580733 50.085277 426.358822 50.821786 428.212588 50.821786 
L 428.212588 50.821786 
z
" clip-path="url(#pfdfee4cd3e)" style="fill: none; stroke: #000000; stroke-linejoin: miter"/>
   </g>
   <g id="PathCollection_3">
    <g clip-path="url(#pfdfee4cd3e)">
     <use xlink:href="#m34ee8635d5" x="428.212588" y="43.831802" style="stroke: #000000; stroke-width: 1.5"/>
    </g>
   </g>
   <g id="matplotlib.axis_5">
    <g id="xtick_7">
     <g id="line2d_21">
      <g>
       <use xlink:href="#mb9be7fdb6a" x="393.262668" y="246.04" style="stroke: #000000; stroke-width: 0.8"/>
      </g>
     </g>
     <g id="text_24">
      <!-- −5000 -->
      <g transform="translate(376.347824 260.638438) scale(0.1 -0.1)">
       <use xlink:href="#DejaVuSans-2212"/>
       <use xlink:href="#DejaVuSans-35" transform="translate(83.789062 0)"/>
       <use xlink:href="#DejaVuSans-30" transform="translate(147.412109 0)"/>
       <use xlink:href="#DejaVuSans-30" transform="translate(211.035156 0)"/>
       <use xlink:href="#DejaVuSans-30" transform="translate(274.658203 0)"/>
      </g>
     </g>
    </g>
    <g id="xtick_8">
     <g id="line2d_22">
      <g>
       <use xlink:href="#mb9be7fdb6a" x="428.212588" y="246.04" style="stroke: #000000; stroke-width: 0.8"/>
      </g>
     </g>
     <g id="text_25">
      <!-- 0 -->
      <g transform="translate(425.031338 260.638438) scale(0.1 -0.1)">
       <use xlink:href="#DejaVuSans-30"/>
      </g>
     </g>
    </g>
    <g id="xtick_9">
     <g id="line2d_23">
      <g>
       <use xlink:href="#mb9be7fdb6a" x="463.162507" y="246.04" style="stroke: #000000; stroke-width: 0.8"/>
      </g>
     </g>
     <g id="text_26">
      <!-- 5000 -->
      <g transform="translate(450.437507 260.638438) scale(0.1 -0.1)">
       <use xlink:href="#DejaVuSans-35"/>
       <use xlink:href="#DejaVuSans-30" transform="translate(63.623047 0)"/>
       <use xlink:href="#DejaVuSans-30" transform="translate(127.246094 0)"/>
       <use xlink:href="#DejaVuSans-30" transform="translate(190.869141 0)"/>
      </g>
     </g>
    </g>
    <g id="text_27">
     <!-- Cross-Track (m) -->
     <g transform="translate(389.696016 274.316562) scale(0.1 -0.1)">
      <use xlink:href="#DejaVuSans-43"/>
      <use xlink:href="#DejaVuSans-72" transform="translate(69.824219 0)"/>
      <use xlink:href="#DejaVuSans-6f" transform="translate(108.6875 0)"/>
      <use xlink:href="#DejaVuSans-73" transform="translate(169.869141 0)"/>
      <use xlink:href="#DejaVuSans-73" transform="translate(221.96875 0)"/>
      <use xlink:href="#DejaVuSans-2d" transform="translate(274.068359 0)"/>
      <use xlink:href="#DejaVuSans-54" transform="translate(301.027344 0)"/>
      <use xlink:href="#DejaVuSans-72" transform="translate(347.361328 0)"/>
      <use xlink:href="#DejaVuSans-61" transform="translate(388.474609 0)"/>
      <use xlink:href="#DejaVuSans-63" transform="translate(449.753906 0)"/>
      <use xlink:href="#DejaVuSans-6b" transform="translate(504.734375 0)"/>
      <use xlink:href="#DejaVuSans-20" transform="translate(562.644531 0)"/>
      <use xlink:href="#DejaVuSans-28" transform="translate(594.431641 0)"/>
      <use xlink:href="#DejaVuSans-6d" transform="translate(633.445312 0)"/>
      <use xlink:href="#DejaVuSans-29" transform="translate(730.857422 0)"/>
     </g>
    </g>
   </g>
   <g id="matplotlib.axis_6">
    <g id="ytick_13">
     <g id="line2d_24">
      <g>
       <use xlink:href="#m54142d8019" x="392.171029" y="218.581401" style="stroke: #000000; stroke-width: 0.8"/>
      </g>
     </g>
     <g id="text_28">
      <!-- −25000 -->
      <g transform="translate(344.978842 222.38062) scale(0.1 -0.1)">
       <use xlink:href="#DejaVuSans-2212"/>
       <use xlink:href="#DejaVuSans-32" transform="translate(83.789062 0)"/>
       <use xlink:href="#DejaVuSans-35" transform="translate(147.412109 0)"/>
       <use xlink:href="#DejaVuSans-30" transform="translate(211.035156 0)"/>
       <use xlink:href="#DejaVuSans-30" transform="translate(274.658203 0)"/>
       <use xlink:href="#DejaVuSans-30" transform="translate(338.28125 0)"/>
      </g>
     </g>
    </g>
    <g id="ytick_14">
     <g id="line2d_25">
      <g>
       <use xlink:href="#m54142d8019" x="392.171029" y="183.631482" style="stroke: #000000; stroke-width: 0.8"/>
      </g>
     </g>
     <g id="text_29">
      <!-- −20000 -->
      <g transform="translate(344.978842 187.4307) scale(0.1 -0.1)">
       <use xlink:href="#DejaVuSans-2212"/>
       <use xlink:href="#DejaVuSans-32" transform="translate(83.789062 0)"/>
       <use xlink:href="#DejaVuSans-30" transform="translate(147.412109 0)"/>
       <use xlink:href="#DejaVuSans-30" transform="translate(211.035156 0)"/>
       <use xlink:href="#DejaVuSans-30" transform="translate(274.658203 0)"/>
       <use xlink:href="#DejaVuSans-30" transform="translate(338.28125 0)"/>
      </g>
     </g>
    </g>
    <g id="ytick_15">
     <g id="line2d_26">
      <g>
       <use xlink:href="#m54142d8019" x="392.171029" y="148.681562" style="stroke: #000000; stroke-width: 0.8"/>
      </g>
     </g>
     <g id="text_30">
      <!-- −15000 -->
      <g transform="translate(344.978842 152.48078) scale(0.1 -0.1)">
       <use xlink:href="#DejaVuSans-2212"/>
       <use xlink:href="#DejaVuSans-31" transform="translate(83.789062 0)"/>
       <use xlink:href="#DejaVuSans-35" transform="translate(147.412109 0)"/>
       <use xlink:href="#DejaVuSans-30" transform="translate(211.035156 0)"/>
       <use xlink:href="#DejaVuSans-30" transform="translate(274.658203 0)"/>
       <use xlink:href="#DejaVuSans-30" transform="translate(338.28125 0)"/>
      </g>
     </g>
    </g>
    <g id="ytick_16">
     <g id="line2d_27">
      <g>
       <use xlink:href="#m54142d8019" x="392.171029" y="113.731642" style="stroke: #000000; stroke-width: 0.8"/>
      </g>
     </g>
     <g id="text_31">
      <!-- −10000 -->
      <g transform="translate(344.978842 117.530861) scale(0.1 -0.1)">
       <use xlink:href="#DejaVuSans-2212"/>
       <use xlink:href="#DejaVuSans-31" transform="translate(83.789062 0)"/>
       <use xlink:href="#DejaVuSans-30" transform="translate(147.412109 0)"/>
       <use xlink:href="#DejaVuSans-30" transform="translate(211.035156 0)"/>
       <use xlink:href="#DejaVuSans-30" transform="translate(274.658203 0)"/>
       <use xlink:href="#DejaVuSans-30" transform="translate(338.28125 0)"/>
      </g>
     </g>
    </g>
    <g id="ytick_17">
     <g id="line2d_28">
      <g>
       <use xlink:href="#m54142d8019" x="392.171029" y="78.781722" style="stroke: #000000; stroke-width: 0.8"/>
      </g>
     </g>
     <g id="text_32">
      <!-- −5000 -->
      <g transform="translate(351.341342 82.580941) scale(0.1 -0.1)">
       <use xlink:href="#DejaVuSans-2212"/>
       <use xlink:href="#DejaVuSans-35" transform="translate(83.789062 0)"/>
       <use xlink:href="#DejaVuSans-30" transform="translate(147.412109 0)"/>
       <use xlink:href="#DejaVuSans-30" transform="translate(211.035156 0)"/>
       <use xlink:href="#DejaVuSans-30" transform="translate(274.658203 0)"/>
      </g>
     </g>
    </g>
    <g id="ytick_18">
     <g id="line2d_29">
      <g>
       <use xlink:href="#m54142d8019" x="392.171029" y="43.831802" style="stroke: #000000; stroke-width: 0.8"/>
      </g>
     </g>
     <g id="text_33">
      <!-- 0 -->
      <g transform="translate(378.808529 47.631021) scale(0.1 -0.1)">
       <use xlink:href="#DejaVuSans-30"/>
      </g>
     </g>
    </g>
   </g>
   <g id="line2d_30">
    <path d="M 429.393726 150.355224 
L 432.104278 103.984604 
L 433.232757 81.588195 
L 433.299147 77.038285 
L 433.212999 77.451598 
L 432.911025 80.386525 
L 432.053231 91.189044 
L 430.115611 118.845182 
L 427.310889 162.1137 
L 424.580206 207.515339 
L 423.331486 231.31612 
L 423.243574 235.787557 
L 423.322842 235.368584 
L 423.674312 231.666536 
L 424.655921 218.581459 
L 426.632925 189.128629 
L 429.398186 144.642152 
L 431.882442 101.380288 
L 433.043461 78.015775 
L 433.108766 74.115225 
L 433.089002 74.162659 
L 432.919739 75.600081 
L 432.333049 83.105337 
L 430.810538 105.968244 
L 428.355045 146.351651 
L 425.747061 192.802256 
L 424.904897 208.941146 
L 424.904897 208.941146 
" clip-path="url(#pfdfee4cd3e)" style="fill: none; stroke: #000000; stroke-opacity: 0.5; stroke-width: 1.5; stroke-linecap: square"/>
   </g>
   <g id="patch_19">
    <path d="M 392.171029 246.04 
L 392.171029 26.88 
" style="fill: none; stroke: #000000; stroke-width: 0.8; stroke-linejoin: miter; stroke-linecap: square"/>
   </g>
   <g id="patch_20">
    <path d="M 464.205379 246.04 
L 464.205379 26.88 
" style="fill: none; stroke: #000000; stroke-width: 0.8; stroke-linejoin: miter; stroke-linecap: square"/>
   </g>
   <g id="patch_21">
    <path d="M 392.171029 246.04 
L 464.205379 246.04 
" style="fill: none; stroke: #000000; stroke-width: 0.8; stroke-linejoin: miter; stroke-linecap: square"/>
   </g>
   <g id="patch_22">
    <path d="M 392.171029 26.88 
L 464.205379 26.88 
" style="fill: none; stroke: #000000; stroke-width: 0.8; stroke-linejoin: miter; stroke-linecap: square"/>
   </g>
   <g id="text_34">
    <!-- Satellite 3 -->
    <g transform="translate(397.889141 20.88) scale(0.12 -0.12)">
     <defs>
      <path id="DejaVuSans-33" d="M 2597 2516 
Q 3050 2419 3304 2112 
Q 3559 1806 3559 1356 
Q 3559 666 3084 287 
Q 2609 -91 1734 -91 
Q 1441 -91 1130 -33 
Q 819 25 488 141 
L 488 750 
Q 750 597 1062 519 
Q 1375 441 1716 441 
Q 2309 441 2620 675 
Q 2931 909 2931 1356 
Q 2931 1769 2642 2001 
Q 2353 2234 1838 2234 
L 1294 2234 
L 1294 2753 
L 1863 2753 
Q 2328 2753 2575 2939 
Q 2822 3125 2822 3475 
Q 2822 3834 2567 4026 
Q 2313 4219 1838 4219 
Q 1578 4219 1281 4162 
Q 984 4106 628 3988 
L 628 4550 
Q 988 4650 1302 4700 
Q 1616 4750 1894 4750 
Q 2613 4750 3031 4423 
Q 3450 4097 3450 3541 
Q 3450 3153 3228 2886 
Q 3006 2619 2597 2516 
z
" transform="scale(0.015625)"/>
     </defs>
     <use xlink:href="#DejaVuSans-53"/>
     <use xlink:href="#DejaVuSans-61" transform="translate(63.476562 0)"/>
     <use xlink:href="#DejaVuSans-74" transform="translate(124.755859 0)"/>
     <use xlink:href="#DejaVuSans-65" transform="translate(163.964844 0)"/>
     <use xlink:href="#DejaVuSans-6c" transform="translate(225.488281 0)"/>
     <use xlink:href="#DejaVuSans-6c" transform="translate(253.271484 0)"/>
     <use xlink:href="#DejaVuSans-69" transform="translate(281.054688 0)"/>
     <use xlink:href="#DejaVuSans-74" transform="translate(308.837891 0)"/>
     <use xlink:href="#DejaVuSans-65" transform="translate(348.046875 0)"/>
     <use xlink:href="#DejaVuSans-20" transform="translate(409.570312 0)"/>
     <use xlink:href="#DejaVuSans-33" transform="translate(441.357422 0)"/>
    </g>
   </g>
  </g>
 </g>
 <defs>
  <clipPath id="p006f9f1491">
   <rect x="79.829231" y="26.88" width="70.571498" height="219.16"/>
  </clipPath>
  <clipPath id="pf7da072ef9">
   <rect x="236.446894" y="26.88" width="70.409396" height="219.16"/>
  </clipPath>
  <clipPath id="pfdfee4cd3e">
   <rect x="392.171029" y="26.88" width="72.03435" height="219.16"/>
  </clipPath>
 </defs>
</svg>
