<?xml version="1.0" encoding="utf-8" standalone="no"?>
<!DOCTYPE svg PUBLIC "-//W3C//DTD SVG 1.1//EN"
  "http://www.w3.org/Graphics/SVG/1.1/DTD/svg11.dtd">
<svg xmlns:xlink="http://www.w3.org/1999/xlink" width="792pt" height="288pt" viewBox="0 0 792 288" xmlns="http://www.w3.org/2000/svg" version="1.1">
 <metadata>
  <rdf:RDF xmlns:dc="http://purl.org/dc/elements/1.1/" xmlns:cc="http://creativecommons.org/ns#" xmlns:rdf="http://www.w3.org/1999/02/22-rdf-syntax-ns#">
   <cc:Work>
    <dc:type rdf:resource="http://purl.org/dc/dcmitype/StillImage"/>
    <dc:date>2025-02-24T01:39:33.846014</dc:date>
    <dc:format>image/svg+xml</dc:format>
    <dc:creator>
     <cc:Agent>
      <dc:title>Matplotlib v3.10.0, https://matplotlib.org/</dc:title>
     </cc:Agent>
    </dc:creator>
   </cc:Work>
  </rdf:RDF>
 </metadata>
 <defs>
  <style type="text/css">*{stroke-linejoin: round; stroke-linecap: butt}</style>
 </defs>
 <g id="figure_1">
  <g id="patch_1">
   <path d="M 0 288 
L 792 288 
L 792 0 
L 0 0 
z
" style="fill: #ffffff"/>
  </g>
  <g id="axes_1">
   <g id="patch_2">
    <path d="M 71.84 246.04 
L 265.347549 246.04 
L 265.347549 26.88 
L 71.84 26.88 
z
" style="fill: #ffffff"/>
   </g>
   <g id="patch_3">
    <path d="M 168.598217 151.870753 
C 168.595028 130.311259 168.591502 109.631884 168.588414 94.38702 
C 168.585326 79.142155 168.582929 70.576478 168.581751 70.576478 
C 168.580572 70.576478 168.580709 79.142155 168.582131 94.38702 
C 168.583552 109.631884 168.586143 130.311259 168.589332 151.870753 
C 168.592521 173.430246 168.596047 194.109622 168.599135 209.354486 
C 168.602223 224.59935 168.60462 233.165028 168.605798 233.165028 
C 168.606977 233.165028 168.60684 224.59935 168.605418 209.354486 
C 168.603997 194.109622 168.601406 173.430246 168.598217 151.870753 
L 168.598217 151.870753 
z
" clip-path="url(#p4a60f4bf2d)" style="fill: none; stroke: #0000ff; stroke-width: 2; stroke-linejoin: miter"/>
   </g>
   <g id="patch_4">
    <path d="M 168.593775 50.537885 
C 191.920503 50.537885 214.294969 49.816333 230.789456 48.532143 
C 247.283944 47.247952 256.551751 45.505971 256.551751 43.689852 
C 256.551751 41.873732 247.283944 40.131751 230.789456 38.847561 
C 214.294969 37.56337 191.920503 36.841818 168.593775 36.841818 
C 145.267046 36.841818 122.89258 37.56337 106.398093 38.847561 
C 89.903605 40.131751 80.635798 41.873732 80.635798 43.689852 
C 80.635798 45.505971 89.903605 47.247952 106.398093 48.532143 
C 122.89258 49.816333 145.267046 50.537885 168.593775 50.537885 
L 168.593775 50.537885 
z
" clip-path="url(#p4a60f4bf2d)" style="fill: none; stroke: #000000; stroke-linejoin: miter"/>
   </g>
   <g id="PathCollection_1">
    <defs>
     <path id="mb9d7c7bd61" d="M -2.236068 0 
L 2.236068 0 
M 0 2.236068 
L 0 -2.236068 
" style="stroke: #000000; stroke-width: 1.5"/>
    </defs>
    <g clip-path="url(#p4a60f4bf2d)">
     <use xlink:href="#mb9d7c7bd61" x="168.593775" y="43.689852" style="stroke: #000000; stroke-width: 1.5"/>
    </g>
   </g>
   <g id="matplotlib.axis_1">
    <g id="xtick_1">
     <g id="line2d_1">
      <defs>
       <path id="mfd4f08630d" d="M 0 0 
L 0 3.5 
" style="stroke: #000000; stroke-width: 0.8"/>
      </defs>
      <g>
       <use xlink:href="#mfd4f08630d" x="80.635798" y="246.04" style="stroke: #000000; stroke-width: 0.8"/>
      </g>
     </g>
     <g id="text_1">
      <!-- −1000 -->
      <g transform="translate(63.720954 260.638438) scale(0.1 -0.1)">
       <defs>
        <path id="DejaVuSans-2212" d="M 678 2272 
L 4684 2272 
L 4684 1741 
L 678 1741 
L 678 2272 
z
" transform="scale(0.015625)"/>
        <path id="DejaVuSans-31" d="M 794 531 
L 1825 531 
L 1825 4091 
L 703 3866 
L 703 4441 
L 1819 4666 
L 2450 4666 
L 2450 531 
L 3481 531 
L 3481 0 
L 794 0 
L 794 531 
z
" transform="scale(0.015625)"/>
        <path id="DejaVuSans-30" d="M 2034 4250 
Q 1547 4250 1301 3770 
Q 1056 3291 1056 2328 
Q 1056 1369 1301 889 
Q 1547 409 2034 409 
Q 2525 409 2770 889 
Q 3016 1369 3016 2328 
Q 3016 3291 2770 3770 
Q 2525 4250 2034 4250 
z
M 2034 4750 
Q 2819 4750 3233 4129 
Q 3647 3509 3647 2328 
Q 3647 1150 3233 529 
Q 2819 -91 2034 -91 
Q 1250 -91 836 529 
Q 422 1150 422 2328 
Q 422 3509 836 4129 
Q 1250 4750 2034 4750 
z
" transform="scale(0.015625)"/>
       </defs>
       <use xlink:href="#DejaVuSans-2212"/>
       <use xlink:href="#DejaVuSans-31" transform="translate(83.789062 0)"/>
       <use xlink:href="#DejaVuSans-30" transform="translate(147.412109 0)"/>
       <use xlink:href="#DejaVuSans-30" transform="translate(211.035156 0)"/>
       <use xlink:href="#DejaVuSans-30" transform="translate(274.658203 0)"/>
      </g>
     </g>
    </g>
    <g id="xtick_2">
     <g id="line2d_2">
      <g>
       <use xlink:href="#mfd4f08630d" x="124.614786" y="246.04" style="stroke: #000000; stroke-width: 0.8"/>
      </g>
     </g>
     <g id="text_2">
      <!-- −500 -->
      <g transform="translate(110.881192 260.638438) scale(0.1 -0.1)">
       <defs>
        <path id="DejaVuSans-35" d="M 691 4666 
L 3169 4666 
L 3169 4134 
L 1269 4134 
L 1269 2991 
Q 1406 3038 1543 3061 
Q 1681 3084 1819 3084 
Q 2600 3084 3056 2656 
Q 3513 2228 3513 1497 
Q 3513 744 3044 326 
Q 2575 -91 1722 -91 
Q 1428 -91 1123 -41 
Q 819 9 494 109 
L 494 744 
Q 775 591 1075 516 
Q 1375 441 1709 441 
Q 2250 441 2565 725 
Q 2881 1009 2881 1497 
Q 2881 1984 2565 2268 
Q 2250 2553 1709 2553 
Q 1456 2553 1204 2497 
Q 953 2441 691 2322 
L 691 4666 
z
" transform="scale(0.015625)"/>
       </defs>
       <use xlink:href="#DejaVuSans-2212"/>
       <use xlink:href="#DejaVuSans-35" transform="translate(83.789062 0)"/>
       <use xlink:href="#DejaVuSans-30" transform="translate(147.412109 0)"/>
       <use xlink:href="#DejaVuSans-30" transform="translate(211.035156 0)"/>
      </g>
     </g>
    </g>
    <g id="xtick_3">
     <g id="line2d_3">
      <g>
       <use xlink:href="#mfd4f08630d" x="168.593775" y="246.04" style="stroke: #000000; stroke-width: 0.8"/>
      </g>
     </g>
     <g id="text_3">
      <!-- 0 -->
      <g transform="translate(165.412525 260.638438) scale(0.1 -0.1)">
       <use xlink:href="#DejaVuSans-30"/>
      </g>
     </g>
    </g>
    <g id="xtick_4">
     <g id="line2d_4">
      <g>
       <use xlink:href="#mfd4f08630d" x="212.572763" y="246.04" style="stroke: #000000; stroke-width: 0.8"/>
      </g>
     </g>
     <g id="text_4">
      <!-- 500 -->
      <g transform="translate(203.029013 260.638438) scale(0.1 -0.1)">
       <use xlink:href="#DejaVuSans-35"/>
       <use xlink:href="#DejaVuSans-30" transform="translate(63.623047 0)"/>
       <use xlink:href="#DejaVuSans-30" transform="translate(127.246094 0)"/>
      </g>
     </g>
    </g>
    <g id="xtick_5">
     <g id="line2d_5">
      <g>
       <use xlink:href="#mfd4f08630d" x="256.551751" y="246.04" style="stroke: #000000; stroke-width: 0.8"/>
      </g>
     </g>
     <g id="text_5">
      <!-- 1000 -->
      <g transform="translate(243.826751 260.638438) scale(0.1 -0.1)">
       <use xlink:href="#DejaVuSans-31"/>
       <use xlink:href="#DejaVuSans-30" transform="translate(63.623047 0)"/>
       <use xlink:href="#DejaVuSans-30" transform="translate(127.246094 0)"/>
       <use xlink:href="#DejaVuSans-30" transform="translate(190.869141 0)"/>
      </g>
     </g>
    </g>
    <g id="text_6">
     <!-- Cross-Track (m) -->
     <g transform="translate(130.101587 274.316562) scale(0.1 -0.1)">
      <defs>
       <path id="DejaVuSans-43" d="M 4122 4306 
L 4122 3641 
Q 3803 3938 3442 4084 
Q 3081 4231 2675 4231 
Q 1875 4231 1450 3742 
Q 1025 3253 1025 2328 
Q 1025 1406 1450 917 
Q 1875 428 2675 428 
Q 3081 428 3442 575 
Q 3803 722 4122 1019 
L 4122 359 
Q 3791 134 3420 21 
Q 3050 -91 2638 -91 
Q 1578 -91 968 557 
Q 359 1206 359 2328 
Q 359 3453 968 4101 
Q 1578 4750 2638 4750 
Q 3056 4750 3426 4639 
Q 3797 4528 4122 4306 
z
" transform="scale(0.015625)"/>
       <path id="DejaVuSans-72" d="M 2631 2963 
Q 2534 3019 2420 3045 
Q 2306 3072 2169 3072 
Q 1681 3072 1420 2755 
Q 1159 2438 1159 1844 
L 1159 0 
L 581 0 
L 581 3500 
L 1159 3500 
L 1159 2956 
Q 1341 3275 1631 3429 
Q 1922 3584 2338 3584 
Q 2397 3584 2469 3576 
Q 2541 3569 2628 3553 
L 2631 2963 
z
" transform="scale(0.015625)"/>
       <path id="DejaVuSans-6f" d="M 1959 3097 
Q 1497 3097 1228 2736 
Q 959 2375 959 1747 
Q 959 1119 1226 758 
Q 1494 397 1959 397 
Q 2419 397 2687 759 
Q 2956 1122 2956 1747 
Q 2956 2369 2687 2733 
Q 2419 3097 1959 3097 
z
M 1959 3584 
Q 2709 3584 3137 3096 
Q 3566 2609 3566 1747 
Q 3566 888 3137 398 
Q 2709 -91 1959 -91 
Q 1206 -91 779 398 
Q 353 888 353 1747 
Q 353 2609 779 3096 
Q 1206 3584 1959 3584 
z
" transform="scale(0.015625)"/>
       <path id="DejaVuSans-73" d="M 2834 3397 
L 2834 2853 
Q 2591 2978 2328 3040 
Q 2066 3103 1784 3103 
Q 1356 3103 1142 2972 
Q 928 2841 928 2578 
Q 928 2378 1081 2264 
Q 1234 2150 1697 2047 
L 1894 2003 
Q 2506 1872 2764 1633 
Q 3022 1394 3022 966 
Q 3022 478 2636 193 
Q 2250 -91 1575 -91 
Q 1294 -91 989 -36 
Q 684 19 347 128 
L 347 722 
Q 666 556 975 473 
Q 1284 391 1588 391 
Q 1994 391 2212 530 
Q 2431 669 2431 922 
Q 2431 1156 2273 1281 
Q 2116 1406 1581 1522 
L 1381 1569 
Q 847 1681 609 1914 
Q 372 2147 372 2553 
Q 372 3047 722 3315 
Q 1072 3584 1716 3584 
Q 2034 3584 2315 3537 
Q 2597 3491 2834 3397 
z
" transform="scale(0.015625)"/>
       <path id="DejaVuSans-2d" d="M 313 2009 
L 1997 2009 
L 1997 1497 
L 313 1497 
L 313 2009 
z
" transform="scale(0.015625)"/>
       <path id="DejaVuSans-54" d="M -19 4666 
L 3928 4666 
L 3928 4134 
L 2272 4134 
L 2272 0 
L 1638 0 
L 1638 4134 
L -19 4134 
L -19 4666 
z
" transform="scale(0.015625)"/>
       <path id="DejaVuSans-61" d="M 2194 1759 
Q 1497 1759 1228 1600 
Q 959 1441 959 1056 
Q 959 750 1161 570 
Q 1363 391 1709 391 
Q 2188 391 2477 730 
Q 2766 1069 2766 1631 
L 2766 1759 
L 2194 1759 
z
M 3341 1997 
L 3341 0 
L 2766 0 
L 2766 531 
Q 2569 213 2275 61 
Q 1981 -91 1556 -91 
Q 1019 -91 701 211 
Q 384 513 384 1019 
Q 384 1609 779 1909 
Q 1175 2209 1959 2209 
L 2766 2209 
L 2766 2266 
Q 2766 2663 2505 2880 
Q 2244 3097 1772 3097 
Q 1472 3097 1187 3025 
Q 903 2953 641 2809 
L 641 3341 
Q 956 3463 1253 3523 
Q 1550 3584 1831 3584 
Q 2591 3584 2966 3190 
Q 3341 2797 3341 1997 
z
" transform="scale(0.015625)"/>
       <path id="DejaVuSans-63" d="M 3122 3366 
L 3122 2828 
Q 2878 2963 2633 3030 
Q 2388 3097 2138 3097 
Q 1578 3097 1268 2742 
Q 959 2388 959 1747 
Q 959 1106 1268 751 
Q 1578 397 2138 397 
Q 2388 397 2633 464 
Q 2878 531 3122 666 
L 3122 134 
Q 2881 22 2623 -34 
Q 2366 -91 2075 -91 
Q 1284 -91 818 406 
Q 353 903 353 1747 
Q 353 2603 823 3093 
Q 1294 3584 2113 3584 
Q 2378 3584 2631 3529 
Q 2884 3475 3122 3366 
z
" transform="scale(0.015625)"/>
       <path id="DejaVuSans-6b" d="M 581 4863 
L 1159 4863 
L 1159 1991 
L 2875 3500 
L 3609 3500 
L 1753 1863 
L 3688 0 
L 2938 0 
L 1159 1709 
L 1159 0 
L 581 0 
L 581 4863 
z
" transform="scale(0.015625)"/>
       <path id="DejaVuSans-20" transform="scale(0.015625)"/>
       <path id="DejaVuSans-28" d="M 1984 4856 
Q 1566 4138 1362 3434 
Q 1159 2731 1159 2009 
Q 1159 1288 1364 580 
Q 1569 -128 1984 -844 
L 1484 -844 
Q 1016 -109 783 600 
Q 550 1309 550 2009 
Q 550 2706 781 3412 
Q 1013 4119 1484 4856 
L 1984 4856 
z
" transform="scale(0.015625)"/>
       <path id="DejaVuSans-6d" d="M 3328 2828 
Q 3544 3216 3844 3400 
Q 4144 3584 4550 3584 
Q 5097 3584 5394 3201 
Q 5691 2819 5691 2113 
L 5691 0 
L 5113 0 
L 5113 2094 
Q 5113 2597 4934 2840 
Q 4756 3084 4391 3084 
Q 3944 3084 3684 2787 
Q 3425 2491 3425 1978 
L 3425 0 
L 2847 0 
L 2847 2094 
Q 2847 2600 2669 2842 
Q 2491 3084 2119 3084 
Q 1678 3084 1418 2786 
Q 1159 2488 1159 1978 
L 1159 0 
L 581 0 
L 581 3500 
L 1159 3500 
L 1159 2956 
Q 1356 3278 1631 3431 
Q 1906 3584 2284 3584 
Q 2666 3584 2933 3390 
Q 3200 3197 3328 2828 
z
" transform="scale(0.015625)"/>
       <path id="DejaVuSans-29" d="M 513 4856 
L 1013 4856 
Q 1481 4119 1714 3412 
Q 1947 2706 1947 2009 
Q 1947 1309 1714 600 
Q 1481 -109 1013 -844 
L 513 -844 
Q 928 -128 1133 580 
Q 1338 1288 1338 2009 
Q 1338 2731 1133 3434 
Q 928 4138 513 4856 
z
" transform="scale(0.015625)"/>
      </defs>
      <use xlink:href="#DejaVuSans-43"/>
      <use xlink:href="#DejaVuSans-72" transform="translate(69.824219 0)"/>
      <use xlink:href="#DejaVuSans-6f" transform="translate(108.6875 0)"/>
      <use xlink:href="#DejaVuSans-73" transform="translate(169.869141 0)"/>
      <use xlink:href="#DejaVuSans-73" transform="translate(221.96875 0)"/>
      <use xlink:href="#DejaVuSans-2d" transform="translate(274.068359 0)"/>
      <use xlink:href="#DejaVuSans-54" transform="translate(301.027344 0)"/>
      <use xlink:href="#DejaVuSans-72" transform="translate(347.361328 0)"/>
      <use xlink:href="#DejaVuSans-61" transform="translate(388.474609 0)"/>
      <use xlink:href="#DejaVuSans-63" transform="translate(449.753906 0)"/>
      <use xlink:href="#DejaVuSans-6b" transform="translate(504.734375 0)"/>
      <use xlink:href="#DejaVuSans-20" transform="translate(562.644531 0)"/>
      <use xlink:href="#DejaVuSans-28" transform="translate(594.431641 0)"/>
      <use xlink:href="#DejaVuSans-6d" transform="translate(633.445312 0)"/>
      <use xlink:href="#DejaVuSans-29" transform="translate(730.857422 0)"/>
     </g>
    </g>
   </g>
   <g id="matplotlib.axis_2">
    <g id="ytick_1">
     <g id="line2d_6">
      <defs>
       <path id="maf5bb4b171" d="M 0 0 
L -3.5 0 
" style="stroke: #000000; stroke-width: 0.8"/>
      </defs>
      <g>
       <use xlink:href="#maf5bb4b171" x="71.84" y="214.89069" style="stroke: #000000; stroke-width: 0.8"/>
      </g>
     </g>
     <g id="text_7">
      <!-- −25000 -->
      <g transform="translate(24.647813 218.689908) scale(0.1 -0.1)">
       <defs>
        <path id="DejaVuSans-32" d="M 1228 531 
L 3431 531 
L 3431 0 
L 469 0 
L 469 531 
Q 828 903 1448 1529 
Q 2069 2156 2228 2338 
Q 2531 2678 2651 2914 
Q 2772 3150 2772 3378 
Q 2772 3750 2511 3984 
Q 2250 4219 1831 4219 
Q 1534 4219 1204 4116 
Q 875 4013 500 3803 
L 500 4441 
Q 881 4594 1212 4672 
Q 1544 4750 1819 4750 
Q 2544 4750 2975 4387 
Q 3406 4025 3406 3419 
Q 3406 3131 3298 2873 
Q 3191 2616 2906 2266 
Q 2828 2175 2409 1742 
Q 1991 1309 1228 531 
z
" transform="scale(0.015625)"/>
       </defs>
       <use xlink:href="#DejaVuSans-2212"/>
       <use xlink:href="#DejaVuSans-32" transform="translate(83.789062 0)"/>
       <use xlink:href="#DejaVuSans-35" transform="translate(147.412109 0)"/>
       <use xlink:href="#DejaVuSans-30" transform="translate(211.035156 0)"/>
       <use xlink:href="#DejaVuSans-30" transform="translate(274.658203 0)"/>
       <use xlink:href="#DejaVuSans-30" transform="translate(338.28125 0)"/>
      </g>
     </g>
    </g>
    <g id="ytick_2">
     <g id="line2d_7">
      <g>
       <use xlink:href="#maf5bb4b171" x="71.84" y="180.650522" style="stroke: #000000; stroke-width: 0.8"/>
      </g>
     </g>
     <g id="text_8">
      <!-- −20000 -->
      <g transform="translate(24.647813 184.449741) scale(0.1 -0.1)">
       <use xlink:href="#DejaVuSans-2212"/>
       <use xlink:href="#DejaVuSans-32" transform="translate(83.789062 0)"/>
       <use xlink:href="#DejaVuSans-30" transform="translate(147.412109 0)"/>
       <use xlink:href="#DejaVuSans-30" transform="translate(211.035156 0)"/>
       <use xlink:href="#DejaVuSans-30" transform="translate(274.658203 0)"/>
       <use xlink:href="#DejaVuSans-30" transform="translate(338.28125 0)"/>
      </g>
     </g>
    </g>
    <g id="ytick_3">
     <g id="line2d_8">
      <g>
       <use xlink:href="#maf5bb4b171" x="71.84" y="146.410355" style="stroke: #000000; stroke-width: 0.8"/>
      </g>
     </g>
     <g id="text_9">
      <!-- −15000 -->
      <g transform="translate(24.647813 150.209573) scale(0.1 -0.1)">
       <use xlink:href="#DejaVuSans-2212"/>
       <use xlink:href="#DejaVuSans-31" transform="translate(83.789062 0)"/>
       <use xlink:href="#DejaVuSans-35" transform="translate(147.412109 0)"/>
       <use xlink:href="#DejaVuSans-30" transform="translate(211.035156 0)"/>
       <use xlink:href="#DejaVuSans-30" transform="translate(274.658203 0)"/>
       <use xlink:href="#DejaVuSans-30" transform="translate(338.28125 0)"/>
      </g>
     </g>
    </g>
    <g id="ytick_4">
     <g id="line2d_9">
      <g>
       <use xlink:href="#maf5bb4b171" x="71.84" y="112.170187" style="stroke: #000000; stroke-width: 0.8"/>
      </g>
     </g>
     <g id="text_10">
      <!-- −10000 -->
      <g transform="translate(24.647813 115.969406) scale(0.1 -0.1)">
       <use xlink:href="#DejaVuSans-2212"/>
       <use xlink:href="#DejaVuSans-31" transform="translate(83.789062 0)"/>
       <use xlink:href="#DejaVuSans-30" transform="translate(147.412109 0)"/>
       <use xlink:href="#DejaVuSans-30" transform="translate(211.035156 0)"/>
       <use xlink:href="#DejaVuSans-30" transform="translate(274.658203 0)"/>
       <use xlink:href="#DejaVuSans-30" transform="translate(338.28125 0)"/>
      </g>
     </g>
    </g>
    <g id="ytick_5">
     <g id="line2d_10">
      <g>
       <use xlink:href="#maf5bb4b171" x="71.84" y="77.930019" style="stroke: #000000; stroke-width: 0.8"/>
      </g>
     </g>
     <g id="text_11">
      <!-- −5000 -->
      <g transform="translate(31.010313 81.729238) scale(0.1 -0.1)">
       <use xlink:href="#DejaVuSans-2212"/>
       <use xlink:href="#DejaVuSans-35" transform="translate(83.789062 0)"/>
       <use xlink:href="#DejaVuSans-30" transform="translate(147.412109 0)"/>
       <use xlink:href="#DejaVuSans-30" transform="translate(211.035156 0)"/>
       <use xlink:href="#DejaVuSans-30" transform="translate(274.658203 0)"/>
      </g>
     </g>
    </g>
    <g id="ytick_6">
     <g id="line2d_11">
      <g>
       <use xlink:href="#maf5bb4b171" x="71.84" y="43.689852" style="stroke: #000000; stroke-width: 0.8"/>
      </g>
     </g>
     <g id="text_12">
      <!-- 0 -->
      <g transform="translate(58.4775 47.48907) scale(0.1 -0.1)">
       <use xlink:href="#DejaVuSans-30"/>
      </g>
     </g>
    </g>
    <g id="text_13">
     <!-- Radial (m) -->
     <g transform="translate(18.568125 162.263125) rotate(-90) scale(0.1 -0.1)">
      <defs>
       <path id="DejaVuSans-52" d="M 2841 2188 
Q 3044 2119 3236 1894 
Q 3428 1669 3622 1275 
L 4263 0 
L 3584 0 
L 2988 1197 
Q 2756 1666 2539 1819 
Q 2322 1972 1947 1972 
L 1259 1972 
L 1259 0 
L 628 0 
L 628 4666 
L 2053 4666 
Q 2853 4666 3247 4331 
Q 3641 3997 3641 3322 
Q 3641 2881 3436 2590 
Q 3231 2300 2841 2188 
z
M 1259 4147 
L 1259 2491 
L 2053 2491 
Q 2509 2491 2742 2702 
Q 2975 2913 2975 3322 
Q 2975 3731 2742 3939 
Q 2509 4147 2053 4147 
L 1259 4147 
z
" transform="scale(0.015625)"/>
       <path id="DejaVuSans-64" d="M 2906 2969 
L 2906 4863 
L 3481 4863 
L 3481 0 
L 2906 0 
L 2906 525 
Q 2725 213 2448 61 
Q 2172 -91 1784 -91 
Q 1150 -91 751 415 
Q 353 922 353 1747 
Q 353 2572 751 3078 
Q 1150 3584 1784 3584 
Q 2172 3584 2448 3432 
Q 2725 3281 2906 2969 
z
M 947 1747 
Q 947 1113 1208 752 
Q 1469 391 1925 391 
Q 2381 391 2643 752 
Q 2906 1113 2906 1747 
Q 2906 2381 2643 2742 
Q 2381 3103 1925 3103 
Q 1469 3103 1208 2742 
Q 947 2381 947 1747 
z
" transform="scale(0.015625)"/>
       <path id="DejaVuSans-69" d="M 603 3500 
L 1178 3500 
L 1178 0 
L 603 0 
L 603 3500 
z
M 603 4863 
L 1178 4863 
L 1178 4134 
L 603 4134 
L 603 4863 
z
" transform="scale(0.015625)"/>
       <path id="DejaVuSans-6c" d="M 603 4863 
L 1178 4863 
L 1178 0 
L 603 0 
L 603 4863 
z
" transform="scale(0.015625)"/>
      </defs>
      <use xlink:href="#DejaVuSans-52"/>
      <use xlink:href="#DejaVuSans-61" transform="translate(67.232422 0)"/>
      <use xlink:href="#DejaVuSans-64" transform="translate(128.511719 0)"/>
      <use xlink:href="#DejaVuSans-69" transform="translate(191.988281 0)"/>
      <use xlink:href="#DejaVuSans-61" transform="translate(219.771484 0)"/>
      <use xlink:href="#DejaVuSans-6c" transform="translate(281.050781 0)"/>
      <use xlink:href="#DejaVuSans-20" transform="translate(308.833984 0)"/>
      <use xlink:href="#DejaVuSans-28" transform="translate(340.621094 0)"/>
      <use xlink:href="#DejaVuSans-6d" transform="translate(379.634766 0)"/>
      <use xlink:href="#DejaVuSans-29" transform="translate(477.046875 0)"/>
     </g>
    </g>
   </g>
   <g id="patch_5">
    <path d="M 71.84 246.04 
L 71.84 26.88 
" style="fill: none; stroke: #000000; stroke-width: 0.8; stroke-linejoin: miter; stroke-linecap: square"/>
   </g>
   <g id="patch_6">
    <path d="M 265.347549 246.04 
L 265.347549 26.88 
" style="fill: none; stroke: #000000; stroke-width: 0.8; stroke-linejoin: miter; stroke-linecap: square"/>
   </g>
   <g id="patch_7">
    <path d="M 71.84 246.04 
L 265.347549 246.04 
" style="fill: none; stroke: #000000; stroke-width: 0.8; stroke-linejoin: miter; stroke-linecap: square"/>
   </g>
   <g id="patch_8">
    <path d="M 71.84 26.88 
L 265.347549 26.88 
" style="fill: none; stroke: #000000; stroke-width: 0.8; stroke-linejoin: miter; stroke-linecap: square"/>
   </g>
   <g id="text_14">
    <!-- Satellite 1 -->
    <g transform="translate(138.294712 20.88) scale(0.12 -0.12)">
     <defs>
      <path id="DejaVuSans-53" d="M 3425 4513 
L 3425 3897 
Q 3066 4069 2747 4153 
Q 2428 4238 2131 4238 
Q 1616 4238 1336 4038 
Q 1056 3838 1056 3469 
Q 1056 3159 1242 3001 
Q 1428 2844 1947 2747 
L 2328 2669 
Q 3034 2534 3370 2195 
Q 3706 1856 3706 1288 
Q 3706 609 3251 259 
Q 2797 -91 1919 -91 
Q 1588 -91 1214 -16 
Q 841 59 441 206 
L 441 856 
Q 825 641 1194 531 
Q 1563 422 1919 422 
Q 2459 422 2753 634 
Q 3047 847 3047 1241 
Q 3047 1584 2836 1778 
Q 2625 1972 2144 2069 
L 1759 2144 
Q 1053 2284 737 2584 
Q 422 2884 422 3419 
Q 422 4038 858 4394 
Q 1294 4750 2059 4750 
Q 2388 4750 2728 4690 
Q 3069 4631 3425 4513 
z
" transform="scale(0.015625)"/>
      <path id="DejaVuSans-74" d="M 1172 4494 
L 1172 3500 
L 2356 3500 
L 2356 3053 
L 1172 3053 
L 1172 1153 
Q 1172 725 1289 603 
Q 1406 481 1766 481 
L 2356 481 
L 2356 0 
L 1766 0 
Q 1100 0 847 248 
Q 594 497 594 1153 
L 594 3053 
L 172 3053 
L 172 3500 
L 594 3500 
L 594 4494 
L 1172 4494 
z
" transform="scale(0.015625)"/>
      <path id="DejaVuSans-65" d="M 3597 1894 
L 3597 1613 
L 953 1613 
Q 991 1019 1311 708 
Q 1631 397 2203 397 
Q 2534 397 2845 478 
Q 3156 559 3463 722 
L 3463 178 
Q 3153 47 2828 -22 
Q 2503 -91 2169 -91 
Q 1331 -91 842 396 
Q 353 884 353 1716 
Q 353 2575 817 3079 
Q 1281 3584 2069 3584 
Q 2775 3584 3186 3129 
Q 3597 2675 3597 1894 
z
M 3022 2063 
Q 3016 2534 2758 2815 
Q 2500 3097 2075 3097 
Q 1594 3097 1305 2825 
Q 1016 2553 972 2059 
L 3022 2063 
z
" transform="scale(0.015625)"/>
     </defs>
     <use xlink:href="#DejaVuSans-53"/>
     <use xlink:href="#DejaVuSans-61" transform="translate(63.476562 0)"/>
     <use xlink:href="#DejaVuSans-74" transform="translate(124.755859 0)"/>
     <use xlink:href="#DejaVuSans-65" transform="translate(163.964844 0)"/>
     <use xlink:href="#DejaVuSans-6c" transform="translate(225.488281 0)"/>
     <use xlink:href="#DejaVuSans-6c" transform="translate(253.271484 0)"/>
     <use xlink:href="#DejaVuSans-69" transform="translate(281.054688 0)"/>
     <use xlink:href="#DejaVuSans-74" transform="translate(308.837891 0)"/>
     <use xlink:href="#DejaVuSans-65" transform="translate(348.046875 0)"/>
     <use xlink:href="#DejaVuSans-20" transform="translate(409.570312 0)"/>
     <use xlink:href="#DejaVuSans-31" transform="translate(441.357422 0)"/>
    </g>
   </g>
   <g id="line2d_12">
    <path d="M 168.581894 70.890091 
L 168.570325 71.008961 
L 168.559101 71.206942 
L 168.548257 71.483837 
L 168.537825 71.839375 
L 168.527837 72.273208 
L 168.518325 72.784914 
L 168.509318 73.373995 
L 168.500847 74.039878 
L 168.49294 74.781917 
L 168.485624 75.599395 
L 168.478926 76.491519 
L 168.472872 77.457426 
L 168.467485 78.496183 
L 168.462789 79.606787 
L 168.458805 80.788165 
L 168.455555 82.039178 
L 168.453057 83.35862 
L 168.451329 84.745219 
L 168.450388 86.197638 
L 168.450249 87.714481 
L 168.450926 89.294286 
L 168.452431 90.935533 
L 168.454775 92.636645 
L 168.457967 94.395985 
L 168.462015 96.211864 
L 168.466926 98.082535 
L 168.472704 100.006203 
L 168.479353 101.981021 
L 168.486873 104.005093 
L 168.495266 106.076476 
L 168.504528 108.193184 
L 168.514658 110.353186 
L 168.525651 112.554412 
L 168.537499 114.79475 
L 168.550195 117.072055 
L 168.56373 119.384143 
L 168.578092 121.728799 
L 168.593268 124.103778 
L 168.609244 126.506806 
L 168.626003 128.935581 
L 168.64353 131.387778 
L 168.661804 133.861051 
L 168.680804 136.353031 
L 168.70051 138.861334 
L 168.720897 141.38356 
L 168.74194 143.917296 
L 168.763614 146.460119 
L 168.78589 149.009596 
L 168.808739 151.563288 
L 168.83213 154.118753 
L 168.856033 156.673548 
L 168.880414 159.22523 
L 168.90524 161.771358 
L 168.930473 164.309499 
L 168.95608 166.837225 
L 168.982021 169.352121 
L 169.008258 171.851781 
L 169.034753 174.333817 
L 169.061464 176.795855 
L 169.08835 179.235542 
L 169.115369 181.650546 
L 169.142479 184.038559 
L 169.169636 186.397297 
L 169.196795 188.724506 
L 169.223913 191.017962 
L 169.250943 193.275473 
L 169.277841 195.49488 
L 169.304559 197.674063 
L 169.331053 199.81094 
L 169.357274 201.903466 
L 169.383176 203.949644 
L 169.408713 205.947518 
L 169.433836 207.895178 
L 169.4585 209.790764 
L 169.482656 211.632465 
L 169.506259 213.418523 
L 169.529262 215.147231 
L 169.551618 216.816939 
L 169.573281 218.426053 
L 169.594206 219.973037 
L 169.614349 221.456417 
L 169.633663 222.874778 
L 169.652106 224.226767 
L 169.669634 225.511098 
L 169.686206 226.726547 
L 169.701779 227.87196 
L 169.716312 228.946248 
L 169.729767 229.948392 
L 169.742105 230.877442 
L 169.753287 231.73252 
L 169.763278 232.512818 
L 169.772043 233.217603 
L 169.779546 233.846213 
L 169.785758 234.398062 
L 169.790644 234.872637 
L 169.794178 235.269501 
L 169.796329 235.588292 
L 169.797072 235.828727 
L 169.796381 235.990595 
L 169.794233 236.073765 
L 169.790607 236.078182 
L 169.785483 236.003868 
L 169.778842 235.850922 
L 169.770669 235.619521 
L 169.760949 235.309917 
L 169.74967 234.922442 
L 169.73682 234.4575 
L 169.722393 233.915577 
L 169.706381 233.297229 
L 169.688779 232.603092 
L 169.669587 231.833873 
L 169.648802 230.990357 
L 169.626427 230.073399 
" clip-path="url(#p4a60f4bf2d)" style="fill: none; stroke: #000000; stroke-opacity: 0.5; stroke-width: 1.5; stroke-linecap: square"/>
   </g>
  </g>
  <g id="axes_2">
   <g id="patch_9">
    <path d="M 327.546667 246.04 
L 521.054216 246.04 
L 521.054216 26.88 
L 327.546667 26.88 
z
" style="fill: #ffffff"/>
   </g>
   <g id="patch_10">
    <path d="M 442.3114 149.108132 
C 419.532602 127.469427 395.792224 106.977685 376.318809 92.145977 
C 356.845394 77.314268 343.22886 69.353535 338.46809 70.017037 
C 333.70732 70.680539 338.19101 79.914103 350.93168 95.684145 
C 363.672349 111.454187 383.629779 132.473153 406.408577 154.111858 
C 429.187375 175.750564 452.927753 196.242305 472.401168 211.074014 
C 491.874583 225.905722 505.491117 233.866455 510.251887 233.202954 
C 515.012657 232.539452 510.528967 223.305887 497.788298 207.535845 
C 485.047628 191.765803 465.090198 170.746838 442.3114 149.108132 
L 442.3114 149.108132 
z
" clip-path="url(#pccebb9c266)" style="fill: none; stroke: #0000ff; stroke-width: 2; stroke-linejoin: miter"/>
   </g>
   <g id="patch_11">
    <path d="M 424.359989 50.506425 
C 429.339802 50.506425 434.116325 49.786531 437.637585 48.50529 
C 441.158844 47.224049 443.137345 45.48607 443.137345 43.674122 
C 443.137345 41.862174 441.158844 40.124194 437.637585 38.842954 
C 434.116325 37.561713 429.339802 36.841818 424.359989 36.841818 
C 419.380175 36.841818 414.603652 37.561713 411.082392 38.842954 
C 407.561133 40.124194 405.582632 41.862174 405.582632 43.674122 
C 405.582632 45.48607 407.561133 47.224049 411.082392 48.50529 
C 414.603652 49.786531 419.380175 50.506425 424.359989 50.506425 
L 424.359989 50.506425 
z
" clip-path="url(#pccebb9c266)" style="fill: none; stroke: #000000; stroke-linejoin: miter"/>
   </g>
   <g id="PathCollection_2">
    <g clip-path="url(#pccebb9c266)">
     <use xlink:href="#mb9d7c7bd61" x="424.359989" y="43.674122" style="stroke: #000000; stroke-width: 1.5"/>
    </g>
   </g>
   <g id="matplotlib.axis_3">
    <g id="xtick_6">
     <g id="line2d_13">
      <g>
       <use xlink:href="#mfd4f08630d" x="349.250562" y="246.04" style="stroke: #000000; stroke-width: 0.8"/>
      </g>
     </g>
     <g id="text_15">
      <!-- −4000 -->
      <g transform="translate(332.335719 260.638438) scale(0.1 -0.1)">
       <defs>
        <path id="DejaVuSans-34" d="M 2419 4116 
L 825 1625 
L 2419 1625 
L 2419 4116 
z
M 2253 4666 
L 3047 4666 
L 3047 1625 
L 3713 1625 
L 3713 1100 
L 3047 1100 
L 3047 0 
L 2419 0 
L 2419 1100 
L 313 1100 
L 313 1709 
L 2253 4666 
z
" transform="scale(0.015625)"/>
       </defs>
       <use xlink:href="#DejaVuSans-2212"/>
       <use xlink:href="#DejaVuSans-34" transform="translate(83.789062 0)"/>
       <use xlink:href="#DejaVuSans-30" transform="translate(147.412109 0)"/>
       <use xlink:href="#DejaVuSans-30" transform="translate(211.035156 0)"/>
       <use xlink:href="#DejaVuSans-30" transform="translate(274.658203 0)"/>
      </g>
     </g>
    </g>
    <g id="xtick_7">
     <g id="line2d_14">
      <g>
       <use xlink:href="#mfd4f08630d" x="386.805275" y="246.04" style="stroke: #000000; stroke-width: 0.8"/>
      </g>
     </g>
     <g id="text_16">
      <!-- −2000 -->
      <g transform="translate(369.890432 260.638438) scale(0.1 -0.1)">
       <use xlink:href="#DejaVuSans-2212"/>
       <use xlink:href="#DejaVuSans-32" transform="translate(83.789062 0)"/>
       <use xlink:href="#DejaVuSans-30" transform="translate(147.412109 0)"/>
       <use xlink:href="#DejaVuSans-30" transform="translate(211.035156 0)"/>
       <use xlink:href="#DejaVuSans-30" transform="translate(274.658203 0)"/>
      </g>
     </g>
    </g>
    <g id="xtick_8">
     <g id="line2d_15">
      <g>
       <use xlink:href="#mfd4f08630d" x="424.359989" y="246.04" style="stroke: #000000; stroke-width: 0.8"/>
      </g>
     </g>
     <g id="text_17">
      <!-- 0 -->
      <g transform="translate(421.178739 260.638438) scale(0.1 -0.1)">
       <use xlink:href="#DejaVuSans-30"/>
      </g>
     </g>
    </g>
    <g id="xtick_9">
     <g id="line2d_16">
      <g>
       <use xlink:href="#mfd4f08630d" x="461.914702" y="246.04" style="stroke: #000000; stroke-width: 0.8"/>
      </g>
     </g>
     <g id="text_18">
      <!-- 2000 -->
      <g transform="translate(449.189702 260.638438) scale(0.1 -0.1)">
       <use xlink:href="#DejaVuSans-32"/>
       <use xlink:href="#DejaVuSans-30" transform="translate(63.623047 0)"/>
       <use xlink:href="#DejaVuSans-30" transform="translate(127.246094 0)"/>
       <use xlink:href="#DejaVuSans-30" transform="translate(190.869141 0)"/>
      </g>
     </g>
    </g>
    <g id="xtick_10">
     <g id="line2d_17">
      <g>
       <use xlink:href="#mfd4f08630d" x="499.469415" y="246.04" style="stroke: #000000; stroke-width: 0.8"/>
      </g>
     </g>
     <g id="text_19">
      <!-- 4000 -->
      <g transform="translate(486.744415 260.638438) scale(0.1 -0.1)">
       <use xlink:href="#DejaVuSans-34"/>
       <use xlink:href="#DejaVuSans-30" transform="translate(63.623047 0)"/>
       <use xlink:href="#DejaVuSans-30" transform="translate(127.246094 0)"/>
       <use xlink:href="#DejaVuSans-30" transform="translate(190.869141 0)"/>
      </g>
     </g>
    </g>
    <g id="text_20">
     <!-- Cross-Track (m) -->
     <g transform="translate(385.808254 274.316562) scale(0.1 -0.1)">
      <use xlink:href="#DejaVuSans-43"/>
      <use xlink:href="#DejaVuSans-72" transform="translate(69.824219 0)"/>
      <use xlink:href="#DejaVuSans-6f" transform="translate(108.6875 0)"/>
      <use xlink:href="#DejaVuSans-73" transform="translate(169.869141 0)"/>
      <use xlink:href="#DejaVuSans-73" transform="translate(221.96875 0)"/>
      <use xlink:href="#DejaVuSans-2d" transform="translate(274.068359 0)"/>
      <use xlink:href="#DejaVuSans-54" transform="translate(301.027344 0)"/>
      <use xlink:href="#DejaVuSans-72" transform="translate(347.361328 0)"/>
      <use xlink:href="#DejaVuSans-61" transform="translate(388.474609 0)"/>
      <use xlink:href="#DejaVuSans-63" transform="translate(449.753906 0)"/>
      <use xlink:href="#DejaVuSans-6b" transform="translate(504.734375 0)"/>
      <use xlink:href="#DejaVuSans-20" transform="translate(562.644531 0)"/>
      <use xlink:href="#DejaVuSans-28" transform="translate(594.431641 0)"/>
      <use xlink:href="#DejaVuSans-6d" transform="translate(633.445312 0)"/>
      <use xlink:href="#DejaVuSans-29" transform="translate(730.857422 0)"/>
     </g>
    </g>
   </g>
   <g id="matplotlib.axis_4">
    <g id="ytick_7">
     <g id="line2d_18">
      <g>
       <use xlink:href="#maf5bb4b171" x="327.546667" y="214.481713" style="stroke: #000000; stroke-width: 0.8"/>
      </g>
     </g>
     <g id="text_21">
      <!-- −25000 -->
      <g transform="translate(280.354479 218.280931) scale(0.1 -0.1)">
       <use xlink:href="#DejaVuSans-2212"/>
       <use xlink:href="#DejaVuSans-32" transform="translate(83.789062 0)"/>
       <use xlink:href="#DejaVuSans-35" transform="translate(147.412109 0)"/>
       <use xlink:href="#DejaVuSans-30" transform="translate(211.035156 0)"/>
       <use xlink:href="#DejaVuSans-30" transform="translate(274.658203 0)"/>
       <use xlink:href="#DejaVuSans-30" transform="translate(338.28125 0)"/>
      </g>
     </g>
    </g>
    <g id="ytick_8">
     <g id="line2d_19">
      <g>
       <use xlink:href="#maf5bb4b171" x="327.546667" y="180.320194" style="stroke: #000000; stroke-width: 0.8"/>
      </g>
     </g>
     <g id="text_22">
      <!-- −20000 -->
      <g transform="translate(280.354479 184.119413) scale(0.1 -0.1)">
       <use xlink:href="#DejaVuSans-2212"/>
       <use xlink:href="#DejaVuSans-32" transform="translate(83.789062 0)"/>
       <use xlink:href="#DejaVuSans-30" transform="translate(147.412109 0)"/>
       <use xlink:href="#DejaVuSans-30" transform="translate(211.035156 0)"/>
       <use xlink:href="#DejaVuSans-30" transform="translate(274.658203 0)"/>
       <use xlink:href="#DejaVuSans-30" transform="translate(338.28125 0)"/>
      </g>
     </g>
    </g>
    <g id="ytick_9">
     <g id="line2d_20">
      <g>
       <use xlink:href="#maf5bb4b171" x="327.546667" y="146.158676" style="stroke: #000000; stroke-width: 0.8"/>
      </g>
     </g>
     <g id="text_23">
      <!-- −15000 -->
      <g transform="translate(280.354479 149.957895) scale(0.1 -0.1)">
       <use xlink:href="#DejaVuSans-2212"/>
       <use xlink:href="#DejaVuSans-31" transform="translate(83.789062 0)"/>
       <use xlink:href="#DejaVuSans-35" transform="translate(147.412109 0)"/>
       <use xlink:href="#DejaVuSans-30" transform="translate(211.035156 0)"/>
       <use xlink:href="#DejaVuSans-30" transform="translate(274.658203 0)"/>
       <use xlink:href="#DejaVuSans-30" transform="translate(338.28125 0)"/>
      </g>
     </g>
    </g>
    <g id="ytick_10">
     <g id="line2d_21">
      <g>
       <use xlink:href="#maf5bb4b171" x="327.546667" y="111.997158" style="stroke: #000000; stroke-width: 0.8"/>
      </g>
     </g>
     <g id="text_24">
      <!-- −10000 -->
      <g transform="translate(280.354479 115.796377) scale(0.1 -0.1)">
       <use xlink:href="#DejaVuSans-2212"/>
       <use xlink:href="#DejaVuSans-31" transform="translate(83.789062 0)"/>
       <use xlink:href="#DejaVuSans-30" transform="translate(147.412109 0)"/>
       <use xlink:href="#DejaVuSans-30" transform="translate(211.035156 0)"/>
       <use xlink:href="#DejaVuSans-30" transform="translate(274.658203 0)"/>
       <use xlink:href="#DejaVuSans-30" transform="translate(338.28125 0)"/>
      </g>
     </g>
    </g>
    <g id="ytick_11">
     <g id="line2d_22">
      <g>
       <use xlink:href="#maf5bb4b171" x="327.546667" y="77.83564" style="stroke: #000000; stroke-width: 0.8"/>
      </g>
     </g>
     <g id="text_25">
      <!-- −5000 -->
      <g transform="translate(286.716979 81.634859) scale(0.1 -0.1)">
       <use xlink:href="#DejaVuSans-2212"/>
       <use xlink:href="#DejaVuSans-35" transform="translate(83.789062 0)"/>
       <use xlink:href="#DejaVuSans-30" transform="translate(147.412109 0)"/>
       <use xlink:href="#DejaVuSans-30" transform="translate(211.035156 0)"/>
       <use xlink:href="#DejaVuSans-30" transform="translate(274.658203 0)"/>
      </g>
     </g>
    </g>
    <g id="ytick_12">
     <g id="line2d_23">
      <g>
       <use xlink:href="#maf5bb4b171" x="327.546667" y="43.674122" style="stroke: #000000; stroke-width: 0.8"/>
      </g>
     </g>
     <g id="text_26">
      <!-- 0 -->
      <g transform="translate(314.184167 47.473341) scale(0.1 -0.1)">
       <use xlink:href="#DejaVuSans-30"/>
      </g>
     </g>
    </g>
   </g>
   <g id="line2d_24">
    <path d="M 511.48592 235.494486 
L 511.24467 235.756784 
L 510.505049 236.048858 
L 509.425074 236.029521 
L 508.008896 235.698178 
L 506.26201 235.055459 
L 504.191229 234.103211 
L 500.495829 232.10151 
L 496.122835 229.425968 
L 491.110969 226.097983 
L 485.504686 222.144756 
L 477.191757 215.958614 
L 468.042425 208.81202 
L 458.201213 200.812497 
L 447.823557 192.081222 
L 437.073281 182.751141 
L 426.119952 172.96488 
L 415.136143 162.872499 
L 404.294672 152.629113 
L 393.765848 142.392432 
L 383.714779 132.320256 
L 374.298779 122.567968 
L 365.664922 113.286061 
L 357.947777 104.617762 
L 352.8343 98.60006 
L 348.348972 93.055149 
L 344.530887 88.031078 
L 341.413254 83.571329 
L 339.023119 79.714437 
L 337.844335 77.494745 
L 337.002716 75.566374 
L 336.501465 73.936681 
L 336.342464 72.611864 
L 336.526273 71.596937 
L 336.746541 71.206922 
L 337.052121 70.895715 
L 337.442708 70.663603 
L 338.477285 70.437431 
L 339.846218 70.529169 
L 341.544162 70.938354 
L 343.564503 71.6633 
L 345.899383 72.701105 
L 349.9713 74.835119 
L 354.694704 77.644719 
L 360.028397 81.105249 
L 365.925874 85.186449 
L 372.335718 89.852729 
L 381.582003 96.913696 
L 391.496018 104.833108 
L 401.923964 113.488964 
L 412.703886 122.748098 
L 423.668127 132.468221 
L 434.64588 142.500082 
L 445.465803 152.689738 
L 455.958665 162.880885 
L 465.959971 172.917233 
L 475.312541 182.644875 
L 483.868996 191.914628 
L 491.494111 200.584306 
L 496.528434 206.612349 
L 500.925476 212.175745 
L 504.645753 217.226443 
L 507.655736 221.720825 
L 509.928162 225.62009 
L 511.022849 227.872145 
L 511.775897 229.836011 
L 512.184174 231.504176 
L 512.245914 232.870272 
L 511.960724 233.929107 
L 511.688285 234.342005 
L 511.329593 234.676682 
L 510.354885 235.110212 
L 509.040334 235.228136 
L 507.391028 235.03013 
L 505.41339 234.517105 
L 503.115153 233.691209 
L 500.505333 232.555819 
L 496.029152 230.28282 
L 490.914917 227.344653 
L 485.208002 223.767803 
L 478.959095 219.584456 
L 472.223733 214.832222 
L 472.223733 214.832222 
" clip-path="url(#pccebb9c266)" style="fill: none; stroke: #000000; stroke-opacity: 0.5; stroke-width: 1.5; stroke-linecap: square"/>
   </g>
   <g id="patch_12">
    <path d="M 327.546667 246.04 
L 327.546667 26.88 
" style="fill: none; stroke: #000000; stroke-width: 0.8; stroke-linejoin: miter; stroke-linecap: square"/>
   </g>
   <g id="patch_13">
    <path d="M 521.054216 246.04 
L 521.054216 26.88 
" style="fill: none; stroke: #000000; stroke-width: 0.8; stroke-linejoin: miter; stroke-linecap: square"/>
   </g>
   <g id="patch_14">
    <path d="M 327.546667 246.04 
L 521.054216 246.04 
" style="fill: none; stroke: #000000; stroke-width: 0.8; stroke-linejoin: miter; stroke-linecap: square"/>
   </g>
   <g id="patch_15">
    <path d="M 327.546667 26.88 
L 521.054216 26.88 
" style="fill: none; stroke: #000000; stroke-width: 0.8; stroke-linejoin: miter; stroke-linecap: square"/>
   </g>
   <g id="text_27">
    <!-- Satellite 2 -->
    <g transform="translate(394.001379 20.88) scale(0.12 -0.12)">
     <use xlink:href="#DejaVuSans-53"/>
     <use xlink:href="#DejaVuSans-61" transform="translate(63.476562 0)"/>
     <use xlink:href="#DejaVuSans-74" transform="translate(124.755859 0)"/>
     <use xlink:href="#DejaVuSans-65" transform="translate(163.964844 0)"/>
     <use xlink:href="#DejaVuSans-6c" transform="translate(225.488281 0)"/>
     <use xlink:href="#DejaVuSans-6c" transform="translate(253.271484 0)"/>
     <use xlink:href="#DejaVuSans-69" transform="translate(281.054688 0)"/>
     <use xlink:href="#DejaVuSans-74" transform="translate(308.837891 0)"/>
     <use xlink:href="#DejaVuSans-65" transform="translate(348.046875 0)"/>
     <use xlink:href="#DejaVuSans-20" transform="translate(409.570312 0)"/>
     <use xlink:href="#DejaVuSans-32" transform="translate(441.357422 0)"/>
    </g>
   </g>
  </g>
  <g id="axes_3">
   <g id="patch_16">
    <path d="M 583.253333 246.04 
L 776.760882 246.04 
L 776.760882 26.88 
L 583.253333 26.88 
z
" style="fill: #ffffff"/>
   </g>
   <g id="patch_17">
    <path d="M 672.614211 154.226699 
C 655.455398 175.924174 639.776018 196.739788 629.029272 212.089144 
C 618.282525 227.438499 613.345838 236.06839 615.306457 236.078182 
C 617.267076 236.087974 625.964926 227.476868 639.484406 212.14136 
C 653.003886 196.805853 670.241191 175.99802 687.400004 154.300545 
C 704.558818 132.60307 720.238198 111.787456 730.984944 96.4381 
C 741.73169 81.088745 746.668378 72.458854 744.707759 72.449062 
C 742.74714 72.43927 734.04929 81.050376 720.52981 96.385884 
C 707.010329 111.721391 689.773024 132.529224 672.614211 154.226699 
L 672.614211 154.226699 
z
" clip-path="url(#p3f3ba9a8cf)" style="fill: none; stroke: #0000ff; stroke-width: 2; stroke-linejoin: miter"/>
   </g>
   <g id="patch_18">
    <path d="M 680.007108 50.821786 
C 703.333836 50.821786 725.708302 50.085277 742.20279 48.774467 
C 758.697277 47.463657 767.965085 45.685568 767.965085 43.831802 
C 767.965085 41.978037 758.697277 40.199947 742.20279 38.889137 
C 725.708302 37.578327 703.333836 36.841818 680.007108 36.841818 
C 656.68038 36.841818 634.305914 37.578327 617.811426 38.889137 
C 601.316938 40.199947 592.049131 41.978037 592.049131 43.831802 
C 592.049131 45.685568 601.316938 47.463657 617.811426 48.774467 
C 634.305914 50.085277 656.68038 50.821786 680.007108 50.821786 
L 680.007108 50.821786 
z
" clip-path="url(#p3f3ba9a8cf)" style="fill: none; stroke: #000000; stroke-linejoin: miter"/>
   </g>
   <g id="PathCollection_3">
    <g clip-path="url(#p3f3ba9a8cf)">
     <use xlink:href="#mb9d7c7bd61" x="680.007108" y="43.831802" style="stroke: #000000; stroke-width: 1.5"/>
    </g>
   </g>
   <g id="matplotlib.axis_5">
    <g id="xtick_11">
     <g id="line2d_25">
      <g>
       <use xlink:href="#mfd4f08630d" x="592.049131" y="246.04" style="stroke: #000000; stroke-width: 0.8"/>
      </g>
     </g>
     <g id="text_28">
      <!-- −1000 -->
      <g transform="translate(575.134287 260.638438) scale(0.1 -0.1)">
       <use xlink:href="#DejaVuSans-2212"/>
       <use xlink:href="#DejaVuSans-31" transform="translate(83.789062 0)"/>
       <use xlink:href="#DejaVuSans-30" transform="translate(147.412109 0)"/>
       <use xlink:href="#DejaVuSans-30" transform="translate(211.035156 0)"/>
       <use xlink:href="#DejaVuSans-30" transform="translate(274.658203 0)"/>
      </g>
     </g>
    </g>
    <g id="xtick_12">
     <g id="line2d_26">
      <g>
       <use xlink:href="#mfd4f08630d" x="636.028119" y="246.04" style="stroke: #000000; stroke-width: 0.8"/>
      </g>
     </g>
     <g id="text_29">
      <!-- −500 -->
      <g transform="translate(622.294526 260.638438) scale(0.1 -0.1)">
       <use xlink:href="#DejaVuSans-2212"/>
       <use xlink:href="#DejaVuSans-35" transform="translate(83.789062 0)"/>
       <use xlink:href="#DejaVuSans-30" transform="translate(147.412109 0)"/>
       <use xlink:href="#DejaVuSans-30" transform="translate(211.035156 0)"/>
      </g>
     </g>
    </g>
    <g id="xtick_13">
     <g id="line2d_27">
      <g>
       <use xlink:href="#mfd4f08630d" x="680.007108" y="246.04" style="stroke: #000000; stroke-width: 0.8"/>
      </g>
     </g>
     <g id="text_30">
      <!-- 0 -->
      <g transform="translate(676.825858 260.638438) scale(0.1 -0.1)">
       <use xlink:href="#DejaVuSans-30"/>
      </g>
     </g>
    </g>
    <g id="xtick_14">
     <g id="line2d_28">
      <g>
       <use xlink:href="#mfd4f08630d" x="723.986096" y="246.04" style="stroke: #000000; stroke-width: 0.8"/>
      </g>
     </g>
     <g id="text_31">
      <!-- 500 -->
      <g transform="translate(714.442346 260.638438) scale(0.1 -0.1)">
       <use xlink:href="#DejaVuSans-35"/>
       <use xlink:href="#DejaVuSans-30" transform="translate(63.623047 0)"/>
       <use xlink:href="#DejaVuSans-30" transform="translate(127.246094 0)"/>
      </g>
     </g>
    </g>
    <g id="xtick_15">
     <g id="line2d_29">
      <g>
       <use xlink:href="#mfd4f08630d" x="767.965085" y="246.04" style="stroke: #000000; stroke-width: 0.8"/>
      </g>
     </g>
     <g id="text_32">
      <!-- 1000 -->
      <g transform="translate(755.240085 260.638438) scale(0.1 -0.1)">
       <use xlink:href="#DejaVuSans-31"/>
       <use xlink:href="#DejaVuSans-30" transform="translate(63.623047 0)"/>
       <use xlink:href="#DejaVuSans-30" transform="translate(127.246094 0)"/>
       <use xlink:href="#DejaVuSans-30" transform="translate(190.869141 0)"/>
      </g>
     </g>
    </g>
    <g id="text_33">
     <!-- Cross-Track (m) -->
     <g transform="translate(641.51492 274.316562) scale(0.1 -0.1)">
      <use xlink:href="#DejaVuSans-43"/>
      <use xlink:href="#DejaVuSans-72" transform="translate(69.824219 0)"/>
      <use xlink:href="#DejaVuSans-6f" transform="translate(108.6875 0)"/>
      <use xlink:href="#DejaVuSans-73" transform="translate(169.869141 0)"/>
      <use xlink:href="#DejaVuSans-73" transform="translate(221.96875 0)"/>
      <use xlink:href="#DejaVuSans-2d" transform="translate(274.068359 0)"/>
      <use xlink:href="#DejaVuSans-54" transform="translate(301.027344 0)"/>
      <use xlink:href="#DejaVuSans-72" transform="translate(347.361328 0)"/>
      <use xlink:href="#DejaVuSans-61" transform="translate(388.474609 0)"/>
      <use xlink:href="#DejaVuSans-63" transform="translate(449.753906 0)"/>
      <use xlink:href="#DejaVuSans-6b" transform="translate(504.734375 0)"/>
      <use xlink:href="#DejaVuSans-20" transform="translate(562.644531 0)"/>
      <use xlink:href="#DejaVuSans-28" transform="translate(594.431641 0)"/>
      <use xlink:href="#DejaVuSans-6d" transform="translate(633.445312 0)"/>
      <use xlink:href="#DejaVuSans-29" transform="translate(730.857422 0)"/>
     </g>
    </g>
   </g>
   <g id="matplotlib.axis_6">
    <g id="ytick_13">
     <g id="line2d_30">
      <g>
       <use xlink:href="#maf5bb4b171" x="583.253333" y="218.581401" style="stroke: #000000; stroke-width: 0.8"/>
      </g>
     </g>
     <g id="text_34">
      <!-- −25000 -->
      <g transform="translate(536.061146 222.38062) scale(0.1 -0.1)">
       <use xlink:href="#DejaVuSans-2212"/>
       <use xlink:href="#DejaVuSans-32" transform="translate(83.789062 0)"/>
       <use xlink:href="#DejaVuSans-35" transform="translate(147.412109 0)"/>
       <use xlink:href="#DejaVuSans-30" transform="translate(211.035156 0)"/>
       <use xlink:href="#DejaVuSans-30" transform="translate(274.658203 0)"/>
       <use xlink:href="#DejaVuSans-30" transform="translate(338.28125 0)"/>
      </g>
     </g>
    </g>
    <g id="ytick_14">
     <g id="line2d_31">
      <g>
       <use xlink:href="#maf5bb4b171" x="583.253333" y="183.631482" style="stroke: #000000; stroke-width: 0.8"/>
      </g>
     </g>
     <g id="text_35">
      <!-- −20000 -->
      <g transform="translate(536.061146 187.4307) scale(0.1 -0.1)">
       <use xlink:href="#DejaVuSans-2212"/>
       <use xlink:href="#DejaVuSans-32" transform="translate(83.789062 0)"/>
       <use xlink:href="#DejaVuSans-30" transform="translate(147.412109 0)"/>
       <use xlink:href="#DejaVuSans-30" transform="translate(211.035156 0)"/>
       <use xlink:href="#DejaVuSans-30" transform="translate(274.658203 0)"/>
       <use xlink:href="#DejaVuSans-30" transform="translate(338.28125 0)"/>
      </g>
     </g>
    </g>
    <g id="ytick_15">
     <g id="line2d_32">
      <g>
       <use xlink:href="#maf5bb4b171" x="583.253333" y="148.681562" style="stroke: #000000; stroke-width: 0.8"/>
      </g>
     </g>
     <g id="text_36">
      <!-- −15000 -->
      <g transform="translate(536.061146 152.48078) scale(0.1 -0.1)">
       <use xlink:href="#DejaVuSans-2212"/>
       <use xlink:href="#DejaVuSans-31" transform="translate(83.789062 0)"/>
       <use xlink:href="#DejaVuSans-35" transform="translate(147.412109 0)"/>
       <use xlink:href="#DejaVuSans-30" transform="translate(211.035156 0)"/>
       <use xlink:href="#DejaVuSans-30" transform="translate(274.658203 0)"/>
       <use xlink:href="#DejaVuSans-30" transform="translate(338.28125 0)"/>
      </g>
     </g>
    </g>
    <g id="ytick_16">
     <g id="line2d_33">
      <g>
       <use xlink:href="#maf5bb4b171" x="583.253333" y="113.731642" style="stroke: #000000; stroke-width: 0.8"/>
      </g>
     </g>
     <g id="text_37">
      <!-- −10000 -->
      <g transform="translate(536.061146 117.530861) scale(0.1 -0.1)">
       <use xlink:href="#DejaVuSans-2212"/>
       <use xlink:href="#DejaVuSans-31" transform="translate(83.789062 0)"/>
       <use xlink:href="#DejaVuSans-30" transform="translate(147.412109 0)"/>
       <use xlink:href="#DejaVuSans-30" transform="translate(211.035156 0)"/>
       <use xlink:href="#DejaVuSans-30" transform="translate(274.658203 0)"/>
       <use xlink:href="#DejaVuSans-30" transform="translate(338.28125 0)"/>
      </g>
     </g>
    </g>
    <g id="ytick_17">
     <g id="line2d_34">
      <g>
       <use xlink:href="#maf5bb4b171" x="583.253333" y="78.781722" style="stroke: #000000; stroke-width: 0.8"/>
      </g>
     </g>
     <g id="text_38">
      <!-- −5000 -->
      <g transform="translate(542.423646 82.580941) scale(0.1 -0.1)">
       <use xlink:href="#DejaVuSans-2212"/>
       <use xlink:href="#DejaVuSans-35" transform="translate(83.789062 0)"/>
       <use xlink:href="#DejaVuSans-30" transform="translate(147.412109 0)"/>
       <use xlink:href="#DejaVuSans-30" transform="translate(211.035156 0)"/>
       <use xlink:href="#DejaVuSans-30" transform="translate(274.658203 0)"/>
      </g>
     </g>
    </g>
    <g id="ytick_18">
     <g id="line2d_35">
      <g>
       <use xlink:href="#maf5bb4b171" x="583.253333" y="43.831802" style="stroke: #000000; stroke-width: 0.8"/>
      </g>
     </g>
     <g id="text_39">
      <!-- 0 -->
      <g transform="translate(569.890833 47.631021) scale(0.1 -0.1)">
       <use xlink:href="#DejaVuSans-30"/>
      </g>
     </g>
    </g>
   </g>
   <g id="line2d_36">
    <path d="M 694.869878 150.355224 
L 706.406259 135.127049 
L 716.986776 120.813909 
L 726.243421 107.900777 
L 732.713695 98.525748 
L 737.887595 90.645828 
L 741.01025 85.542363 
L 743.178059 81.588195 
L 744.157748 79.411764 
L 744.574621 77.931401 
L 744.538303 77.336926 
L 744.250924 77.058639 
L 743.713857 77.097088 
L 742.929435 77.451598 
L 741.296457 78.571504 
L 739.129574 80.386525 
L 735.444463 83.85678 
L 730.904327 88.47353 
L 724.137317 95.740834 
L 716.313596 104.499015 
L 707.624607 114.530592 
L 696.355512 127.898906 
L 684.542027 142.270251 
L 672.598303 157.137875 
L 660.943085 171.978329 
L 649.985178 186.26931 
L 640.109132 199.507472 
L 631.661644 211.225668 
L 625.928968 219.528537 
L 621.534914 226.281351 
L 619.056317 230.45331 
L 617.541596 233.457844 
L 617.052486 234.914943 
L 617.037104 235.498968 
L 617.270328 235.769936 
L 617.751091 235.726509 
L 618.477339 235.368584 
L 620.02011 234.244816 
L 622.093913 232.425241 
L 625.651513 228.943836 
L 630.061245 224.30562 
L 636.662275 216.990705 
L 644.317406 208.156239 
L 652.835522 198.016086 
L 663.896901 184.473552 
L 675.500736 169.882954 
L 687.235292 154.75835 
L 698.686248 139.633926 
L 709.451474 125.044911 
L 719.155162 111.508437 
L 727.460841 99.505094 
L 733.106442 90.983467 
L 737.448031 84.035506 
L 739.913036 79.727806 
L 741.441607 76.607922 
L 741.959937 75.078732 
L 742.003937 74.453859 
L 741.806661 74.148006 
L 741.36913 74.162659 
L 740.693292 74.498065 
L 739.239223 75.600081 
L 737.269091 77.412748 
L 733.871093 80.908865 
L 729.642298 85.590281 
L 723.291184 93.001463 
L 715.903659 101.982294 
L 707.660639 112.322839 
L 696.924432 126.183448 
L 685.623821 141.184535 
L 674.155037 156.82 
L 662.92017 172.562316 
L 654.021288 185.379128 
L 645.775861 197.600791 
L 638.385011 208.941146 
L 638.385011 208.941146 
" clip-path="url(#p3f3ba9a8cf)" style="fill: none; stroke: #000000; stroke-opacity: 0.5; stroke-width: 1.5; stroke-linecap: square"/>
   </g>
   <g id="patch_19">
    <path d="M 583.253333 246.04 
L 583.253333 26.88 
" style="fill: none; stroke: #000000; stroke-width: 0.8; stroke-linejoin: miter; stroke-linecap: square"/>
   </g>
   <g id="patch_20">
    <path d="M 776.760882 246.04 
L 776.760882 26.88 
" style="fill: none; stroke: #000000; stroke-width: 0.8; stroke-linejoin: miter; stroke-linecap: square"/>
   </g>
   <g id="patch_21">
    <path d="M 583.253333 246.04 
L 776.760882 246.04 
" style="fill: none; stroke: #000000; stroke-width: 0.8; stroke-linejoin: miter; stroke-linecap: square"/>
   </g>
   <g id="patch_22">
    <path d="M 583.253333 26.88 
L 776.760882 26.88 
" style="fill: none; stroke: #000000; stroke-width: 0.8; stroke-linejoin: miter; stroke-linecap: square"/>
   </g>
   <g id="text_40">
    <!-- Satellite 3 -->
    <g transform="translate(649.708045 20.88) scale(0.12 -0.12)">
     <defs>
      <path id="DejaVuSans-33" d="M 2597 2516 
Q 3050 2419 3304 2112 
Q 3559 1806 3559 1356 
Q 3559 666 3084 287 
Q 2609 -91 1734 -91 
Q 1441 -91 1130 -33 
Q 819 25 488 141 
L 488 750 
Q 750 597 1062 519 
Q 1375 441 1716 441 
Q 2309 441 2620 675 
Q 2931 909 2931 1356 
Q 2931 1769 2642 2001 
Q 2353 2234 1838 2234 
L 1294 2234 
L 1294 2753 
L 1863 2753 
Q 2328 2753 2575 2939 
Q 2822 3125 2822 3475 
Q 2822 3834 2567 4026 
Q 2313 4219 1838 4219 
Q 1578 4219 1281 4162 
Q 984 4106 628 3988 
L 628 4550 
Q 988 4650 1302 4700 
Q 1616 4750 1894 4750 
Q 2613 4750 3031 4423 
Q 3450 4097 3450 3541 
Q 3450 3153 3228 2886 
Q 3006 2619 2597 2516 
z
" transform="scale(0.015625)"/>
     </defs>
     <use xlink:href="#DejaVuSans-53"/>
     <use xlink:href="#DejaVuSans-61" transform="translate(63.476562 0)"/>
     <use xlink:href="#DejaVuSans-74" transform="translate(124.755859 0)"/>
     <use xlink:href="#DejaVuSans-65" transform="translate(163.964844 0)"/>
     <use xlink:href="#DejaVuSans-6c" transform="translate(225.488281 0)"/>
     <use xlink:href="#DejaVuSans-6c" transform="translate(253.271484 0)"/>
     <use xlink:href="#DejaVuSans-69" transform="translate(281.054688 0)"/>
     <use xlink:href="#DejaVuSans-74" transform="translate(308.837891 0)"/>
     <use xlink:href="#DejaVuSans-65" transform="translate(348.046875 0)"/>
     <use xlink:href="#DejaVuSans-20" transform="translate(409.570312 0)"/>
     <use xlink:href="#DejaVuSans-33" transform="translate(441.357422 0)"/>
    </g>
   </g>
  </g>
 </g>
 <defs>
  <clipPath id="p4a60f4bf2d">
   <rect x="71.84" y="26.88" width="193.507549" height="219.16"/>
  </clipPath>
  <clipPath id="pccebb9c266">
   <rect x="327.546667" y="26.88" width="193.507549" height="219.16"/>
  </clipPath>
  <clipPath id="p3f3ba9a8cf">
   <rect x="583.253333" y="26.88" width="193.507549" height="219.16"/>
  </clipPath>
 </defs>
</svg>
